<?xml version="1.0" standalone="no"?>
<!DOCTYPE svg PUBLIC "-//W3C//DTD SVG 1.1//EN" "http://www.w3.org/Graphics/SVG/1.1/DTD/svg11.dtd" >
<svg xmlns="http://www.w3.org/2000/svg" xmlns:xlink="http://www.w3.org/1999/xlink" version="1.1">
<metadata>
Created by FontForge 20161116 at Mon Mar 22 16:21:18 2010
 By Jimmy Wärting
Copyright (C) 1996, 2009 Hoefler &#38; Frere-Jones. http://www.typography.com
</metadata>
<defs>
<font id="Whitney-Black" horiz-adv-x="451" >
  <font-face 
    font-family="Whitney Black"
    font-weight="450"
    font-stretch="normal"
    units-per-em="1000"
    panose-1="0 0 0 0 0 0 0 0 0 0"
    ascent="800"
    descent="-200"
    x-height="495"
    cap-height="690"
    bbox="-111 -272 1263 1022"
    underline-thickness="50"
    underline-position="-100"
    stemh="79"
    stemv="178"
    unicode-range="U+0020-FB04"
  />
<missing-glyph horiz-adv-x="500" 
d="M0 -200v1000h500v-1000h-500zM71 750l179 -390l179 390h-358zM50 -76l172 376l-172 376v-752zM450 676l-172 -376l172 -376v752zM250 240l-179 -390h358z" />
    <glyph glyph-name="f_f" unicode="ff" horiz-adv-x="726" 
d="M368 579c-17 2 -35 5 -58 5c-41 0 -58 -21 -58 -60v-29h86l22 -143h-108v-352h-178v352h-66v143h66v46c0 129 77 176 203 176c26 0 50 -3 70 -7zM740 579c-17 2 -35 5 -58 5c-41 0 -58 -21 -58 -60v-29h86l22 -143h-108v-352h-178v352h-66v143h66v46
c0 129 77 176 203 176c26 0 50 -3 70 -7z" />
    <glyph glyph-name="fi" unicode="fi" horiz-adv-x="624" 
d="M368 579c-17 2 -35 5 -58 5c-41 0 -58 -21 -58 -60v-29h86l22 -143h-108v-352h-178v352h-66v143h66v46c0 129 77 176 203 176c26 0 50 -3 70 -7zM588 638c0 -57 -43 -92 -99 -92c-55 0 -99 35 -99 92c0 58 44 93 99 93c56 0 99 -35 99 -93zM578 0h-178v495h178v-495z" />
    <glyph glyph-name="fl" unicode="fl" horiz-adv-x="624" 
d="M368 579c-17 2 -35 5 -58 5c-41 0 -58 -21 -58 -60v-29h86l22 -143h-108v-352h-178v352h-66v143h66v46c0 129 77 176 203 176c26 0 50 -3 70 -7zM578 0h-178v694l178 28v-722z" />
    <glyph glyph-name="f_f_i" unicode="ffi" horiz-adv-x="996" 
d="M368 579c-17 2 -35 5 -58 5c-41 0 -58 -21 -58 -60v-29h86l22 -143h-108v-352h-178v352h-66v143h66v46c0 129 77 176 203 176c26 0 50 -3 70 -7zM740 579c-17 2 -35 5 -58 5c-41 0 -58 -21 -58 -60v-29h86l22 -143h-108v-352h-178v352h-66v143h66v46
c0 129 77 176 203 176c26 0 50 -3 70 -7zM960 638c0 -57 -43 -92 -99 -92c-55 0 -99 35 -99 92c0 58 44 93 99 93c56 0 99 -35 99 -93zM950 0h-178v495h178v-495z" />
    <glyph glyph-name="f_f_l" unicode="ffl" horiz-adv-x="996" 
d="M368 579c-17 2 -35 5 -58 5c-41 0 -58 -21 -58 -60v-29h86l22 -143h-108v-352h-178v352h-66v143h66v46c0 129 77 176 203 176c26 0 50 -3 70 -7zM740 579c-17 2 -35 5 -58 5c-41 0 -58 -21 -58 -60v-29h86l22 -143h-108v-352h-178v352h-66v143h66v46
c0 129 77 176 203 176c26 0 50 -3 70 -7zM950 0h-178v694l178 28v-722z" />
    <glyph glyph-name=".notdef" horiz-adv-x="500" 
d="M0 -200v1000h500v-1000h-500zM71 750l179 -390l179 390h-358zM50 -76l172 376l-172 376v-752zM450 676l-172 -376l172 -376v752zM250 240l-179 -390h358z" />
    <glyph glyph-name="A" unicode="A" horiz-adv-x="708" 
d="M6 0l238 693h229l229 -668l-207 -32l-40 123h-217l-34 -116h-198zM347 489l-65 -218h127z" />
    <glyph glyph-name="B" unicode="B" horiz-adv-x="613" 
d="M582 198c0 -131 -102 -198 -269 -198h-259v690h264c160 0 240 -64 240 -179c0 -77 -46 -123 -100 -147c75 -25 124 -71 124 -166zM379 485c0 39 -23 64 -77 64h-55v-133h52c53 0 80 27 80 69zM391 215c0 50 -31 76 -90 76h-54v-150h55c56 0 89 25 89 74z" />
    <glyph glyph-name="C" unicode="C" horiz-adv-x="587" 
d="M563 35c-56 -28 -115 -46 -196 -46c-211 0 -337 135 -337 355c0 214 133 357 347 357c70 0 127 -14 176 -39l-28 -179c-37 29 -80 51 -134 51c-95 0 -157 -71 -157 -189c0 -120 67 -189 163 -189c48 0 91 17 140 45z" />
    <glyph glyph-name="D" unicode="D" horiz-adv-x="706" 
d="M675 346c0 -205 -127 -346 -359 -346h-262v690h254c240 0 367 -138 367 -344zM470 345c0 133 -70 191 -170 191h-42v-382h43c104 0 169 55 169 191z" />
    <glyph glyph-name="E" unicode="E" horiz-adv-x="549" 
d="M518 0h-464v690h455v-161h-255v-99h193l25 -159h-218v-110h264v-161z" />
    <glyph glyph-name="F" unicode="F" horiz-adv-x="514" 
d="M490 522h-233v-111h168l28 -167h-196v-244h-203v690h436v-168z" />
    <glyph glyph-name="G" unicode="G" horiz-adv-x="675" 
d="M633 63c-78 -51 -164 -76 -260 -76c-219 0 -343 144 -343 357c0 214 135 359 352 359c81 0 155 -19 211 -48l-26 -172c-53 31 -112 56 -179 56c-106 0 -154 -81 -154 -194c0 -115 50 -200 153 -200c28 0 50 6 72 17v98h-103l-23 144h300v-341z" />
    <glyph glyph-name="H" unicode="H" horiz-adv-x="709" 
d="M655 0h-205v263h-191v-263h-205v690h205v-250h191v250h205v-690z" />
    <glyph glyph-name="I" unicode="I" horiz-adv-x="319" 
d="M262 0h-205v690h205v-690z" />
    <glyph glyph-name="J" unicode="J" horiz-adv-x="448" 
d="M400 227c0 -171 -108 -234 -246 -234c-46 0 -91 5 -109 10l-27 169c21 -5 42 -11 83 -11c57 0 94 23 94 101v428h205v-463z" />
    <glyph glyph-name="K" unicode="K" horiz-adv-x="667" 
d="M673 24l-223 -31l-191 316v-309h-205v690h205v-289l181 289h231l-224 -321z" />
    <glyph glyph-name="L" unicode="L" horiz-adv-x="496" 
d="M482 0h-428v690h205v-516h195z" />
    <glyph glyph-name="M" unicode="M" horiz-adv-x="887" 
d="M854 0h-210l-25 421l-93 -421h-199l-94 421l-24 -421h-176l49 690h265l100 -436l100 436h258z" />
    <glyph glyph-name="M.alt" horiz-adv-x="886" 
d="M832 0h-196v418l-114 -421h-182l-114 421v-418h-172v690h278l116 -431l114 431h270v-690z" />
    <glyph glyph-name="N" unicode="N" horiz-adv-x="706" 
d="M652 0h-182l-226 360v-360h-190v690h202l206 -330v330h190v-690z" />
    <glyph glyph-name="O" unicode="O" horiz-adv-x="730" 
d="M700 346c0 -213 -133 -359 -336 -359c-201 0 -334 144 -334 357c0 214 133 359 336 359c202 0 334 -144 334 -357zM496 345c0 124 -47 203 -131 203s-131 -79 -131 -203s47 -203 131 -203s131 79 131 203z" />
    <glyph glyph-name="P" unicode="P" horiz-adv-x="594" 
d="M580 454c0 -163 -116 -247 -290 -247h-32v-207h-204v690h239c178 0 287 -77 287 -236zM384 451c0 60 -35 90 -103 90h-25v-185h23c68 0 105 30 105 95z" />
    <glyph glyph-name="Q" unicode="Q" horiz-adv-x="730" 
d="M700 360c0 -130 -53 -229 -139 -287l145 -43l-38 -173l-393 139c-162 57 -245 163 -245 348c0 214 134 359 336 359c198 0 334 -133 334 -343zM496 343c0 119 -47 205 -131 205c-85 0 -131 -86 -131 -205s47 -205 131 -205c85 0 131 86 131 205z" />
    <glyph glyph-name="Q.alt" horiz-adv-x="745" 
d="M730 169l-34 -183l-110 87c-57 -51 -133 -81 -222 -81c-201 0 -334 139 -334 352c0 214 133 359 336 359c212 0 334 -149 334 -349c0 -53 -9 -103 -25 -148zM499 350c0 119 -46 198 -131 198c-87 0 -134 -79 -134 -205c0 -125 48 -204 134 -204c35 0 64 14 85 39
l-148 113l193 44c0 5 1 10 1 15z" />
    <glyph glyph-name="R" unicode="R" horiz-adv-x="635" 
d="M631 26l-216 -33l-127 221h-31v-214h-203v690h264c178 0 280 -79 280 -227c0 -93 -42 -159 -120 -199zM399 451c0 58 -37 90 -103 90h-41v-185h42c66 0 102 34 102 95z" />
    <glyph glyph-name="S" unicode="S" horiz-adv-x="571" 
d="M548 217c0 -163 -119 -225 -259 -225c-101 0 -183 21 -262 55l30 167c81 -40 166 -66 235 -66c40 0 66 14 66 44c0 29 -17 43 -111 76c-141 50 -205 96 -205 217c0 142 111 213 247 213c100 0 161 -17 229 -49l-30 -166c-72 39 -143 59 -195 59c-41 0 -61 -14 -61 -38
c0 -27 16 -41 94 -67c157 -52 222 -107 222 -220z" />
    <glyph glyph-name="T" unicode="T" horiz-adv-x="613" 
d="M604 520h-193v-520h-205v520h-185v170h555z" />
    <glyph glyph-name="U" unicode="U" horiz-adv-x="687" 
d="M641 278c0 -201 -133 -288 -300 -288c-169 0 -295 85 -295 288v412h205v-415c0 -76 35 -116 93 -116c62 0 92 42 92 114v417h205v-412z" />
    <glyph glyph-name="U.alt" horiz-adv-x="700" 
d="M473 0l-10 61c-63 -42 -123 -68 -199 -68c-126 0 -211 61 -211 221v476h205v-446c0 -53 25 -78 75 -78c30 0 67 14 108 42v482h205v-690h-173z" />
    <glyph glyph-name="V" unicode="V" horiz-adv-x="699" 
d="M693 690l-235 -693h-225l-227 668l220 32l133 -446l124 439h210z" />
    <glyph glyph-name="W" unicode="W" horiz-adv-x="978" 
d="M968 690l-180 -690h-213l-90 396l-90 -396h-212l-173 664l225 33l82 -392l84 385h206l84 -385l76 385h201z" />
    <glyph glyph-name="W.alt" horiz-adv-x="1008" 
d="M1002 690l-214 -693h-210l-78 254l-85 -254h-205l-204 669l218 31l122 -437l78 231l-53 177l218 31l104 -439l108 430h201z" />
    <glyph glyph-name="X" unicode="X" horiz-adv-x="672" 
d="M666 26l-220 -33l-120 218l-114 -211h-206l208 347l-193 317l219 33l105 -194l99 187h207l-194 -324z" />
    <glyph glyph-name="Y" unicode="Y" horiz-adv-x="685" 
d="M692 690l-247 -444v-246h-205v242l-236 428l218 27l130 -265l127 258h213z" />
    <glyph glyph-name="Z" unicode="Z" horiz-adv-x="617" 
d="M587 0h-550v147l291 384h-255l-24 159h529v-147l-291 -384h275z" />
    <glyph glyph-name="a" unicode="a" horiz-adv-x="511" 
d="M471 0h-160l-10 60c-42 -43 -87 -70 -148 -70c-75 0 -131 45 -131 137c0 113 83 170 271 186v4c0 36 -19 54 -67 54c-53 0 -103 -13 -155 -35l-20 130c55 22 122 37 205 37c143 0 215 -44 215 -177v-326zM294 137v101c-72 -16 -97 -44 -97 -84c0 -28 16 -42 38 -42
c19 0 37 8 59 25z" />
    <glyph glyph-name="b" unicode="b" horiz-adv-x="544" 
d="M518 261c0 -186 -97 -267 -253 -267c-82 0 -166 14 -221 37v663l178 28v-279c30 31 71 62 126 62c99 0 170 -76 170 -244zM341 248c0 73 -23 99 -57 99c-23 0 -42 -14 -62 -34v-172c15 -5 24 -7 38 -7c44 0 81 28 81 114z" />
    <glyph glyph-name="c" unicode="c" horiz-adv-x="446" 
d="M418 32c-49 -27 -97 -40 -153 -40c-146 0 -243 93 -243 250c0 177 114 261 251 261c54 0 100 -13 142 -34l-24 -148c-36 21 -63 30 -97 30c-53 0 -93 -34 -93 -103c0 -71 45 -105 97 -105c31 0 61 10 100 31z" />
    <glyph glyph-name="d" unicode="d" horiz-adv-x="546" 
d="M502 0h-161l-10 62c-31 -35 -74 -72 -134 -72c-99 0 -172 76 -172 244c0 192 98 264 203 264c43 0 69 -6 96 -14v210l178 28v-722zM324 183v169c-15 6 -27 9 -50 9c-40 0 -71 -30 -71 -114c0 -74 25 -99 59 -99c23 0 42 15 62 35z" />
    <glyph glyph-name="e" unicode="e" horiz-adv-x="508" 
d="M484 41c-54 -31 -121 -51 -197 -51c-157 0 -265 80 -265 254c0 163 101 261 239 261c156 0 223 -114 223 -260c0 -19 -1 -38 -3 -48h-283c11 -62 55 -83 113 -83c48 0 102 17 157 45zM256 396c-36 0 -59 -36 -60 -108h121c-2 72 -25 108 -61 108z" />
    <glyph glyph-name="f" unicode="f" horiz-adv-x="354" 
d="M368 579c-17 2 -35 5 -58 5c-41 0 -58 -21 -58 -60v-29h86l22 -143h-108v-352h-178v352h-66v143h66v46c0 129 77 176 203 176c26 0 50 -3 70 -7z" />
    <glyph glyph-name="g" unicode="g" horiz-adv-x="547" 
d="M532 7c0 -111 -121 -189 -292 -189c-144 0 -242 43 -242 114c0 40 23 70 71 98c-16 16 -25 36 -25 56c0 34 27 67 83 98c-64 27 -96 79 -96 141c0 109 88 178 215 178c68 0 123 -19 163 -50l113 47l21 -126h-85c4 -14 6 -28 6 -41c0 -108 -95 -171 -212 -171
c-17 0 -34 0 -49 2c-6 -8 -8 -14 -8 -19c0 -13 10 -17 69 -21l114 -7c96 -6 154 -36 154 -110zM228 -12c-37 2 -54 4 -77 7c-10 -14 -14 -27 -14 -39c0 -32 32 -54 119 -54c72 0 115 23 115 52c0 21 -17 26 -63 29zM308 332c0 41 -22 72 -60 72s-58 -32 -58 -74
s20 -70 58 -70c39 0 60 29 60 72z" />
    <glyph glyph-name="g.alt" horiz-adv-x="544" 
d="M500 39c0 -150 -86 -221 -247 -221c-83 0 -140 15 -195 35l26 127c43 -21 94 -34 139 -34c58 0 99 22 99 89v33c-31 -30 -71 -60 -126 -60c-99 0 -171 74 -171 235c0 179 98 258 254 258c81 0 166 -14 221 -37v-425zM322 190v164c-15 5 -24 6 -38 6
c-44 0 -81 -26 -81 -108c0 -70 23 -95 57 -95c23 0 41 14 62 33z" />
    <glyph glyph-name="h" unicode="h" horiz-adv-x="541" 
d="M500 0h-178v299c0 29 -12 50 -41 50c-21 0 -39 -11 -59 -30v-319h-178v694l178 28v-286c42 41 82 69 139 69c91 0 139 -57 139 -156v-349z" />
    <glyph glyph-name="i" unicode="i" horiz-adv-x="270" 
d="M234 638c0 -57 -43 -92 -99 -92c-55 0 -99 35 -99 92c0 58 44 93 99 93c56 0 99 -35 99 -93zM224 0h-178v495h178v-495z" />
    <glyph glyph-name="j" unicode="j" horiz-adv-x="271" 
d="M234 638c0 -57 -43 -92 -99 -92c-55 0 -99 35 -99 92c0 58 44 93 99 93c56 0 99 -35 99 -93zM224 6c0 -137 -78 -188 -190 -188c-23 0 -48 2 -59 5l-20 134c11 -2 18 -4 33 -4c35 0 58 14 58 66v476h178v-489z" />
    <glyph glyph-name="k" unicode="k" horiz-adv-x="515" 
d="M517 18l-185 -25l-110 227v-220h-178v694l178 28v-427l105 200h191l-136 -231z" />
    <glyph glyph-name="l" unicode="l" horiz-adv-x="270" 
d="M224 0h-178v694l178 28v-722z" />
    <glyph glyph-name="m" unicode="m" horiz-adv-x="809" 
d="M768 0h-178v299c0 29 -11 50 -39 50c-19 0 -36 -11 -56 -29v-320h-178v299c0 29 -11 50 -39 50c-19 0 -36 -11 -56 -29v-320h-178v495h160l11 -66c44 47 85 76 146 76c66 0 102 -34 120 -76c44 46 88 76 147 76c91 0 140 -57 140 -156v-349z" />
    <glyph glyph-name="n" unicode="n" horiz-adv-x="541" 
d="M500 0h-178v299c0 29 -12 50 -41 50c-21 0 -39 -11 -59 -30v-319h-178v495h160l11 -66c44 45 87 76 146 76c91 0 139 -57 139 -156v-349z" />
    <glyph glyph-name="o" unicode="o" horiz-adv-x="527" 
d="M505 248c0 -157 -104 -258 -243 -258s-240 100 -240 257s103 258 242 258s241 -100 241 -257zM336 247c0 71 -27 114 -73 114c-45 0 -72 -42 -72 -113s27 -115 72 -115c46 0 73 43 73 114z" />
    <glyph glyph-name="p" unicode="p" horiz-adv-x="546" 
d="M520 261c0 -192 -98 -265 -202 -265c-43 0 -69 7 -96 15v-169l-178 -28v681h160l10 -62c32 35 75 72 135 72c99 0 171 -76 171 -244zM342 248c0 73 -24 99 -58 99c-23 0 -42 -15 -62 -36v-168c15 -6 27 -10 49 -10c40 0 71 30 71 115z" />
    <glyph glyph-name="q" unicode="q" horiz-adv-x="544" 
d="M500 -158l-178 -28v238c-31 -31 -71 -62 -126 -62c-99 0 -171 76 -171 244c0 185 98 267 254 267c81 0 166 -14 221 -37v-622zM322 182v172c-15 5 -24 6 -38 6c-44 0 -81 -27 -81 -113c0 -74 23 -99 57 -99c23 0 41 14 62 34z" />
    <glyph glyph-name="r" unicode="r" horiz-adv-x="385" 
d="M381 322c-70 -6 -120 -24 -159 -54v-268h-178v495h159l16 -97c28 58 63 102 133 107z" />
    <glyph glyph-name="s" unicode="s" horiz-adv-x="474" 
d="M449 158c0 -110 -74 -167 -207 -167c-84 0 -159 22 -214 50l20 129c64 -38 141 -59 192 -59c35 0 48 11 48 27s-9 26 -71 42c-127 33 -182 67 -182 162c0 97 70 162 197 162c69 0 137 -14 190 -38l-20 -129c-58 31 -122 48 -168 48c-28 0 -39 -10 -39 -23
c0 -15 9 -24 75 -42c136 -37 179 -71 179 -162z" />
    <glyph glyph-name="t" unicode="t" horiz-adv-x="374" 
d="M363 5c-28 -8 -52 -12 -95 -12c-114 0 -195 42 -195 179v180h-62v143h62v141l177 28v-169h89l22 -143h-111v-152c0 -40 21 -56 58 -56c11 0 23 2 34 6z" />
    <glyph glyph-name="u" unicode="u" horiz-adv-x="541" 
d="M497 0h-160l-11 66c-44 -45 -87 -76 -146 -76c-91 0 -139 57 -139 156v349h178v-299c0 -29 12 -50 41 -50c21 0 39 11 59 30v319h178v-495z" />
    <glyph glyph-name="v" unicode="v" horiz-adv-x="521" 
d="M520 495l-171 -497h-179l-167 483l192 21l77 -280l76 273h172z" />
    <glyph glyph-name="w" unicode="w" horiz-adv-x="726" 
d="M724 495l-130 -495h-175l-56 245l-55 -245h-177l-126 482l186 20l51 -266l53 259h163l54 -258l49 258h163z" />
    <glyph glyph-name="x" unicode="x" horiz-adv-x="506" 
d="M497 14l-186 -21l-69 136l-68 -129h-165l143 241l-137 240l187 21l61 -125l62 118h165l-138 -231z" />
    <glyph glyph-name="y" unicode="y" horiz-adv-x="521" 
d="M520 495l-166 -491c-46 -135 -109 -186 -228 -186c-38 0 -53 3 -69 7l-22 139c17 -5 31 -8 65 -8c33 0 65 11 82 43l-179 482l192 21l80 -278l73 271h172z" />
    <glyph glyph-name="z" unicode="z" horiz-adv-x="474" 
d="M455 0h-431v133l195 225h-168l-21 137h413v-134l-194 -224h184z" />
    <glyph glyph-name="a.sc" horiz-adv-x="557" 
d="M166 0h-163l168 527h223l160 -505l-167 -29l-27 99h-169zM275 408l-54 -193h108z" />
    <glyph glyph-name="b.sc" horiz-adv-x="515" 
d="M494 150c0 -109 -94 -150 -230 -150h-218v525h230c117 0 199 -37 199 -139c0 -57 -33 -93 -73 -112c55 -20 92 -59 92 -124zM321 363c0 36 -27 53 -61 53h-50v-107h47c38 0 64 18 64 54zM326 163c0 36 -22 56 -68 56h-48v-111h49c39 0 67 19 67 55z" />
    <glyph glyph-name="c.sc" horiz-adv-x="459" 
d="M434 24c-42 -21 -93 -33 -144 -33c-161 0 -266 96 -266 271c0 172 108 272 266 272c53 0 99 -11 136 -30l-21 -147c-26 19 -58 33 -94 33c-65 0 -111 -42 -111 -128c0 -89 53 -128 111 -128c35 0 69 9 103 27z" />
    <glyph glyph-name="d.sc" horiz-adv-x="544" 
d="M520 263c0 -156 -100 -263 -268 -263h-206v525h201c182 0 273 -101 273 -262zM344 262c0 89 -35 132 -103 132h-25v-263h26c63 0 102 41 102 131z" />
    <glyph glyph-name="e.sc" 
d="M421 0h-375v525h369v-125h-202v-74h148l18 -123h-166v-78h208v-125z" />
    <glyph glyph-name="f.sc" horiz-adv-x="432" 
d="M409 397h-196v-84h143l19 -129h-162v-184h-167v525h363v-128z" />
    <glyph glyph-name="g.sc" horiz-adv-x="526" 
d="M486 44c-56 -31 -118 -54 -206 -54c-159 0 -256 110 -256 272c0 171 113 273 271 273c61 0 115 -14 158 -34l-23 -141c-44 21 -83 34 -123 34c-73 0 -116 -48 -116 -137c0 -92 38 -137 108 -137c18 0 29 2 41 6v73h-67l-16 109h229v-264z" />
    <glyph glyph-name="h.sc" horiz-adv-x="557" 
d="M511 0h-170v196h-125v-196h-170v525h170v-185h125v185h170v-525z" />
    <glyph glyph-name="i.sc" horiz-adv-x="267" 
d="M218 0h-169v525h169v-525z" />
    <glyph glyph-name="j.sc" horiz-adv-x="362" 
d="M321 193c0 -136 -80 -198 -190 -198c-48 0 -81 4 -97 7l-21 138c16 -4 42 -7 65 -7c37 0 65 15 65 76v316h178v-332z" />
    <glyph glyph-name="k.sc" horiz-adv-x="527" 
d="M524 20l-180 -27l-128 249v-242h-170v525h170v-229l121 229h185l-146 -240z" />
    <glyph glyph-name="l.sc" horiz-adv-x="415" 
d="M399 0h-353v525h177v-380h155z" />
    <glyph glyph-name="m.sc" horiz-adv-x="747" 
d="M710 0h-166l-17 367l-81 -367h-168l-82 367l-16 -367h-143l31 525h232l72 -308l72 308h234z" />
    <glyph glyph-name="m.sc_alt" horiz-adv-x="716" 
d="M670 0h-160v301l-88 -303h-150l-88 303v-301h-138v525h218l97 -328l98 328h211v-525z" />
    <glyph glyph-name="n.sc" horiz-adv-x="558" 
d="M512 0h-143l-170 271v-271h-153v525h158l155 -248v248h153v-525z" />
    <glyph glyph-name="o.sc" horiz-adv-x="550" 
d="M526 263c0 -162 -105 -273 -252 -273c-145 0 -250 110 -250 272s105 273 251 273s251 -110 251 -272zM355 262c0 79 -26 138 -80 138s-81 -59 -81 -138s27 -138 81 -138c55 0 80 59 80 138z" />
    <glyph glyph-name="p.sc" horiz-adv-x="492" 
d="M474 339c0 -123 -84 -198 -236 -198h-23v-141h-169v525h197c143 0 231 -63 231 -186zM318 333c0 42 -24 71 -81 71h-23v-144h25c57 0 79 30 79 73z" />
    <glyph glyph-name="q.sc" horiz-adv-x="555" 
d="M526 275c0 -105 -45 -172 -98 -212l108 -34l-29 -143l-251 90c-147 53 -232 124 -232 286s105 273 256 273c141 0 246 -103 246 -260zM355 262c0 79 -26 138 -80 138s-81 -59 -81 -138s27 -138 81 -138c55 0 80 59 80 138z" />
    <glyph glyph-name="q.sc_alt" horiz-adv-x="571" 
d="M561 119l-26 -129l-89 66c-44 -42 -104 -66 -172 -66c-145 0 -250 110 -250 272s105 273 251 273s251 -110 251 -272c0 -40 -6 -76 -18 -109zM277 400c-55 0 -83 -60 -83 -140s28 -140 83 -140c21 0 37 8 50 23l-106 78l138 29v10c0 80 -27 140 -82 140z" />
    <glyph glyph-name="r.sc" horiz-adv-x="518" 
d="M511 19l-176 -29l-86 154h-35v-144h-168v525h221c151 0 221 -72 221 -179c0 -67 -35 -119 -85 -149zM324 338c0 43 -30 64 -75 64h-37v-134h34c52 0 78 23 78 70z" />
    <glyph glyph-name="s.sc" horiz-adv-x="469" 
d="M446 163c0 -105 -78 -171 -207 -171c-78 0 -156 19 -216 45l25 133c67 -29 142 -50 190 -50c38 0 53 12 53 31c0 17 -12 27 -57 39c-124 33 -194 65 -194 174c0 107 83 169 206 169c75 0 129 -16 175 -36l-23 -129c-46 20 -108 37 -157 37c-34 0 -48 -13 -48 -29
c0 -19 11 -27 58 -40c140 -38 195 -73 195 -173z" />
    <glyph glyph-name="t.sc" horiz-adv-x="482" 
d="M473 380h-142v-380h-178v380h-131v145h430z" />
    <glyph glyph-name="u.sc" horiz-adv-x="542" 
d="M499 207c0 -145 -86 -217 -230 -217s-226 72 -226 217v318h168v-322c0 -45 12 -74 59 -74s60 29 60 74v322h169v-318z" />
    <glyph glyph-name="u.sc_alt" horiz-adv-x="546" 
d="M500 0h-146l-7 45c-39 -36 -91 -55 -147 -55c-99 0 -156 60 -156 190v345h169v-327c0 -48 19 -67 56 -67c24 0 46 11 62 22v372h169v-525z" />
    <glyph glyph-name="v.sc" horiz-adv-x="548" 
d="M543 525l-167 -527h-211l-160 506l180 28l95 -361l90 354h173z" />
    <glyph glyph-name="w.sc" horiz-adv-x="793" 
d="M782 525l-117 -525h-202l-67 330l-69 -330h-198l-118 503l177 29l61 -348l67 341h183l66 -341l52 341h165z" />
    <glyph glyph-name="w.sc_alt" horiz-adv-x="770" 
d="M765 525l-158 -527h-170l-55 180l-60 -180h-164l-153 506l175 28l90 -328l55 164l-41 136l173 28l74 -328l71 321h163z" />
    <glyph glyph-name="x.sc" horiz-adv-x="528" 
d="M182 0h-180l151 261l-138 243l176 28l76 -149l72 142h180l-148 -253l145 -251l-176 -28l-82 159z" />
    <glyph glyph-name="y.sc" horiz-adv-x="528" 
d="M530 525l-181 -338v-187h-178v180l-173 329l180 22l90 -190l85 184h177z" />
    <glyph glyph-name="z.sc" horiz-adv-x="479" 
d="M456 0h-428v112l219 288h-190l-18 125h410v-112l-218 -289h207z" />
    <glyph glyph-name="Aacute" unicode="&#xc1;" horiz-adv-x="708" 
d="M6 0l238 693h229l229 -668l-207 -32l-40 123h-217l-34 -116h-198zM550 865l-152 -118h-112l49 151zM347 489l-65 -218h127z" />
    <glyph glyph-name="aacute" unicode="&#xe1;" horiz-adv-x="511" 
d="M471 0h-160l-10 60c-42 -43 -87 -70 -148 -70c-75 0 -131 45 -131 137c0 113 83 170 271 186v4c0 36 -19 54 -67 54c-53 0 -103 -13 -155 -35l-20 130c55 22 122 37 205 37c143 0 215 -44 215 -177v-326zM294 137v101c-72 -16 -97 -44 -97 -84c0 -28 16 -42 38 -42
c19 0 37 8 59 25zM451 665l-152 -118h-112l49 151z" />
    <glyph glyph-name="aacute.sc" horiz-adv-x="557" 
d="M166 0h-163l168 527h223l160 -505l-167 -29l-27 99h-169zM474 695l-152 -118h-112l49 151zM275 408l-54 -193h108z" />
    <glyph glyph-name="Abreve" unicode="&#x102;" horiz-adv-x="708" 
d="M6 0l238 693h229l229 -668l-207 -32l-40 123h-217l-34 -116h-198zM524 889c-13 -88 -68 -144 -166 -144s-153 56 -166 144l94 14c17 -41 36 -55 72 -55s55 14 72 55zM347 489l-65 -218h127z" />
    <glyph glyph-name="abreve" unicode="&#x103;" horiz-adv-x="511" 
d="M471 0h-160l-10 60c-42 -43 -87 -70 -148 -70c-75 0 -131 45 -131 137c0 113 83 170 271 186v4c0 36 -19 54 -67 54c-53 0 -103 -13 -155 -35l-20 130c55 22 122 37 205 37c143 0 215 -44 215 -177v-326zM294 137v101c-72 -16 -97 -44 -97 -84c0 -28 16 -42 38 -42
c19 0 37 8 59 25zM425 689c-13 -88 -68 -144 -166 -144s-153 56 -166 144l94 14c17 -41 36 -55 72 -55s55 14 72 55z" />
    <glyph glyph-name="abreve.sc" horiz-adv-x="557" 
d="M166 0h-163l168 527h223l160 -505l-167 -29l-27 99h-169zM448 719c-13 -88 -68 -144 -166 -144s-153 56 -166 144l94 14c17 -41 36 -55 72 -55s55 14 72 55zM275 408l-54 -193h108z" />
    <glyph glyph-name="Acircumflex" unicode="&#xc2;" horiz-adv-x="708" 
d="M6 0l238 693h229l229 -668l-207 -32l-40 123h-217l-34 -116h-198zM539 747h-113l-69 53l-69 -53h-113l100 150h164zM347 489l-65 -218h127z" />
    <glyph glyph-name="acircumflex" unicode="&#xe2;" horiz-adv-x="511" 
d="M471 0h-160l-10 60c-42 -43 -87 -70 -148 -70c-75 0 -131 45 -131 137c0 113 83 170 271 186v4c0 36 -19 54 -67 54c-53 0 -103 -13 -155 -35l-20 130c55 22 122 37 205 37c143 0 215 -44 215 -177v-326zM294 137v101c-72 -16 -97 -44 -97 -84c0 -28 16 -42 38 -42
c19 0 37 8 59 25zM440 547h-113l-69 53l-69 -53h-113l100 150h164z" />
    <glyph glyph-name="acircumflex.sc" horiz-adv-x="557" 
d="M166 0h-163l168 527h223l160 -505l-167 -29l-27 99h-169zM463 577h-113l-69 53l-69 -53h-113l100 150h164zM275 408l-54 -193h108z" />
    <glyph glyph-name="Adieresis" unicode="&#xc4;" horiz-adv-x="708" 
d="M6 0l238 693h229l229 -668l-207 -32l-40 123h-217l-34 -116h-198zM533 747h-144v143h144v-143zM327 747h-144v143h144v-143zM347 489l-65 -218h127z" />
    <glyph glyph-name="adieresis" unicode="&#xe4;" horiz-adv-x="511" 
d="M471 0h-160l-10 60c-42 -43 -87 -70 -148 -70c-75 0 -131 45 -131 137c0 113 83 170 271 186v4c0 36 -19 54 -67 54c-53 0 -103 -13 -155 -35l-20 130c55 22 122 37 205 37c143 0 215 -44 215 -177v-326zM294 137v101c-72 -16 -97 -44 -97 -84c0 -28 16 -42 38 -42
c19 0 37 8 59 25zM434 547h-144v143h144v-143zM228 547h-144v143h144v-143z" />
    <glyph glyph-name="adieresis.sc" horiz-adv-x="557" 
d="M166 0h-163l168 527h223l160 -505l-167 -29l-27 99h-169zM457 577h-144v143h144v-143zM251 577h-144v143h144v-143zM275 408l-54 -193h108z" />
    <glyph glyph-name="Agrave" unicode="&#xc0;" horiz-adv-x="708" 
d="M6 0l238 693h229l229 -668l-207 -32l-40 123h-217l-34 -116h-198zM431 747h-116l-152 118l218 33zM347 489l-65 -218h127z" />
    <glyph glyph-name="agrave" unicode="&#xe0;" horiz-adv-x="511" 
d="M471 0h-160l-10 60c-42 -43 -87 -70 -148 -70c-75 0 -131 45 -131 137c0 113 83 170 271 186v4c0 36 -19 54 -67 54c-53 0 -103 -13 -155 -35l-20 130c55 22 122 37 205 37c143 0 215 -44 215 -177v-326zM294 137v101c-72 -16 -97 -44 -97 -84c0 -28 16 -42 38 -42
c19 0 37 8 59 25zM332 547h-116l-152 118l218 33z" />
    <glyph glyph-name="agrave.sc" horiz-adv-x="557" 
d="M166 0h-163l168 527h223l160 -505l-167 -29l-27 99h-169zM355 577h-116l-152 118l218 33zM275 408l-54 -193h108z" />
    <glyph glyph-name="Amacron" unicode="&#x100;" horiz-adv-x="708" 
d="M6 0l238 693h229l229 -668l-207 -32l-40 123h-217l-34 -116h-198zM518 752h-320v118h320v-118zM347 489l-65 -218h127z" />
    <glyph glyph-name="amacron" unicode="&#x101;" horiz-adv-x="511" 
d="M471 0h-160l-10 60c-42 -43 -87 -70 -148 -70c-75 0 -131 45 -131 137c0 113 83 170 271 186v4c0 36 -19 54 -67 54c-53 0 -103 -13 -155 -35l-20 130c55 22 122 37 205 37c143 0 215 -44 215 -177v-326zM294 137v101c-72 -16 -97 -44 -97 -84c0 -28 16 -42 38 -42
c19 0 37 8 59 25zM419 552h-320v118h320v-118z" />
    <glyph glyph-name="amacron.sc" horiz-adv-x="557" 
d="M166 0h-163l168 527h223l160 -505l-167 -29l-27 99h-169zM442 582h-320v118h320v-118zM275 408l-54 -193h108z" />
    <glyph glyph-name="Aogonek" unicode="&#x104;" horiz-adv-x="708" 
d="M6 0l238 693h229l229 -668l-31 -5l-26 -45c-15 -26 -21 -39 -21 -55c0 -19 12 -29 34 -29c15 0 27 3 42 8v-83c-34 -15 -74 -26 -116 -26c-60 0 -96 29 -96 84c0 33 15 69 56 126l-49 -7l-40 123h-217l-34 -116h-198zM347 489l-65 -218h127z" />
    <glyph glyph-name="aogonek" unicode="&#x105;" horiz-adv-x="511" 
d="M471 0h-32l-14 -25c-15 -26 -21 -39 -21 -55c0 -19 12 -29 34 -29c15 0 27 3 42 8v-83c-34 -15 -74 -26 -116 -26c-60 0 -96 29 -96 84c0 32 15 69 56 126h-13l-10 60c-42 -43 -87 -70 -148 -70c-75 0 -131 45 -131 137c0 113 83 170 271 186v4c0 36 -19 54 -67 54
c-53 0 -103 -13 -155 -35l-20 130c55 22 122 37 205 37c143 0 215 -44 215 -177v-326zM294 137v101c-72 -16 -97 -44 -97 -84c0 -28 16 -42 38 -42c19 0 37 8 59 25z" />
    <glyph glyph-name="aogonek.sc" horiz-adv-x="557" 
d="M166 0h-163l168 527h223l160 -505l-23 -4l-25 -43c-15 -26 -21 -39 -21 -55c0 -19 12 -29 34 -29c15 0 27 3 42 8v-83c-34 -15 -74 -26 -116 -26c-60 0 -96 29 -96 84c0 32 14 67 53 122l-15 -3l-27 99h-169zM275 408l-54 -193h108z" />
    <glyph glyph-name="Aring" unicode="&#xc5;" horiz-adv-x="708" 
d="M499 734c0 -23 -7 -43 -20 -61l223 -648l-207 -32l-40 123h-217l-34 -116h-198l229 667c-16 19 -24 42 -24 67c0 59 46 110 144 110s144 -51 144 -110zM347 489l-65 -218h127zM402 734c0 30 -18 57 -47 57s-47 -27 -47 -57c0 -31 18 -57 47 -57s47 26 47 57z" />
    <glyph glyph-name="aring" unicode="&#xe5;" horiz-adv-x="511" 
d="M471 0h-160l-10 60c-42 -43 -87 -70 -148 -70c-75 0 -131 45 -131 137c0 113 83 170 271 186v4c0 36 -19 54 -67 54c-53 0 -103 -13 -155 -35l-20 130c55 22 122 37 205 37c143 0 215 -44 215 -177v-326zM294 137v101c-72 -16 -97 -44 -97 -84c0 -28 16 -42 38 -42
c19 0 37 8 59 25zM403 655c0 -60 -46 -110 -144 -110s-144 50 -144 110c0 59 46 110 144 110s144 -51 144 -110zM306 655c0 30 -18 57 -47 57s-47 -27 -47 -57c0 -31 18 -57 47 -57s47 26 47 57z" />
    <glyph glyph-name="aring.sc" horiz-adv-x="557" 
d="M422 569c0 -24 -7 -45 -22 -63l154 -484l-167 -29l-27 99h-169l-25 -92h-163l159 498c-19 19 -28 44 -28 71c0 59 46 110 144 110s144 -51 144 -110zM275 408l-54 -193h108zM325 569c0 30 -18 57 -47 57s-47 -27 -47 -57c0 -31 18 -57 47 -57s47 26 47 57z" />
    <glyph glyph-name="Aringacute" unicode="&#x1fa;" horiz-adv-x="708" 
d="M499 734c0 -23 -7 -43 -20 -61l223 -648l-207 -32l-40 123h-217l-34 -116h-198l229 667c-16 19 -24 42 -24 67c0 59 46 110 144 110s144 -51 144 -110zM546 989l-152 -118h-112l49 151zM347 489l-65 -218h127zM402 734c0 30 -18 57 -47 57s-47 -27 -47 -57
c0 -31 18 -57 47 -57s47 26 47 57z" />
    <glyph glyph-name="aringacute" unicode="&#x1fb;" horiz-adv-x="511" 
d="M471 0h-160l-10 60c-42 -43 -87 -70 -148 -70c-75 0 -131 45 -131 137c0 113 83 170 271 186v4c0 36 -19 54 -67 54c-53 0 -103 -13 -155 -35l-20 130c55 22 122 37 205 37c143 0 215 -44 215 -177v-326zM294 137v101c-72 -16 -97 -44 -97 -84c0 -28 16 -42 38 -42
c19 0 37 8 59 25zM406 655c0 -60 -46 -110 -144 -110s-144 50 -144 110c0 59 46 110 144 110s144 -51 144 -110zM309 655c0 30 -18 57 -47 57s-47 -27 -47 -57c0 -31 18 -57 47 -57s47 26 47 57zM466 911l-152 -118h-112l49 151z" />
    <glyph glyph-name="aringacute.sc" horiz-adv-x="557" 
d="M422 569c0 -24 -7 -45 -22 -63l154 -484l-167 -29l-27 99h-169l-25 -92h-163l159 498c-19 19 -28 44 -28 71c0 59 46 110 144 110s144 -51 144 -110zM470 828l-152 -118h-112l49 151zM275 408l-54 -193h108zM325 569c0 30 -18 57 -47 57s-47 -27 -47 -57
c0 -31 18 -57 47 -57s47 26 47 57z" />
    <glyph glyph-name="Atilde" unicode="&#xc3;" horiz-adv-x="708" 
d="M6 0l238 693h229l229 -668l-207 -32l-40 123h-217l-34 -116h-198zM534 896c-15 -115 -49 -150 -101 -150c-26 0 -43 7 -71 18c-38 15 -50 20 -65 20s-24 -9 -32 -42l-77 17c15 116 49 151 101 151c26 0 43 -6 71 -18c38 -16 50 -20 65 -20s24 9 32 42zM347 489l-65 -218
h127z" />
    <glyph glyph-name="atilde" unicode="&#xe3;" horiz-adv-x="511" 
d="M471 0h-160l-10 60c-42 -43 -87 -70 -148 -70c-75 0 -131 45 -131 137c0 113 83 170 271 186v4c0 36 -19 54 -67 54c-53 0 -103 -13 -155 -35l-20 130c55 22 122 37 205 37c143 0 215 -44 215 -177v-326zM294 137v101c-72 -16 -97 -44 -97 -84c0 -28 16 -42 38 -42
c19 0 37 8 59 25zM435 696c-15 -115 -49 -150 -101 -150c-26 0 -43 7 -71 18c-38 15 -50 20 -65 20s-24 -9 -32 -42l-77 17c15 116 49 151 101 151c26 0 43 -6 71 -18c38 -16 50 -20 65 -20s24 9 32 42z" />
    <glyph glyph-name="atilde.sc" horiz-adv-x="557" 
d="M166 0h-163l168 527h223l160 -505l-167 -29l-27 99h-169zM458 726c-15 -115 -49 -150 -101 -150c-26 0 -43 7 -71 18c-38 15 -50 20 -65 20s-24 -9 -32 -42l-77 17c15 116 49 151 101 151c26 0 43 -6 71 -18c38 -16 50 -20 65 -20s24 9 32 42zM275 408l-54 -193h108z" />
    <glyph glyph-name="Cacute" unicode="&#x106;" horiz-adv-x="587" 
d="M563 35c-56 -28 -115 -46 -196 -46c-211 0 -337 135 -337 355c0 214 133 357 347 357c70 0 127 -14 176 -39l-28 -179c-37 29 -80 51 -134 51c-95 0 -157 -71 -157 -189c0 -120 67 -189 163 -189c48 0 91 17 140 45zM546 865l-152 -118h-112l49 151z" />
    <glyph glyph-name="cacute" unicode="&#x107;" horiz-adv-x="446" 
d="M418 32c-49 -27 -97 -40 -153 -40c-146 0 -243 93 -243 250c0 177 114 261 251 261c54 0 100 -13 142 -34l-24 -148c-36 21 -63 30 -97 30c-53 0 -93 -34 -93 -103c0 -71 45 -105 97 -105c31 0 61 10 100 31zM459 665l-152 -118h-112l49 151z" />
    <glyph glyph-name="cacute.sc" horiz-adv-x="459" 
d="M434 24c-42 -21 -93 -33 -144 -33c-161 0 -266 96 -266 271c0 172 108 272 266 272c53 0 99 -11 136 -30l-21 -147c-26 19 -58 33 -94 33c-65 0 -111 -42 -111 -128c0 -89 53 -128 111 -128c35 0 69 9 103 27zM458 695l-152 -118h-112l49 151z" />
    <glyph glyph-name="Ccaron" unicode="&#x10c;" horiz-adv-x="587" 
d="M563 35c-56 -28 -115 -46 -196 -46c-211 0 -337 135 -337 355c0 214 133 357 347 357c70 0 127 -14 176 -39l-28 -179c-37 29 -80 51 -134 51c-95 0 -157 -71 -157 -189c0 -120 67 -189 163 -189c48 0 91 17 140 45zM172 897h113l69 -53l69 53h113l-100 -150h-164z" />
    <glyph glyph-name="ccaron" unicode="&#x10d;" horiz-adv-x="446" 
d="M418 32c-49 -27 -97 -40 -153 -40c-146 0 -243 93 -243 250c0 177 114 261 251 261c54 0 100 -13 142 -34l-24 -148c-36 21 -63 30 -97 30c-53 0 -93 -34 -93 -103c0 -71 45 -105 97 -105c31 0 61 10 100 31zM85 697h113l69 -53l69 53h113l-100 -150h-164z" />
    <glyph glyph-name="ccaron.sc" horiz-adv-x="459" 
d="M434 24c-42 -21 -93 -33 -144 -33c-161 0 -266 96 -266 271c0 172 108 272 266 272c53 0 99 -11 136 -30l-21 -147c-26 19 -58 33 -94 33c-65 0 -111 -42 -111 -128c0 -89 53 -128 111 -128c35 0 69 9 103 27zM84 727h113l69 -53l69 53h113l-100 -150h-164z" />
    <glyph glyph-name="Ccedilla" unicode="&#xc7;" horiz-adv-x="587" 
d="M563 35c-56 -28 -115 -46 -196 -46c-211 0 -337 135 -337 355c0 214 133 357 347 357c70 0 127 -14 176 -39l-28 -179c-37 29 -80 51 -134 51c-95 0 -157 -71 -157 -189c0 -120 67 -189 163 -189c48 0 91 17 140 45zM474 -87l-147 -105h-113l45 138z" />
    <glyph glyph-name="ccedilla" unicode="&#xe7;" horiz-adv-x="446" 
d="M418 32c-49 -27 -97 -40 -153 -40c-146 0 -243 93 -243 250c0 177 114 261 251 261c54 0 100 -13 142 -34l-24 -148c-36 21 -63 30 -97 30c-53 0 -93 -34 -93 -103c0 -71 45 -105 97 -105c31 0 61 10 100 31zM387 -77l-147 -105h-113l45 138z" />
    <glyph glyph-name="ccedilla.sc" horiz-adv-x="459" 
d="M434 24c-42 -21 -93 -33 -144 -33c-161 0 -266 96 -266 271c0 172 108 272 266 272c53 0 99 -11 136 -30l-21 -147c-26 19 -58 33 -94 33c-65 0 -111 -42 -111 -128c0 -89 53 -128 111 -128c35 0 69 9 103 27zM386 -77l-147 -105h-113l45 138z" />
    <glyph glyph-name="Cdotaccent" unicode="&#x10a;" horiz-adv-x="587" 
d="M563 35c-56 -28 -115 -46 -196 -46c-211 0 -337 135 -337 355c0 214 133 357 347 357c70 0 127 -14 176 -39l-28 -179c-37 29 -80 51 -134 51c-95 0 -157 -71 -157 -189c0 -120 67 -189 163 -189c48 0 91 17 140 45zM429 747h-150v143h150v-143z" />
    <glyph glyph-name="cdotaccent" unicode="&#x10b;" horiz-adv-x="446" 
d="M418 32c-49 -27 -97 -40 -153 -40c-146 0 -243 93 -243 250c0 177 114 261 251 261c54 0 100 -13 142 -34l-24 -148c-36 21 -63 30 -97 30c-53 0 -93 -34 -93 -103c0 -71 45 -105 97 -105c31 0 61 10 100 31zM342 547h-150v143h150v-143z" />
    <glyph glyph-name="cdotaccent.sc" horiz-adv-x="459" 
d="M434 24c-42 -21 -93 -33 -144 -33c-161 0 -266 96 -266 271c0 172 108 272 266 272c53 0 99 -11 136 -30l-21 -147c-26 19 -58 33 -94 33c-65 0 -111 -42 -111 -128c0 -89 53 -128 111 -128c35 0 69 9 103 27zM341 577h-150v143h150v-143z" />
    <glyph glyph-name="Dcaron" unicode="&#x10e;" horiz-adv-x="706" 
d="M675 346c0 -205 -127 -346 -359 -346h-262v690h254c240 0 367 -138 367 -344zM470 345c0 133 -70 191 -170 191h-42v-382h43c104 0 169 55 169 191zM149 887h113l69 -53l69 53h113l-100 -150h-164z" />
    <glyph glyph-name="dcaron" unicode="&#x10f;" horiz-adv-x="546" 
d="M502 0h-161l-10 62c-31 -35 -74 -72 -134 -72c-99 0 -172 76 -172 244c0 192 98 264 203 264c43 0 69 -6 96 -14v210l178 28v-722zM324 183v169c-15 6 -27 9 -50 9c-40 0 -71 -30 -71 -114c0 -74 25 -99 59 -99c23 0 42 15 62 35zM676 725c6 -25 9 -49 9 -72
c0 -49 -23 -101 -68 -145l-83 17c17 39 23 69 23 104c0 22 -6 50 -17 79z" />
    <glyph glyph-name="dcaron.sc" horiz-adv-x="544" 
d="M520 263c0 -156 -100 -263 -268 -263h-206v525h201c182 0 273 -101 273 -262zM344 262c0 89 -35 132 -103 132h-25v-263h26c63 0 102 41 102 131zM82 727h113l69 -53l69 53h113l-100 -150h-164z" />
    <glyph glyph-name="Dcroat" unicode="&#x110;" horiz-adv-x="739" 
d="M710 346c0 -205 -127 -346 -359 -346h-262v267h-58l-27 169h85v254h254c240 0 367 -138 367 -344zM505 345c0 133 -70 191 -171 191h-47v-104h104v-161h-104v-117h49c103 0 169 55 169 191z" />
    <glyph glyph-name="dcroat" unicode="&#x111;" horiz-adv-x="546" 
d="M502 0h-161l-10 62c-31 -35 -74 -72 -134 -72c-99 0 -172 76 -172 244c0 192 98 264 203 264c43 0 69 -6 96 -14v59h-110l-17 103h127v48l178 28v-76h64v-103h-64v-543zM324 183v169c-15 6 -27 9 -50 9c-40 0 -71 -30 -71 -114c0 -74 25 -99 59 -99c23 0 42 15 62 35z
" />
    <glyph glyph-name="dcroat.sc" horiz-adv-x="580" 
d="M26 193l-26 140h82v192h201c182 0 273 -101 273 -262c0 -156 -100 -263 -268 -263h-206v193h-56zM383 262c0 89 -35 132 -103 132h-32v-66h67v-130h-67v-67h32c64 0 103 41 103 131z" />
    <glyph glyph-name="Eacute" unicode="&#xc9;" horiz-adv-x="549" 
d="M518 0h-464v690h455v-161h-255v-99h193l25 -159h-218v-110h264v-161zM478 855l-152 -118h-112l49 151z" />
    <glyph glyph-name="eacute" unicode="&#xe9;" horiz-adv-x="508" 
d="M484 41c-54 -31 -121 -51 -197 -51c-157 0 -265 80 -265 254c0 163 101 261 239 261c156 0 223 -114 223 -260c0 -19 -1 -38 -3 -48h-283c11 -62 55 -83 113 -83c48 0 102 17 157 45zM454 665l-152 -118h-112l49 151zM256 396c-36 0 -59 -36 -60 -108h121
c-2 72 -25 108 -61 108z" />
    <glyph glyph-name="eacute.sc" 
d="M421 0h-375v525h369v-125h-202v-74h148l18 -123h-166v-78h208v-125zM425 695l-152 -118h-112l49 151z" />
    <glyph glyph-name="Ebreve" unicode="&#x114;" horiz-adv-x="549" 
d="M518 0h-464v690h455v-161h-255v-99h193l25 -159h-218v-110h264v-161zM452 879c-13 -88 -68 -144 -166 -144s-153 56 -166 144l94 14c17 -41 36 -55 72 -55s55 14 72 55z" />
    <glyph glyph-name="ebreve" unicode="&#x115;" horiz-adv-x="508" 
d="M484 41c-54 -31 -121 -51 -197 -51c-157 0 -265 80 -265 254c0 163 101 261 239 261c156 0 223 -114 223 -260c0 -19 -1 -38 -3 -48h-283c11 -62 55 -83 113 -83c48 0 102 17 157 45zM428 689c-13 -88 -68 -144 -166 -144s-153 56 -166 144l94 14c17 -41 36 -55 72 -55
s55 14 72 55zM256 396c-36 0 -59 -36 -60 -108h121c-2 72 -25 108 -61 108z" />
    <glyph glyph-name="ebreve.sc" 
d="M421 0h-375v525h369v-125h-202v-74h148l18 -123h-166v-78h208v-125zM399 719c-13 -88 -68 -144 -166 -144s-153 56 -166 144l94 14c17 -41 36 -55 72 -55s55 14 72 55z" />
    <glyph glyph-name="Ecaron" unicode="&#x11a;" horiz-adv-x="549" 
d="M518 0h-464v690h455v-161h-255v-99h193l25 -159h-218v-110h264v-161zM104 887h113l69 -53l69 53h113l-100 -150h-164z" />
    <glyph glyph-name="ecaron" unicode="&#x11b;" horiz-adv-x="508" 
d="M484 41c-54 -31 -121 -51 -197 -51c-157 0 -265 80 -265 254c0 163 101 261 239 261c156 0 223 -114 223 -260c0 -19 -1 -38 -3 -48h-283c11 -62 55 -83 113 -83c48 0 102 17 157 45zM80 697h113l69 -53l69 53h113l-100 -150h-164zM256 396c-36 0 -59 -36 -60 -108h121
c-2 72 -25 108 -61 108z" />
    <glyph glyph-name="ecaron.sc" 
d="M421 0h-375v525h369v-125h-202v-74h148l18 -123h-166v-78h208v-125zM51 727h113l69 -53l69 53h113l-100 -150h-164z" />
    <glyph glyph-name="Ecircumflex" unicode="&#xca;" horiz-adv-x="549" 
d="M518 0h-464v690h455v-161h-255v-99h193l25 -159h-218v-110h264v-161zM467 737h-113l-69 53l-69 -53h-113l100 150h164z" />
    <glyph glyph-name="ecircumflex" unicode="&#xea;" horiz-adv-x="508" 
d="M484 41c-54 -31 -121 -51 -197 -51c-157 0 -265 80 -265 254c0 163 101 261 239 261c156 0 223 -114 223 -260c0 -19 -1 -38 -3 -48h-283c11 -62 55 -83 113 -83c48 0 102 17 157 45zM443 547h-113l-69 53l-69 -53h-113l100 150h164zM256 396c-36 0 -59 -36 -60 -108h121
c-2 72 -25 108 -61 108z" />
    <glyph glyph-name="ecircumflex.sc" 
d="M421 0h-375v525h369v-125h-202v-74h148l18 -123h-166v-78h208v-125zM414 577h-113l-69 53l-69 -53h-113l100 150h164z" />
    <glyph glyph-name="Edieresis" unicode="&#xcb;" horiz-adv-x="549" 
d="M518 0h-464v690h455v-161h-255v-99h193l25 -159h-218v-110h264v-161zM461 737h-144v143h144v-143zM255 737h-144v143h144v-143z" />
    <glyph glyph-name="edieresis" unicode="&#xeb;" horiz-adv-x="508" 
d="M484 41c-54 -31 -121 -51 -197 -51c-157 0 -265 80 -265 254c0 163 101 261 239 261c156 0 223 -114 223 -260c0 -19 -1 -38 -3 -48h-283c11 -62 55 -83 113 -83c48 0 102 17 157 45zM231 547h-144v143h144v-143zM437 547h-144v143h144v-143zM256 396
c-36 0 -59 -36 -60 -108h121c-2 72 -25 108 -61 108z" />
    <glyph glyph-name="edieresis.sc" 
d="M421 0h-375v525h369v-125h-202v-74h148l18 -123h-166v-78h208v-125zM408 577h-144v143h144v-143zM202 577h-144v143h144v-143z" />
    <glyph glyph-name="Edotaccent" unicode="&#x116;" horiz-adv-x="549" 
d="M518 0h-464v690h455v-161h-255v-99h193l25 -159h-218v-110h264v-161zM361 737h-150v143h150v-143z" />
    <glyph glyph-name="edotaccent" unicode="&#x117;" horiz-adv-x="508" 
d="M484 41c-54 -31 -121 -51 -197 -51c-157 0 -265 80 -265 254c0 163 101 261 239 261c156 0 223 -114 223 -260c0 -19 -1 -38 -3 -48h-283c11 -62 55 -83 113 -83c48 0 102 17 157 45zM337 547h-150v143h150v-143zM256 396c-36 0 -59 -36 -60 -108h121
c-2 72 -25 108 -61 108z" />
    <glyph glyph-name="edotaccent.sc" 
d="M421 0h-375v525h369v-125h-202v-74h148l18 -123h-166v-78h208v-125zM308 577h-150v143h150v-143z" />
    <glyph glyph-name="Egrave" unicode="&#xc8;" horiz-adv-x="549" 
d="M518 0h-464v690h455v-161h-255v-99h193l25 -159h-218v-110h264v-161zM359 737h-116l-152 118l218 33z" />
    <glyph glyph-name="egrave" unicode="&#xe8;" horiz-adv-x="508" 
d="M484 41c-54 -31 -121 -51 -197 -51c-157 0 -265 80 -265 254c0 163 101 261 239 261c156 0 223 -114 223 -260c0 -19 -1 -38 -3 -48h-283c11 -62 55 -83 113 -83c48 0 102 17 157 45zM335 547h-116l-152 118l218 33zM256 396c-36 0 -59 -36 -60 -108h121
c-2 72 -25 108 -61 108z" />
    <glyph glyph-name="egrave.sc" 
d="M421 0h-375v525h369v-125h-202v-74h148l18 -123h-166v-78h208v-125zM306 577h-116l-152 118l218 33z" />
    <glyph glyph-name="Emacron" unicode="&#x112;" horiz-adv-x="549" 
d="M518 0h-464v690h455v-161h-255v-99h193l25 -159h-218v-110h264v-161zM446 742h-320v118h320v-118z" />
    <glyph glyph-name="emacron" unicode="&#x113;" horiz-adv-x="508" 
d="M484 41c-54 -31 -121 -51 -197 -51c-157 0 -265 80 -265 254c0 163 101 261 239 261c156 0 223 -114 223 -260c0 -19 -1 -38 -3 -48h-283c11 -62 55 -83 113 -83c48 0 102 17 157 45zM422 552h-320v118h320v-118zM256 396c-36 0 -59 -36 -60 -108h121
c-2 72 -25 108 -61 108z" />
    <glyph glyph-name="emacron.sc" 
d="M421 0h-375v525h369v-125h-202v-74h148l18 -123h-166v-78h208v-125zM393 582h-320v118h320v-118z" />
    <glyph glyph-name="Eogonek" unicode="&#x118;" horiz-adv-x="549" 
d="M518 0h-37l-14 -25c-15 -26 -21 -39 -21 -55c0 -19 12 -29 34 -29c15 0 27 3 42 8v-83c-34 -15 -74 -26 -116 -26c-60 0 -96 29 -96 84c0 32 15 69 56 126h-312v690h455v-161h-255v-99h193l25 -159h-218v-110h264v-161z" />
    <glyph glyph-name="eogonek" unicode="&#x119;" horiz-adv-x="508" 
d="M261 505c156 0 223 -114 223 -260c0 -19 -1 -38 -3 -48h-283c11 -62 55 -83 113 -83c48 0 102 17 157 45l14 -105l-49 -61c-24 -30 -35 -53 -35 -73c0 -19 12 -29 34 -29c15 0 27 3 42 8v-83c-34 -15 -74 -26 -116 -26c-60 0 -96 29 -96 84c0 31 14 65 50 117
c-8 -1 -17 -1 -25 -1c-157 0 -265 80 -265 254c0 163 101 261 239 261zM256 396c-36 0 -59 -36 -60 -108h121c-2 72 -25 108 -61 108z" />
    <glyph glyph-name="eogonek.sc" 
d="M421 0h-38l-14 -25c-15 -26 -21 -39 -21 -55c0 -19 12 -29 34 -29c15 0 27 3 42 8v-83c-34 -15 -74 -26 -116 -26c-60 0 -96 29 -96 84c0 32 15 69 56 126h-222v525h369v-125h-202v-74h148l18 -123h-166v-78h208v-125z" />
    <glyph glyph-name="Gbreve" unicode="&#x11e;" horiz-adv-x="675" 
d="M633 63c-78 -51 -164 -76 -260 -76c-219 0 -343 144 -343 357c0 214 135 359 352 359c81 0 155 -19 211 -48l-26 -172c-53 31 -112 56 -179 56c-106 0 -154 -81 -154 -194c0 -115 50 -200 153 -200c28 0 50 6 72 17v98h-103l-23 144h300v-341zM529 889
c-13 -88 -68 -144 -166 -144s-153 56 -166 144l94 14c17 -41 36 -55 72 -55s55 14 72 55z" />
    <glyph glyph-name="gbreve" unicode="&#x11f;" horiz-adv-x="547" 
d="M532 7c0 -111 -121 -189 -292 -189c-144 0 -242 43 -242 114c0 40 23 70 71 98c-16 16 -25 36 -25 56c0 34 27 67 83 98c-64 27 -96 79 -96 141c0 109 88 178 215 178c68 0 123 -19 163 -50l113 47l21 -126h-85c4 -14 6 -28 6 -41c0 -108 -95 -171 -212 -171
c-17 0 -34 0 -49 2c-6 -8 -8 -14 -8 -19c0 -13 10 -17 69 -21l114 -7c96 -6 154 -36 154 -110zM426 689c-13 -88 -68 -144 -166 -144s-153 56 -166 144l94 14c17 -41 36 -55 72 -55s55 14 72 55zM228 -12c-37 2 -54 4 -77 7c-10 -14 -14 -27 -14 -39c0 -32 32 -54 119 -54
c72 0 115 23 115 52c0 21 -17 26 -63 29zM308 332c0 41 -22 72 -60 72s-58 -32 -58 -74s20 -70 58 -70c39 0 60 29 60 72z" />
    <glyph glyph-name="gbreve.alt" horiz-adv-x="544" 
d="M500 39c0 -150 -86 -221 -247 -221c-83 0 -140 15 -195 35l26 127c43 -21 94 -34 139 -34c58 0 99 22 99 89v33c-31 -30 -71 -60 -126 -60c-99 0 -171 74 -171 235c0 179 98 258 254 258c81 0 166 -14 221 -37v-425zM322 190v164c-15 5 -24 6 -38 6
c-44 0 -81 -26 -81 -108c0 -70 23 -95 57 -95c23 0 41 14 62 33zM445 689c-13 -88 -68 -144 -166 -144s-153 56 -166 144l94 14c17 -41 36 -55 72 -55s55 14 72 55z" />
    <glyph glyph-name="gbreve.sc" horiz-adv-x="526" 
d="M486 44c-56 -31 -118 -54 -206 -54c-159 0 -256 110 -256 272c0 171 113 273 271 273c61 0 115 -14 158 -34l-23 -141c-44 21 -83 34 -123 34c-73 0 -116 -48 -116 -137c0 -92 38 -137 108 -137c18 0 29 2 41 6v73h-67l-16 109h229v-264zM441 719
c-13 -88 -68 -144 -166 -144s-153 56 -166 144l94 14c17 -41 36 -55 72 -55s55 14 72 55z" />
    <glyph glyph-name="Gcommaaccent" unicode="&#x122;" horiz-adv-x="675" 
d="M633 63c-78 -51 -164 -76 -260 -76c-219 0 -343 144 -343 357c0 214 135 359 352 359c81 0 155 -19 211 -48l-26 -172c-53 31 -112 56 -179 56c-106 0 -154 -81 -154 -194c0 -115 50 -200 153 -200c28 0 50 6 72 17v98h-103l-23 144h300v-341zM272 -76l140 22
c29 -24 46 -51 46 -87c0 -48 -34 -95 -96 -131l-110 21c40 43 54 70 54 102c0 22 -6 43 -34 73z" />
    <glyph glyph-name="gcommaaccent" unicode="&#x123;" horiz-adv-x="547" 
d="M532 7c0 -111 -121 -189 -292 -189c-144 0 -242 43 -242 114c0 40 23 70 71 98c-16 16 -25 36 -25 56c0 34 27 67 83 98c-64 27 -96 79 -96 141c0 109 88 178 215 178c68 0 123 -19 163 -50l113 47l21 -126h-85c4 -14 6 -28 6 -41c0 -108 -95 -171 -212 -171
c-17 0 -34 0 -49 2c-6 -8 -8 -14 -8 -19c0 -13 10 -17 69 -21l114 -7c96 -6 154 -36 154 -110zM353 560l-140 -22c-29 24 -46 51 -46 87c0 48 34 95 96 131l110 -21c-40 -43 -54 -70 -54 -102c0 -22 6 -43 34 -73zM228 -12c-37 2 -54 4 -77 7c-10 -14 -14 -27 -14 -39
c0 -32 32 -54 119 -54c72 0 115 23 115 52c0 21 -17 26 -63 29zM308 332c0 41 -22 72 -60 72s-58 -32 -58 -74s20 -70 58 -70c39 0 60 29 60 72z" />
    <glyph glyph-name="gcommaaccent.alt" horiz-adv-x="544" 
d="M500 39c0 -150 -86 -221 -247 -221c-83 0 -140 15 -195 35l26 127c43 -21 94 -34 139 -34c58 0 99 22 99 89v33c-31 -30 -71 -60 -126 -60c-99 0 -171 74 -171 235c0 179 98 258 254 258c81 0 166 -14 221 -37v-425zM322 190v164c-15 5 -24 6 -38 6
c-44 0 -81 -26 -81 -108c0 -70 23 -95 57 -95c23 0 41 14 62 33zM377 560l-140 -22c-29 24 -46 51 -46 87c0 48 34 95 96 131l110 -21c-40 -43 -54 -70 -54 -102c0 -22 6 -43 34 -73z" />
    <glyph glyph-name="gcommaaccent.sc" horiz-adv-x="526" 
d="M486 44c-56 -31 -118 -54 -206 -54c-159 0 -256 110 -256 272c0 171 113 273 271 273c61 0 115 -14 158 -34l-23 -141c-44 21 -83 34 -123 34c-73 0 -116 -48 -116 -137c0 -92 38 -137 108 -137c18 0 29 2 41 6v73h-67l-16 109h229v-264zM184 -66l140 22
c29 -24 46 -51 46 -87c0 -48 -34 -95 -96 -131l-110 21c40 43 54 70 54 102c0 22 -6 43 -34 73z" />
    <glyph glyph-name="Gdotaccent" unicode="&#x120;" horiz-adv-x="675" 
d="M633 63c-78 -51 -164 -76 -260 -76c-219 0 -343 144 -343 357c0 214 135 359 352 359c81 0 155 -19 211 -48l-26 -172c-53 31 -112 56 -179 56c-106 0 -154 -81 -154 -194c0 -115 50 -200 153 -200c28 0 50 6 72 17v98h-103l-23 144h300v-341zM438 747h-150v143h150v-143
z" />
    <glyph glyph-name="gdotaccent" unicode="&#x121;" horiz-adv-x="547" 
d="M532 7c0 -111 -121 -189 -292 -189c-144 0 -242 43 -242 114c0 40 23 70 71 98c-16 16 -25 36 -25 56c0 34 27 67 83 98c-64 27 -96 79 -96 141c0 109 88 178 215 178c68 0 123 -19 163 -50l113 47l21 -126h-85c4 -14 6 -28 6 -41c0 -108 -95 -171 -212 -171
c-17 0 -34 0 -49 2c-6 -8 -8 -14 -8 -19c0 -13 10 -17 69 -21l114 -7c96 -6 154 -36 154 -110zM335 547h-150v143h150v-143zM228 -12c-37 2 -54 4 -77 7c-10 -14 -14 -27 -14 -39c0 -32 32 -54 119 -54c72 0 115 23 115 52c0 21 -17 26 -63 29zM308 332c0 41 -22 72 -60 72
s-58 -32 -58 -74s20 -70 58 -70c39 0 60 29 60 72z" />
    <glyph glyph-name="gdotaccent.alt" horiz-adv-x="544" 
d="M500 39c0 -150 -86 -221 -247 -221c-83 0 -140 15 -195 35l26 127c43 -21 94 -34 139 -34c58 0 99 22 99 89v33c-31 -30 -71 -60 -126 -60c-99 0 -171 74 -171 235c0 179 98 258 254 258c81 0 166 -14 221 -37v-425zM322 190v164c-15 5 -24 6 -38 6
c-44 0 -81 -26 -81 -108c0 -70 23 -95 57 -95c23 0 41 14 62 33zM354 547h-150v143h150v-143z" />
    <glyph glyph-name="gdotaccent.sc" horiz-adv-x="526" 
d="M486 44c-56 -31 -118 -54 -206 -54c-159 0 -256 110 -256 272c0 171 113 273 271 273c61 0 115 -14 158 -34l-23 -141c-44 21 -83 34 -123 34c-73 0 -116 -48 -116 -137c0 -92 38 -137 108 -137c18 0 29 2 41 6v73h-67l-16 109h229v-264zM350 577h-150v143h150v-143z" />
    <glyph glyph-name="Hbar" unicode="&#x126;" horiz-adv-x="779" 
d="M690 0h-205v257h-191v-257h-205v510h-70l-18 112h88v68h203v-68h195v68h203v-68h79v-112h-79v-510zM292 429h195v85h-195v-85z" />
    <glyph glyph-name="hbar" unicode="&#x127;" horiz-adv-x="541" 
d="M344 543h-122v-107c42 41 82 69 139 69c91 0 139 -57 139 -156v-349h-178v299c0 29 -12 50 -41 50c-21 0 -39 -11 -59 -30v-319h-178v543h-52l-18 103h70v48l178 28v-76h122v-103z" />
    <glyph glyph-name="hbar.sc" horiz-adv-x="591" 
d="M528 0h-170v186h-125v-186h-170v361h-47l-19 120h66v44h168v-44h129v44h168v-44h60v-120h-60v-361zM231 318h129v58h-129v-58z" />
    <glyph glyph-name="Iacute" unicode="&#xcd;" horiz-adv-x="319" 
d="M262 0h-205v690h205v-690zM351 855l-152 -118h-112l49 151z" />
    <glyph glyph-name="iacute" unicode="&#xed;" horiz-adv-x="270" 
d="M224 0h-178v495h178v-495zM327 665l-152 -118h-112l49 151z" />
    <glyph glyph-name="iacute.sc" horiz-adv-x="267" 
d="M218 0h-169v525h169v-525zM325 695l-152 -118h-112l49 151z" />
    <glyph glyph-name="Ibreve" unicode="&#x12c;" horiz-adv-x="319" 
d="M262 0h-205v690h205v-690zM325 879c-13 -88 -68 -144 -166 -144s-153 56 -166 144l94 14c17 -41 36 -55 72 -55s55 14 72 55z" />
    <glyph glyph-name="ibreve" unicode="&#x12d;" horiz-adv-x="270" 
d="M224 0h-178v495h178v-495zM301 689c-13 -88 -68 -144 -166 -144s-153 56 -166 144l94 14c17 -41 36 -55 72 -55s55 14 72 55z" />
    <glyph glyph-name="ibreve.sc" horiz-adv-x="267" 
d="M218 0h-169v525h169v-525zM299 719c-13 -88 -68 -144 -166 -144s-153 56 -166 144l94 14c17 -41 36 -55 72 -55s55 14 72 55z" />
    <glyph glyph-name="Icircumflex" unicode="&#xce;" horiz-adv-x="319" 
d="M262 0h-205v690h205v-690zM340 737h-113l-69 53l-69 -53h-113l100 150h164z" />
    <glyph glyph-name="icircumflex" unicode="&#xee;" horiz-adv-x="270" 
d="M224 0h-178v495h178v-495zM316 547h-113l-69 53l-69 -53h-113l100 150h164z" />
    <glyph glyph-name="icircumflex.sc" horiz-adv-x="267" 
d="M218 0h-169v525h169v-525zM314 577h-113l-69 53l-69 -53h-113l100 150h164z" />
    <glyph glyph-name="Idieresis" unicode="&#xcf;" horiz-adv-x="319" 
d="M262 0h-205v690h205v-690zM334 737h-144v143h144v-143zM128 737h-144v143h144v-143z" />
    <glyph glyph-name="idieresis" unicode="&#xef;" horiz-adv-x="270" 
d="M224 0h-178v495h178v-495zM310 547h-144v143h144v-143zM104 547h-144v143h144v-143z" />
    <glyph glyph-name="idieresis.sc" horiz-adv-x="267" 
d="M218 0h-169v525h169v-525zM308 577h-144v143h144v-143zM102 577h-144v143h144v-143z" />
    <glyph glyph-name="Idotaccent" unicode="&#x130;" horiz-adv-x="319" 
d="M262 0h-205v690h205v-690zM234 737h-150v143h150v-143z" />
    <glyph glyph-name="idotaccent.sc" horiz-adv-x="267" 
d="M218 0h-169v525h169v-525zM208 577h-150v143h150v-143z" />
    <glyph glyph-name="dotlessi" unicode="&#x131;" horiz-adv-x="270" 
d="M224 0h-178v495h178v-495z" />
    <glyph glyph-name="dotlessi.sc" horiz-adv-x="267" 
d="M218 0h-169v525h169v-525z" />
    <glyph glyph-name="Igrave" unicode="&#xcc;" horiz-adv-x="319" 
d="M262 0h-205v690h205v-690zM232 737h-116l-152 118l218 33z" />
    <glyph glyph-name="igrave" unicode="&#xec;" horiz-adv-x="270" 
d="M224 0h-178v495h178v-495zM208 547h-116l-152 118l218 33z" />
    <glyph glyph-name="igrave.sc" horiz-adv-x="267" 
d="M218 0h-169v525h169v-525zM206 577h-116l-152 118l218 33z" />
    <glyph glyph-name="Imacron" unicode="&#x12a;" horiz-adv-x="319" 
d="M262 0h-205v690h205v-690zM319 742h-320v118h320v-118z" />
    <glyph glyph-name="imacron" unicode="&#x12b;" horiz-adv-x="270" 
d="M224 0h-178v495h178v-495zM295 552h-320v118h320v-118z" />
    <glyph glyph-name="imacron.sc" horiz-adv-x="267" 
d="M218 0h-169v525h169v-525zM293 582h-320v118h320v-118z" />
    <glyph glyph-name="Iogonek" unicode="&#x12e;" horiz-adv-x="319" 
d="M262 0h-39l-14 -25c-15 -26 -21 -39 -21 -55c0 -19 12 -29 34 -29c15 0 27 3 42 8v-83c-34 -15 -74 -26 -116 -26c-60 0 -96 29 -96 84c0 32 15 69 56 126h-51v690h205v-690z" />
    <glyph glyph-name="iogonek" unicode="&#x12f;" horiz-adv-x="270" 
d="M224 0h-28l-14 -25c-15 -26 -21 -39 -21 -55c0 -19 12 -29 34 -29c15 0 27 3 42 8v-83c-34 -15 -74 -26 -116 -26c-60 0 -96 29 -96 84c0 32 15 69 56 126h-35v495h178v-495zM234 638c0 -57 -43 -92 -99 -92c-55 0 -99 35 -99 92c0 58 44 93 99 93c56 0 99 -35 99 -93z
" />
    <glyph glyph-name="iogonek.sc" horiz-adv-x="267" 
d="M218 0h-25l-14 -25c-15 -26 -21 -39 -21 -55c0 -19 12 -29 34 -29c15 0 27 3 42 8v-83c-34 -15 -74 -26 -116 -26c-60 0 -96 29 -96 84c0 32 15 69 56 126h-29v525h169v-525z" />
    <glyph glyph-name="Kcommaaccent" unicode="&#x136;" horiz-adv-x="667" 
d="M673 24l-223 -31l-191 316v-309h-205v690h205v-289l181 289h231l-224 -321zM260 -56l140 22c29 -24 46 -51 46 -87c0 -48 -34 -95 -96 -131l-110 21c40 43 54 70 54 102c0 22 -6 43 -34 73z" />
    <glyph glyph-name="kcommaaccent" unicode="&#x137;" horiz-adv-x="515" 
d="M517 18l-185 -25l-110 227v-220h-178v694l178 28v-427l105 200h191l-136 -231zM179 -66l140 22c29 -24 46 -51 46 -87c0 -48 -34 -95 -96 -131l-110 21c40 43 54 70 54 102c0 22 -6 43 -34 73z" />
    <glyph glyph-name="kcommaaccent.sc" horiz-adv-x="527" 
d="M524 20l-180 -27l-128 249v-242h-170v525h170v-229l121 229h185l-146 -240zM183 -66l140 22c29 -24 46 -51 46 -87c0 -48 -34 -95 -96 -131l-110 21c40 43 54 70 54 102c0 22 -6 43 -34 73z" />
    <glyph glyph-name="Lacute" unicode="&#x139;" horiz-adv-x="496" 
d="M482 0h-428v690h205v-516h195zM373 865l-152 -118h-112l49 151z" />
    <glyph glyph-name="lacute" unicode="&#x13a;" horiz-adv-x="270" 
d="M224 0h-178v694l178 28v-722zM337 875l-152 -118h-112l49 151z" />
    <glyph glyph-name="lacute.sc" horiz-adv-x="415" 
d="M399 0h-353v525h177v-380h155zM356 695l-152 -118h-112l49 151z" />
    <glyph glyph-name="Lcaron" unicode="&#x13d;" horiz-adv-x="496" 
d="M482 0h-428v690h205v-516h195zM446 703c6 -25 9 -49 9 -72c0 -49 -23 -101 -68 -145l-83 17c17 39 23 69 23 104c0 22 -6 50 -17 79z" />
    <glyph glyph-name="lcaron" unicode="&#x13e;" horiz-adv-x="270" 
d="M224 0h-178v694l178 28v-722zM400 724c6 -25 9 -49 9 -72c0 -49 -23 -101 -68 -145l-83 17c17 39 23 69 23 104c0 22 -6 50 -17 79z" />
    <glyph glyph-name="lcaron.sc" horiz-adv-x="441" 
d="M399 0h-353v525h177v-380h155zM404 536c6 -25 9 -49 9 -72c0 -49 -23 -101 -68 -145l-83 17c17 39 23 69 23 104c0 22 -6 50 -17 79z" />
    <glyph glyph-name="Lcommaaccent" unicode="&#x13b;" horiz-adv-x="496" 
d="M482 0h-428v690h205v-516h195zM175 -76l140 22c29 -24 46 -51 46 -87c0 -48 -34 -95 -96 -131l-110 21c40 43 54 70 54 102c0 22 -6 43 -34 73z" />
    <glyph glyph-name="lcommaaccent" unicode="&#x13c;" horiz-adv-x="270" 
d="M224 0h-178v694l178 28v-722zM44 -66l140 22c29 -24 46 -51 46 -87c0 -48 -34 -95 -96 -131l-110 21c40 43 54 70 54 102c0 22 -6 43 -34 73z" />
    <glyph glyph-name="lcommaaccent.sc" horiz-adv-x="415" 
d="M399 0h-353v525h177v-380h155zM125 -76l140 22c29 -24 46 -51 46 -87c0 -48 -34 -95 -96 -131l-110 21c40 43 54 70 54 102c0 22 -6 43 -34 73z" />
    <glyph glyph-name="Ldot" unicode="&#x13f;" horiz-adv-x="496" 
d="M473 302h-138v143h138v-143zM482 0h-428v690h205v-516h195z" />
    <glyph glyph-name="ldot" unicode="&#x140;" horiz-adv-x="355" 
d="M224 0h-178v694l178 28v-722zM374 275h-120v173h120v-173z" />
    <glyph glyph-name="ldot.sc" horiz-adv-x="421" 
d="M410 234h-127v137h127v-137zM399 0h-353v525h177v-380h155z" />
    <glyph glyph-name="Lslash" unicode="&#x141;" horiz-adv-x="531" 
d="M406 381l-114 -61v-146h197l28 -174h-428v211l-60 -32l-25 152l85 45v314h203v-205l114 62v-166z" />
    <glyph glyph-name="lslash" unicode="&#x142;" horiz-adv-x="334" 
d="M255 0h-176v220l-52 -27l-27 153l79 40v308l176 28v-244l67 36v-167l-67 -34v-313z" />
    <glyph glyph-name="lslash.sc" 
d="M362 297l-105 -53v-99h157l21 -145h-353v152l-62 -33l-20 130l82 41v235h175v-144l105 57v-141z" />
    <glyph glyph-name="Nacute" unicode="&#x143;" horiz-adv-x="706" 
d="M652 0h-182l-226 360v-360h-190v690h202l206 -330v330h190v-690zM545 855l-152 -118h-112l49 151z" />
    <glyph glyph-name="nacute" unicode="&#x144;" horiz-adv-x="541" 
d="M500 0h-178v299c0 29 -12 50 -41 50c-21 0 -39 -11 -59 -30v-319h-178v495h160l11 -66c44 45 87 76 146 76c91 0 139 -57 139 -156v-349zM468 665l-152 -118h-112l49 151z" />
    <glyph glyph-name="nacute.sc" horiz-adv-x="558" 
d="M512 0h-143l-170 271v-271h-153v525h158l155 -248v248h153v-525zM471 695l-152 -118h-112l49 151z" />
    <glyph glyph-name="Ncaron" unicode="&#x147;" horiz-adv-x="706" 
d="M652 0h-182l-226 360v-360h-190v690h202l206 -330v330h190v-690zM171 887h113l69 -53l69 53h113l-100 -150h-164z" />
    <glyph glyph-name="ncaron" unicode="&#x148;" horiz-adv-x="541" 
d="M500 0h-178v299c0 29 -12 50 -41 50c-21 0 -39 -11 -59 -30v-319h-178v495h160l11 -66c44 45 87 76 146 76c91 0 139 -57 139 -156v-349zM94 697h113l69 -53l69 53h113l-100 -150h-164z" />
    <glyph glyph-name="ncaron.sc" horiz-adv-x="558" 
d="M512 0h-143l-170 271v-271h-153v525h158l155 -248v248h153v-525zM97 727h113l69 -53l69 53h113l-100 -150h-164z" />
    <glyph glyph-name="Ncommaaccent" unicode="&#x145;" horiz-adv-x="706" 
d="M652 0h-182l-226 360v-360h-190v690h202l206 -330v330h190v-690zM262 -56l140 22c29 -24 46 -51 46 -87c0 -48 -34 -95 -96 -131l-110 21c40 43 54 70 54 102c0 22 -6 43 -34 73z" />
    <glyph glyph-name="ncommaaccent" unicode="&#x146;" horiz-adv-x="541" 
d="M500 0h-178v299c0 29 -12 50 -41 50c-21 0 -39 -11 -59 -30v-319h-178v495h160l11 -66c44 45 87 76 146 76c91 0 139 -57 139 -156v-349zM185 -66l140 22c29 -24 46 -51 46 -87c0 -48 -34 -95 -96 -131l-110 21c40 43 54 70 54 102c0 22 -6 43 -34 73z" />
    <glyph glyph-name="ncommaaccent.sc" horiz-adv-x="558" 
d="M512 0h-143l-170 271v-271h-153v525h158l155 -248v248h153v-525zM188 -66l140 22c29 -24 46 -51 46 -87c0 -48 -34 -95 -96 -131l-110 21c40 43 54 70 54 102c0 22 -6 43 -34 73z" />
    <glyph glyph-name="Ntilde" unicode="&#xd1;" horiz-adv-x="706" 
d="M652 0h-182l-226 360v-360h-190v690h202l206 -330v330h190v-690zM529 886c-15 -115 -49 -150 -101 -150c-26 0 -43 7 -71 18c-38 15 -50 20 -65 20s-24 -9 -32 -42l-77 17c15 116 49 151 101 151c26 0 43 -6 71 -18c38 -16 50 -20 65 -20s24 9 32 42z" />
    <glyph glyph-name="ntilde" unicode="&#xf1;" horiz-adv-x="541" 
d="M500 0h-178v299c0 29 -12 50 -41 50c-21 0 -39 -11 -59 -30v-319h-178v495h160l11 -66c44 45 87 76 146 76c91 0 139 -57 139 -156v-349zM452 696c-15 -115 -49 -150 -101 -150c-26 0 -43 7 -71 18c-38 15 -50 20 -65 20s-24 -9 -32 -42l-77 17c15 116 49 151 101 151
c26 0 43 -6 71 -18c38 -16 50 -20 65 -20s24 9 32 42z" />
    <glyph glyph-name="ntilde.sc" horiz-adv-x="558" 
d="M512 0h-143l-170 271v-271h-153v525h158l155 -248v248h153v-525zM455 726c-15 -115 -49 -150 -101 -150c-26 0 -43 7 -71 18c-38 15 -50 20 -65 20s-24 -9 -32 -42l-77 17c15 116 49 151 101 151c26 0 43 -6 71 -18c38 -16 50 -20 65 -20s24 9 32 42z" />
    <glyph glyph-name="Oacute" unicode="&#xd3;" horiz-adv-x="730" 
d="M700 346c0 -213 -133 -359 -336 -359c-201 0 -334 144 -334 357c0 214 133 359 336 359c202 0 334 -144 334 -357zM496 345c0 124 -47 203 -131 203s-131 -79 -131 -203s47 -203 131 -203s131 79 131 203zM557 865l-152 -118h-112l49 151z" />
    <glyph glyph-name="oacute" unicode="&#xf3;" horiz-adv-x="527" 
d="M505 248c0 -157 -104 -258 -243 -258s-240 100 -240 257s103 258 242 258s241 -100 241 -257zM336 247c0 71 -27 114 -73 114c-45 0 -72 -42 -72 -113s27 -115 72 -115c46 0 73 43 73 114zM455 665l-152 -118h-112l49 151z" />
    <glyph glyph-name="oacute.sc" horiz-adv-x="550" 
d="M526 263c0 -162 -105 -273 -252 -273c-145 0 -250 110 -250 272s105 273 251 273s251 -110 251 -272zM355 262c0 79 -26 138 -80 138s-81 -59 -81 -138s27 -138 81 -138c55 0 80 59 80 138zM468 695l-152 -118h-112l49 151z" />
    <glyph glyph-name="Obreve" unicode="&#x14e;" horiz-adv-x="730" 
d="M700 346c0 -213 -133 -359 -336 -359c-201 0 -334 144 -334 357c0 214 133 359 336 359c202 0 334 -144 334 -357zM496 345c0 124 -47 203 -131 203s-131 -79 -131 -203s47 -203 131 -203s131 79 131 203zM531 889c-13 -88 -68 -144 -166 -144s-153 56 -166 144l94 14
c17 -41 36 -55 72 -55s55 14 72 55z" />
    <glyph glyph-name="obreve" unicode="&#x14f;" horiz-adv-x="527" 
d="M505 248c0 -157 -104 -258 -243 -258s-240 100 -240 257s103 258 242 258s241 -100 241 -257zM336 247c0 71 -27 114 -73 114c-45 0 -72 -42 -72 -113s27 -115 72 -115c46 0 73 43 73 114zM429 689c-13 -88 -68 -144 -166 -144s-153 56 -166 144l94 14
c17 -41 36 -55 72 -55s55 14 72 55z" />
    <glyph glyph-name="obreve.sc" horiz-adv-x="550" 
d="M526 263c0 -162 -105 -273 -252 -273c-145 0 -250 110 -250 272s105 273 251 273s251 -110 251 -272zM355 262c0 79 -26 138 -80 138s-81 -59 -81 -138s27 -138 81 -138c55 0 80 59 80 138zM442 719c-13 -88 -68 -144 -166 -144s-153 56 -166 144l94 14
c17 -41 36 -55 72 -55s55 14 72 55z" />
    <glyph glyph-name="Ocircumflex" unicode="&#xd4;" horiz-adv-x="730" 
d="M700 346c0 -213 -133 -359 -336 -359c-201 0 -334 144 -334 357c0 214 133 359 336 359c202 0 334 -144 334 -357zM496 345c0 124 -47 203 -131 203s-131 -79 -131 -203s47 -203 131 -203s131 79 131 203zM546 747h-113l-69 53l-69 -53h-113l100 150h164z" />
    <glyph glyph-name="ocircumflex" unicode="&#xf4;" horiz-adv-x="527" 
d="M505 248c0 -157 -104 -258 -243 -258s-240 100 -240 257s103 258 242 258s241 -100 241 -257zM336 247c0 71 -27 114 -73 114c-45 0 -72 -42 -72 -113s27 -115 72 -115c46 0 73 43 73 114zM444 547h-113l-69 53l-69 -53h-113l100 150h164z" />
    <glyph glyph-name="ocircumflex.sc" horiz-adv-x="550" 
d="M526 263c0 -162 -105 -273 -252 -273c-145 0 -250 110 -250 272s105 273 251 273s251 -110 251 -272zM355 262c0 79 -26 138 -80 138s-81 -59 -81 -138s27 -138 81 -138c55 0 80 59 80 138zM457 577h-113l-69 53l-69 -53h-113l100 150h164z" />
    <glyph glyph-name="Odieresis" unicode="&#xd6;" horiz-adv-x="730" 
d="M700 346c0 -213 -133 -359 -336 -359c-201 0 -334 144 -334 357c0 214 133 359 336 359c202 0 334 -144 334 -357zM496 345c0 124 -47 203 -131 203s-131 -79 -131 -203s47 -203 131 -203s131 79 131 203zM540 747h-144v143h144v-143zM334 747h-144v143h144v-143z" />
    <glyph glyph-name="odieresis" unicode="&#xf6;" horiz-adv-x="527" 
d="M505 248c0 -157 -104 -258 -243 -258s-240 100 -240 257s103 258 242 258s241 -100 241 -257zM336 247c0 71 -27 114 -73 114c-45 0 -72 -42 -72 -113s27 -115 72 -115c46 0 73 43 73 114zM438 547h-144v143h144v-143zM232 547h-144v143h144v-143z" />
    <glyph glyph-name="odieresis.sc" horiz-adv-x="550" 
d="M526 263c0 -162 -105 -273 -252 -273c-145 0 -250 110 -250 272s105 273 251 273s251 -110 251 -272zM355 262c0 79 -26 138 -80 138s-81 -59 -81 -138s27 -138 81 -138c55 0 80 59 80 138zM451 577h-144v143h144v-143zM245 577h-144v143h144v-143z" />
    <glyph glyph-name="Ograve" unicode="&#xd2;" horiz-adv-x="730" 
d="M700 346c0 -213 -133 -359 -336 -359c-201 0 -334 144 -334 357c0 214 133 359 336 359c202 0 334 -144 334 -357zM496 345c0 124 -47 203 -131 203s-131 -79 -131 -203s47 -203 131 -203s131 79 131 203zM438 747h-116l-152 118l218 33z" />
    <glyph glyph-name="ograve" unicode="&#xf2;" horiz-adv-x="527" 
d="M505 248c0 -157 -104 -258 -243 -258s-240 100 -240 257s103 258 242 258s241 -100 241 -257zM336 247c0 71 -27 114 -73 114c-45 0 -72 -42 -72 -113s27 -115 72 -115c46 0 73 43 73 114zM336 547h-116l-152 118l218 33z" />
    <glyph glyph-name="ograve.sc" horiz-adv-x="550" 
d="M526 263c0 -162 -105 -273 -252 -273c-145 0 -250 110 -250 272s105 273 251 273s251 -110 251 -272zM355 262c0 79 -26 138 -80 138s-81 -59 -81 -138s27 -138 81 -138c55 0 80 59 80 138zM349 577h-116l-152 118l218 33z" />
    <glyph glyph-name="Ohungarumlaut" unicode="&#x150;" horiz-adv-x="730" 
d="M700 346c0 -213 -133 -359 -336 -359c-201 0 -334 144 -334 357c0 214 133 359 336 359c202 0 334 -144 334 -357zM496 345c0 124 -47 203 -131 203s-131 -79 -131 -203s47 -203 131 -203s131 79 131 203zM629 865l-136 -118h-112l32 85l-99 -85h-112l56 151l168 -29
l11 29z" />
    <glyph glyph-name="ohungarumlaut" unicode="&#x151;" horiz-adv-x="527" 
d="M505 248c0 -157 -104 -258 -243 -258s-240 100 -240 257s103 258 242 258s241 -100 241 -257zM527 665l-136 -118h-112l32 85l-99 -85h-112l56 151l168 -29l11 29zM336 247c0 71 -27 114 -73 114c-45 0 -72 -42 -72 -113s27 -115 72 -115c46 0 73 43 73 114z" />
    <glyph glyph-name="ohungarumlaut.sc" horiz-adv-x="550" 
d="M526 263c0 -162 -105 -273 -252 -273c-145 0 -250 110 -250 272s105 273 251 273s251 -110 251 -272zM540 695l-136 -118h-112l32 85l-99 -85h-112l56 151l168 -29l11 29zM355 262c0 79 -26 138 -80 138s-81 -59 -81 -138s27 -138 81 -138c55 0 80 59 80 138z" />
    <glyph glyph-name="Omacron" unicode="&#x14c;" horiz-adv-x="730" 
d="M700 346c0 -213 -133 -359 -336 -359c-201 0 -334 144 -334 357c0 214 133 359 336 359c202 0 334 -144 334 -357zM496 345c0 124 -47 203 -131 203s-131 -79 -131 -203s47 -203 131 -203s131 79 131 203zM525 752h-320v118h320v-118z" />
    <glyph glyph-name="omacron" unicode="&#x14d;" horiz-adv-x="527" 
d="M505 248c0 -157 -104 -258 -243 -258s-240 100 -240 257s103 258 242 258s241 -100 241 -257zM336 247c0 71 -27 114 -73 114c-45 0 -72 -42 -72 -113s27 -115 72 -115c46 0 73 43 73 114zM423 552h-320v118h320v-118z" />
    <glyph glyph-name="omacron.sc" horiz-adv-x="550" 
d="M526 263c0 -162 -105 -273 -252 -273c-145 0 -250 110 -250 272s105 273 251 273s251 -110 251 -272zM355 262c0 79 -26 138 -80 138s-81 -59 -81 -138s27 -138 81 -138c55 0 80 59 80 138zM436 582h-320v118h320v-118z" />
    <glyph glyph-name="Oslash" unicode="&#xd8;" horiz-adv-x="730" 
d="M700 343c0 -213 -135 -356 -333 -356c-75 0 -142 21 -195 59l-46 -55l-112 25l84 103c-43 60 -68 139 -68 228c0 213 135 356 333 356c75 0 141 -22 195 -60l46 56l112 -25l-85 -103c44 -61 69 -139 69 -228zM365 556c-85 0 -133 -85 -133 -211c0 -31 3 -59 8 -84
l211 253c-22 27 -51 42 -86 42zM498 345c0 30 -3 58 -9 83l-210 -253c22 -26 51 -41 86 -41c85 0 133 85 133 211z" />
    <glyph glyph-name="oslash" unicode="&#xf8;" horiz-adv-x="527" 
d="M506 248c0 -157 -106 -258 -239 -258c-54 0 -103 14 -142 42l-32 -40l-84 19l62 74c-30 42 -48 97 -48 162c0 157 105 258 239 258c53 0 102 -15 141 -43l33 41l84 -19l-63 -74c31 -43 49 -98 49 -162zM264 370c-48 0 -76 -48 -76 -122c0 -18 1 -34 4 -49l120 149
c-13 14 -29 22 -48 22zM341 247c0 17 -2 33 -5 47l-120 -148c13 -14 29 -21 48 -21c48 0 77 48 77 122z" />
    <glyph glyph-name="oslash.sc" horiz-adv-x="550" 
d="M558 509l-73 -89c26 -43 41 -97 41 -157c0 -162 -105 -273 -252 -273c-52 0 -99 14 -137 39l-32 -39l-113 26l73 88c-26 43 -41 97 -41 158c0 162 105 273 251 273c52 0 99 -15 138 -40l32 40zM359 262c0 12 -1 24 -2 35l-130 -160c13 -13 29 -20 48 -20
c57 0 84 62 84 145zM191 262c0 -12 1 -24 2 -35l129 160c-13 12 -28 20 -47 20c-57 0 -84 -63 -84 -145z" />
    <glyph glyph-name="Oslashacute" unicode="&#x1fe;" horiz-adv-x="730" 
d="M700 343c0 -213 -135 -356 -333 -356c-75 0 -142 21 -195 59l-46 -55l-112 25l84 103c-43 60 -68 139 -68 228c0 213 135 356 333 356c75 0 141 -22 195 -60l46 56l112 -25l-85 -103c44 -61 69 -139 69 -228zM365 556c-85 0 -133 -85 -133 -211c0 -31 3 -59 8 -84
l211 253c-22 27 -51 42 -86 42zM498 345c0 30 -3 58 -9 83l-210 -253c22 -26 51 -41 86 -41c85 0 133 85 133 211zM557 865l-152 -118h-112l49 151z" />
    <glyph glyph-name="oslashacute" unicode="&#x1ff;" horiz-adv-x="527" 
d="M506 248c0 -157 -106 -258 -239 -258c-54 0 -103 14 -142 42l-32 -40l-84 19l62 74c-30 42 -48 97 -48 162c0 157 105 258 239 258c53 0 102 -15 141 -43l33 41l84 -19l-63 -74c31 -43 49 -98 49 -162zM455 665l-152 -118h-112l49 151zM264 370c-48 0 -76 -48 -76 -122
c0 -18 1 -34 4 -49l120 149c-13 14 -29 22 -48 22zM341 247c0 17 -2 33 -5 47l-120 -148c13 -14 29 -21 48 -21c48 0 77 48 77 122z" />
    <glyph glyph-name="oslashacute.sc" horiz-adv-x="550" 
d="M558 509l-73 -89c26 -43 41 -97 41 -157c0 -162 -105 -273 -252 -273c-52 0 -99 14 -137 39l-32 -39l-113 26l73 88c-26 43 -41 97 -41 158c0 162 105 273 251 273c52 0 99 -15 138 -40l32 40zM467 695l-152 -118h-112l49 151zM359 262c0 12 -1 24 -2 35l-130 -160
c13 -13 29 -20 48 -20c57 0 84 62 84 145zM191 262c0 -12 1 -24 2 -35l129 160c-13 12 -28 20 -47 20c-57 0 -84 -63 -84 -145z" />
    <glyph glyph-name="Otilde" unicode="&#xd5;" horiz-adv-x="730" 
d="M700 346c0 -213 -133 -359 -336 -359c-201 0 -334 144 -334 357c0 214 133 359 336 359c202 0 334 -144 334 -357zM496 345c0 124 -47 203 -131 203s-131 -79 -131 -203s47 -203 131 -203s131 79 131 203zM541 896c-15 -115 -49 -150 -101 -150c-26 0 -43 7 -71 18
c-38 15 -50 20 -65 20s-24 -9 -32 -42l-77 17c15 116 49 151 101 151c26 0 43 -6 71 -18c38 -16 50 -20 65 -20s24 9 32 42z" />
    <glyph glyph-name="otilde" unicode="&#xf5;" horiz-adv-x="527" 
d="M505 248c0 -157 -104 -258 -243 -258s-240 100 -240 257s103 258 242 258s241 -100 241 -257zM336 247c0 71 -27 114 -73 114c-45 0 -72 -42 -72 -113s27 -115 72 -115c46 0 73 43 73 114zM439 696c-15 -115 -49 -150 -101 -150c-26 0 -43 7 -71 18c-38 15 -50 20 -65 20
s-24 -9 -32 -42l-77 17c15 116 49 151 101 151c26 0 43 -6 71 -18c38 -16 50 -20 65 -20s24 9 32 42z" />
    <glyph glyph-name="otilde.sc" horiz-adv-x="550" 
d="M526 263c0 -162 -105 -273 -252 -273c-145 0 -250 110 -250 272s105 273 251 273s251 -110 251 -272zM355 262c0 79 -26 138 -80 138s-81 -59 -81 -138s27 -138 81 -138c55 0 80 59 80 138zM452 726c-15 -115 -49 -150 -101 -150c-26 0 -43 7 -71 18
c-38 15 -50 20 -65 20s-24 -9 -32 -42l-77 17c15 116 49 151 101 151c26 0 43 -6 71 -18c38 -16 50 -20 65 -20s24 9 32 42z" />
    <glyph glyph-name="Racute" unicode="&#x154;" horiz-adv-x="635" 
d="M631 26l-216 -33l-127 221h-31v-214h-203v690h264c178 0 280 -79 280 -227c0 -93 -42 -159 -120 -199zM399 451c0 58 -37 90 -103 90h-41v-185h42c66 0 102 34 102 95zM502 855l-152 -118h-112l49 151z" />
    <glyph glyph-name="racute" unicode="&#x155;" horiz-adv-x="385" 
d="M381 322c-70 -6 -120 -24 -159 -54v-268h-178v495h159l16 -97c28 58 63 102 133 107zM388 665l-152 -118h-112l49 151z" />
    <glyph glyph-name="racute.sc" horiz-adv-x="518" 
d="M511 19l-176 -29l-86 154h-35v-144h-168v525h221c151 0 221 -72 221 -179c0 -67 -35 -119 -85 -149zM324 338c0 43 -30 64 -75 64h-37v-134h34c52 0 78 23 78 70zM448 695l-152 -118h-112l49 151z" />
    <glyph glyph-name="Rcaron" unicode="&#x158;" horiz-adv-x="635" 
d="M631 26l-216 -33l-127 221h-31v-214h-203v690h264c178 0 280 -79 280 -227c0 -93 -42 -159 -120 -199zM399 451c0 58 -37 90 -103 90h-41v-185h42c66 0 102 34 102 95zM128 887h113l69 -53l69 53h113l-100 -150h-164z" />
    <glyph glyph-name="rcaron" unicode="&#x159;" horiz-adv-x="385" 
d="M381 322c-70 -6 -120 -24 -159 -54v-268h-178v495h159l16 -97c28 58 63 102 133 107zM14 697h113l69 -53l69 53h113l-100 -150h-164z" />
    <glyph glyph-name="rcaron.sc" horiz-adv-x="518" 
d="M511 19l-176 -29l-86 154h-35v-144h-168v525h221c151 0 221 -72 221 -179c0 -67 -35 -119 -85 -149zM324 338c0 43 -30 64 -75 64h-37v-134h34c52 0 78 23 78 70zM74 727h113l69 -53l69 53h113l-100 -150h-164z" />
    <glyph glyph-name="Rcommaaccent" unicode="&#x156;" horiz-adv-x="635" 
d="M631 26l-216 -33l-127 221h-31v-214h-203v690h264c178 0 280 -79 280 -227c0 -93 -42 -159 -120 -199zM399 451c0 58 -37 90 -103 90h-41v-185h42c66 0 102 34 102 95zM229 -56l140 22c29 -24 46 -51 46 -87c0 -48 -34 -95 -96 -131l-110 21c40 43 54 70 54 102
c0 22 -6 43 -34 73z" />
    <glyph glyph-name="rcommaaccent" unicode="&#x157;" horiz-adv-x="385" 
d="M381 322c-70 -6 -120 -24 -159 -54v-268h-178v495h159l16 -97c28 58 63 102 133 107zM50 -66l140 22c29 -24 46 -51 46 -87c0 -48 -34 -95 -96 -131l-110 21c40 43 54 70 54 102c0 22 -6 43 -34 73z" />
    <glyph glyph-name="rcommaaccent.sc" horiz-adv-x="518" 
d="M511 19l-176 -29l-86 154h-35v-144h-168v525h221c151 0 221 -72 221 -179c0 -67 -35 -119 -85 -149zM324 338c0 43 -30 64 -75 64h-37v-134h34c52 0 78 23 78 70zM165 -66l140 22c29 -24 46 -51 46 -87c0 -48 -34 -95 -96 -131l-110 21c40 43 54 70 54 102
c0 22 -6 43 -34 73z" />
    <glyph glyph-name="Sacute" unicode="&#x15a;" horiz-adv-x="571" 
d="M548 217c0 -163 -119 -225 -259 -225c-101 0 -183 21 -262 55l30 167c81 -40 166 -66 235 -66c40 0 66 14 66 44c0 29 -17 43 -111 76c-141 50 -205 96 -205 217c0 142 111 213 247 213c100 0 161 -17 229 -49l-30 -166c-72 39 -143 59 -195 59c-41 0 -61 -14 -61 -38
c0 -27 16 -41 94 -67c157 -52 222 -107 222 -220zM488 865l-152 -118h-112l49 151z" />
    <glyph glyph-name="sacute" unicode="&#x15b;" horiz-adv-x="474" 
d="M449 158c0 -110 -74 -167 -207 -167c-84 0 -159 22 -214 50l20 129c64 -38 141 -59 192 -59c35 0 48 11 48 27s-9 26 -71 42c-127 33 -182 67 -182 162c0 97 70 162 197 162c69 0 137 -14 190 -38l-20 -129c-58 31 -122 48 -168 48c-28 0 -39 -10 -39 -23
c0 -15 9 -24 75 -42c136 -37 179 -71 179 -162zM442 665l-152 -118h-112l49 151z" />
    <glyph glyph-name="sacute.sc" horiz-adv-x="469" 
d="M446 163c0 -105 -78 -171 -207 -171c-78 0 -156 19 -216 45l25 133c67 -29 142 -50 190 -50c38 0 53 12 53 31c0 17 -12 27 -57 39c-124 33 -194 65 -194 174c0 107 83 169 206 169c75 0 129 -16 175 -36l-23 -129c-46 20 -108 37 -157 37c-34 0 -48 -13 -48 -29
c0 -19 11 -27 58 -40c140 -38 195 -73 195 -173zM443 695l-152 -118h-112l49 151z" />
    <glyph glyph-name="Scaron" unicode="&#x160;" horiz-adv-x="571" 
d="M548 217c0 -163 -119 -225 -259 -225c-101 0 -183 21 -262 55l30 167c81 -40 166 -66 235 -66c40 0 66 14 66 44c0 29 -17 43 -111 76c-141 50 -205 96 -205 217c0 142 111 213 247 213c100 0 161 -17 229 -49l-30 -166c-72 39 -143 59 -195 59c-41 0 -61 -14 -61 -38
c0 -27 16 -41 94 -67c157 -52 222 -107 222 -220zM114 897h113l69 -53l69 53h113l-100 -150h-164z" />
    <glyph glyph-name="scaron" unicode="&#x161;" horiz-adv-x="474" 
d="M449 158c0 -110 -74 -167 -207 -167c-84 0 -159 22 -214 50l20 129c64 -38 141 -59 192 -59c35 0 48 11 48 27s-9 26 -71 42c-127 33 -182 67 -182 162c0 97 70 162 197 162c69 0 137 -14 190 -38l-20 -129c-58 31 -122 48 -168 48c-28 0 -39 -10 -39 -23
c0 -15 9 -24 75 -42c136 -37 179 -71 179 -162zM68 697h113l69 -53l69 53h113l-100 -150h-164z" />
    <glyph glyph-name="scaron.sc" horiz-adv-x="469" 
d="M446 163c0 -105 -78 -171 -207 -171c-78 0 -156 19 -216 45l25 133c67 -29 142 -50 190 -50c38 0 53 12 53 31c0 17 -12 27 -57 39c-124 33 -194 65 -194 174c0 107 83 169 206 169c75 0 129 -16 175 -36l-23 -129c-46 20 -108 37 -157 37c-34 0 -48 -13 -48 -29
c0 -19 11 -27 58 -40c140 -38 195 -73 195 -173zM69 727h113l69 -53l69 53h113l-100 -150h-164z" />
    <glyph glyph-name="Scedilla" unicode="&#x15e;" horiz-adv-x="571" 
d="M548 217c0 -163 -119 -225 -259 -225c-101 0 -183 21 -262 55l30 167c81 -40 166 -66 235 -66c40 0 66 14 66 44c0 29 -17 43 -111 76c-141 50 -205 96 -205 217c0 142 111 213 247 213c100 0 161 -17 229 -49l-30 -166c-72 39 -143 59 -195 59c-41 0 -61 -14 -61 -38
c0 -27 16 -41 94 -67c157 -52 222 -107 222 -220zM416 -87l-147 -105h-113l45 138z" />
    <glyph glyph-name="scedilla" unicode="&#x15f;" horiz-adv-x="474" 
d="M449 158c0 -110 -74 -167 -207 -167c-84 0 -159 22 -214 50l20 129c64 -38 141 -59 192 -59c35 0 48 11 48 27s-9 26 -71 42c-127 33 -182 67 -182 162c0 97 70 162 197 162c69 0 137 -14 190 -38l-20 -129c-58 31 -122 48 -168 48c-28 0 -39 -10 -39 -23
c0 -15 9 -24 75 -42c136 -37 179 -71 179 -162zM370 -77l-147 -105h-113l45 138z" />
    <glyph glyph-name="scedilla.sc" horiz-adv-x="469" 
d="M446 163c0 -105 -78 -171 -207 -171c-78 0 -156 19 -216 45l25 133c67 -29 142 -50 190 -50c38 0 53 12 53 31c0 17 -12 27 -57 39c-124 33 -194 65 -194 174c0 107 83 169 206 169c75 0 129 -16 175 -36l-23 -129c-46 20 -108 37 -157 37c-34 0 -48 -13 -48 -29
c0 -19 11 -27 58 -40c140 -38 195 -73 195 -173zM371 -77l-147 -105h-113l45 138z" />
    <glyph glyph-name="Scommaaccent" unicode="&#x218;" horiz-adv-x="571" 
d="M548 217c0 -163 -119 -225 -259 -225c-101 0 -183 21 -262 55l30 167c81 -40 166 -66 235 -66c40 0 66 14 66 44c0 29 -17 43 -111 76c-141 50 -205 96 -205 217c0 142 111 213 247 213c100 0 161 -17 229 -49l-30 -166c-72 39 -143 59 -195 59c-41 0 -61 -14 -61 -38
c0 -27 16 -41 94 -67c157 -52 222 -107 222 -220zM205 -76l140 22c29 -24 46 -51 46 -87c0 -48 -34 -95 -96 -131l-110 21c40 43 54 70 54 102c0 22 -6 43 -34 73z" />
    <glyph glyph-name="scommaaccent" unicode="&#x219;" horiz-adv-x="474" 
d="M449 158c0 -110 -74 -167 -207 -167c-84 0 -159 22 -214 50l20 129c64 -38 141 -59 192 -59c35 0 48 11 48 27s-9 26 -71 42c-127 33 -182 67 -182 162c0 97 70 162 197 162c69 0 137 -14 190 -38l-20 -129c-58 31 -122 48 -168 48c-28 0 -39 -10 -39 -23
c0 -15 9 -24 75 -42c136 -37 179 -71 179 -162zM159 -66l140 22c29 -24 46 -51 46 -87c0 -48 -34 -95 -96 -131l-110 21c40 43 54 70 54 102c0 22 -6 43 -34 73z" />
    <glyph glyph-name="scommaaccent.sc" horiz-adv-x="469" 
d="M446 163c0 -105 -78 -171 -207 -171c-78 0 -156 19 -216 45l25 133c67 -29 142 -50 190 -50c38 0 53 12 53 31c0 17 -12 27 -57 39c-124 33 -194 65 -194 174c0 107 83 169 206 169c75 0 129 -16 175 -36l-23 -129c-46 20 -108 37 -157 37c-34 0 -48 -13 -48 -29
c0 -19 11 -27 58 -40c140 -38 195 -73 195 -173zM160 -66l140 22c29 -24 46 -51 46 -87c0 -48 -34 -95 -96 -131l-110 21c40 43 54 70 54 102c0 22 -6 43 -34 73z" />
    <glyph glyph-name="Tcaron" unicode="&#x164;" horiz-adv-x="613" 
d="M604 520h-193v-520h-205v520h-185v170h555zM126 887h113l69 -53l69 53h113l-100 -150h-164z" />
    <glyph glyph-name="tcaron" unicode="&#x165;" horiz-adv-x="374" 
d="M363 5c-28 -8 -52 -12 -95 -12c-114 0 -195 42 -195 179v180h-62v143h62v141l177 28v-169h89l22 -143h-111v-152c0 -40 21 -56 58 -56c11 0 23 2 34 6zM428 743c6 -25 9 -49 9 -72c0 -49 -23 -101 -68 -145l-83 17c17 39 23 69 23 104c0 22 -6 50 -17 79z" />
    <glyph glyph-name="tcaron.sc" horiz-adv-x="482" 
d="M473 380h-142v-380h-178v380h-131v145h430zM63 727h113l69 -53l69 53h113l-100 -150h-164z" />
    <glyph glyph-name="Tcommaaccent" unicode="&#x162;" horiz-adv-x="613" 
d="M604 520h-193v-520h-205v520h-185v170h555zM217 -76l140 22c29 -24 46 -51 46 -87c0 -48 -34 -95 -96 -131l-110 21c40 43 54 70 54 102c0 22 -6 43 -34 73z" />
    <glyph glyph-name="Tcommaaccent" unicode="&#x21a;" horiz-adv-x="613" 
d="M604 520h-193v-520h-205v520h-185v170h555zM217 -76l140 22c29 -24 46 -51 46 -87c0 -48 -34 -95 -96 -131l-110 21c40 43 54 70 54 102c0 22 -6 43 -34 73z" />
    <glyph glyph-name="tcommaaccent" unicode="&#x163;" horiz-adv-x="374" 
d="M363 5c-28 -8 -52 -12 -95 -12c-114 0 -195 42 -195 179v180h-62v143h62v141l177 28v-169h89l22 -143h-111v-152c0 -40 21 -56 58 -56c11 0 23 2 34 6zM109 -66l140 22c29 -24 46 -51 46 -87c0 -48 -34 -95 -96 -131l-110 21c40 43 54 70 54 102c0 22 -6 43 -34 73z" />
    <glyph glyph-name="tcommaaccent" unicode="&#x21b;" horiz-adv-x="374" 
d="M363 5c-28 -8 -52 -12 -95 -12c-114 0 -195 42 -195 179v180h-62v143h62v141l177 28v-169h89l22 -143h-111v-152c0 -40 21 -56 58 -56c11 0 23 2 34 6zM109 -66l140 22c29 -24 46 -51 46 -87c0 -48 -34 -95 -96 -131l-110 21c40 43 54 70 54 102c0 22 -6 43 -34 73z" />
    <glyph glyph-name="tcommaaccent.sc" horiz-adv-x="482" 
d="M473 380h-142v-380h-178v380h-131v145h430zM154 -76l140 22c29 -24 46 -51 46 -87c0 -48 -34 -95 -96 -131l-110 21c40 43 54 70 54 102c0 22 -6 43 -34 73z" />
    <glyph glyph-name="Uacute" unicode="&#xda;" horiz-adv-x="687" 
d="M641 278c0 -201 -133 -288 -300 -288c-169 0 -295 85 -295 288v412h205v-415c0 -76 35 -116 93 -116c62 0 92 42 92 114v417h205v-412zM535 855l-152 -118h-112l49 151z" />
    <glyph glyph-name="uacute" unicode="&#xfa;" horiz-adv-x="541" 
d="M497 0h-160l-11 66c-44 -45 -87 -76 -146 -76c-91 0 -139 57 -139 156v349h178v-299c0 -29 12 -50 41 -50c21 0 39 11 59 30v319h178v-495zM462 665l-152 -118h-112l49 151z" />
    <glyph glyph-name="uacute.sc" horiz-adv-x="542" 
d="M499 207c0 -145 -86 -217 -230 -217s-226 72 -226 217v318h168v-322c0 -45 12 -74 59 -74s60 29 60 74v322h169v-318zM463 695l-152 -118h-112l49 151z" />
    <glyph glyph-name="Uacute.alt" horiz-adv-x="700" 
d="M473 0l-10 61c-63 -42 -123 -68 -199 -68c-126 0 -211 61 -211 221v476h205v-446c0 -53 25 -78 75 -78c30 0 67 14 108 42v482h205v-690h-173zM541 855l-152 -118h-112l49 151z" />
    <glyph glyph-name="uacute.sc_alt" horiz-adv-x="546" 
d="M500 0h-146l-7 45c-39 -36 -91 -55 -147 -55c-99 0 -156 60 -156 190v345h169v-327c0 -48 19 -67 56 -67c24 0 46 11 62 22v372h169v-525zM464 695l-152 -118h-112l49 151z" />
    <glyph glyph-name="Ubreve" unicode="&#x16c;" horiz-adv-x="687" 
d="M641 278c0 -201 -133 -288 -300 -288c-169 0 -295 85 -295 288v412h205v-415c0 -76 35 -116 93 -116c62 0 92 42 92 114v417h205v-412zM509 872c-13 -88 -68 -144 -166 -144s-153 56 -166 144l94 14c17 -41 36 -55 72 -55s55 14 72 55z" />
    <glyph glyph-name="ubreve" unicode="&#x16d;" horiz-adv-x="541" 
d="M497 0h-160l-11 66c-44 -45 -87 -76 -146 -76c-91 0 -139 57 -139 156v349h178v-299c0 -29 12 -50 41 -50c21 0 39 11 59 30v319h178v-495zM436 689c-13 -88 -68 -144 -166 -144s-153 56 -166 144l94 14c17 -41 36 -55 72 -55s55 14 72 55z" />
    <glyph glyph-name="ubreve.sc" horiz-adv-x="542" 
d="M499 207c0 -145 -86 -217 -230 -217s-226 72 -226 217v318h168v-322c0 -45 12 -74 59 -74s60 29 60 74v322h169v-318zM437 719c-13 -88 -68 -144 -166 -144s-153 56 -166 144l94 14c17 -41 36 -55 72 -55s55 14 72 55z" />
    <glyph glyph-name="Ubreve.alt" horiz-adv-x="700" 
d="M473 0l-10 61c-63 -42 -123 -68 -199 -68c-126 0 -211 61 -211 221v476h205v-446c0 -53 25 -78 75 -78c30 0 67 14 108 42v482h205v-690h-173zM515 872c-13 -88 -68 -144 -166 -144s-153 56 -166 144l94 14c17 -41 36 -55 72 -55s55 14 72 55z" />
    <glyph glyph-name="ubreve.sc_alt" horiz-adv-x="546" 
d="M500 0h-146l-7 45c-39 -36 -91 -55 -147 -55c-99 0 -156 60 -156 190v345h169v-327c0 -48 19 -67 56 -67c24 0 46 11 62 22v372h169v-525zM438 719c-13 -88 -68 -144 -166 -144s-153 56 -166 144l94 14c17 -41 36 -55 72 -55s55 14 72 55z" />
    <glyph glyph-name="Ucircumflex" unicode="&#xdb;" horiz-adv-x="687" 
d="M641 278c0 -201 -133 -288 -300 -288c-169 0 -295 85 -295 288v412h205v-415c0 -76 35 -116 93 -116c62 0 92 42 92 114v417h205v-412zM524 737h-113l-69 53l-69 -53h-113l100 150h164z" />
    <glyph glyph-name="ucircumflex" unicode="&#xfb;" horiz-adv-x="541" 
d="M497 0h-160l-11 66c-44 -45 -87 -76 -146 -76c-91 0 -139 57 -139 156v349h178v-299c0 -29 12 -50 41 -50c21 0 39 11 59 30v319h178v-495zM451 547h-113l-69 53l-69 -53h-113l100 150h164z" />
    <glyph glyph-name="ucircumflex.sc" horiz-adv-x="542" 
d="M499 207c0 -145 -86 -217 -230 -217s-226 72 -226 217v318h168v-322c0 -45 12 -74 59 -74s60 29 60 74v322h169v-318zM452 577h-113l-69 53l-69 -53h-113l100 150h164z" />
    <glyph glyph-name="Ucircumflex.alt" horiz-adv-x="700" 
d="M473 0l-10 61c-63 -42 -123 -68 -199 -68c-126 0 -211 61 -211 221v476h205v-446c0 -53 25 -78 75 -78c30 0 67 14 108 42v482h205v-690h-173zM530 737h-113l-69 53l-69 -53h-113l100 150h164z" />
    <glyph glyph-name="ucircumflex.sc_alt" horiz-adv-x="546" 
d="M500 0h-146l-7 45c-39 -36 -91 -55 -147 -55c-99 0 -156 60 -156 190v345h169v-327c0 -48 19 -67 56 -67c24 0 46 11 62 22v372h169v-525zM453 577h-113l-69 53l-69 -53h-113l100 150h164z" />
    <glyph glyph-name="Udieresis" unicode="&#xdc;" horiz-adv-x="687" 
d="M641 278c0 -201 -133 -288 -300 -288c-169 0 -295 85 -295 288v412h205v-415c0 -76 35 -116 93 -116c62 0 92 42 92 114v417h205v-412zM518 737h-144v143h144v-143zM312 737h-144v143h144v-143z" />
    <glyph glyph-name="udieresis" unicode="&#xfc;" horiz-adv-x="541" 
d="M497 0h-160l-11 66c-44 -45 -87 -76 -146 -76c-91 0 -139 57 -139 156v349h178v-299c0 -29 12 -50 41 -50c21 0 39 11 59 30v319h178v-495zM445 547h-144v143h144v-143zM239 547h-144v143h144v-143z" />
    <glyph glyph-name="udieresis.sc" horiz-adv-x="542" 
d="M499 207c0 -145 -86 -217 -230 -217s-226 72 -226 217v318h168v-322c0 -45 12 -74 59 -74s60 29 60 74v322h169v-318zM446 577h-144v143h144v-143zM240 577h-144v143h144v-143z" />
    <glyph glyph-name="Udieresis.alt" horiz-adv-x="700" 
d="M473 0l-10 61c-63 -42 -123 -68 -199 -68c-126 0 -211 61 -211 221v476h205v-446c0 -53 25 -78 75 -78c30 0 67 14 108 42v482h205v-690h-173zM524 737h-144v143h144v-143zM318 737h-144v143h144v-143z" />
    <glyph glyph-name="udieresis.sc_alt" horiz-adv-x="546" 
d="M500 0h-146l-7 45c-39 -36 -91 -55 -147 -55c-99 0 -156 60 -156 190v345h169v-327c0 -48 19 -67 56 -67c24 0 46 11 62 22v372h169v-525zM447 577h-144v143h144v-143zM241 577h-144v143h144v-143z" />
    <glyph glyph-name="Ugrave" unicode="&#xd9;" horiz-adv-x="687" 
d="M641 278c0 -201 -133 -288 -300 -288c-169 0 -295 85 -295 288v412h205v-415c0 -76 35 -116 93 -116c62 0 92 42 92 114v417h205v-412zM416 737h-116l-152 118l218 33z" />
    <glyph glyph-name="ugrave" unicode="&#xf9;" horiz-adv-x="541" 
d="M497 0h-160l-11 66c-44 -45 -87 -76 -146 -76c-91 0 -139 57 -139 156v349h178v-299c0 -29 12 -50 41 -50c21 0 39 11 59 30v319h178v-495zM343 547h-116l-152 118l218 33z" />
    <glyph glyph-name="ugrave.sc" horiz-adv-x="542" 
d="M499 207c0 -145 -86 -217 -230 -217s-226 72 -226 217v318h168v-322c0 -45 12 -74 59 -74s60 29 60 74v322h169v-318zM344 577h-116l-152 118l218 33z" />
    <glyph glyph-name="Ugrave.alt" horiz-adv-x="700" 
d="M473 0l-10 61c-63 -42 -123 -68 -199 -68c-126 0 -211 61 -211 221v476h205v-446c0 -53 25 -78 75 -78c30 0 67 14 108 42v482h205v-690h-173zM422 737h-116l-152 118l218 33z" />
    <glyph glyph-name="ugrave.sc_alt" horiz-adv-x="546" 
d="M500 0h-146l-7 45c-39 -36 -91 -55 -147 -55c-99 0 -156 60 -156 190v345h169v-327c0 -48 19 -67 56 -67c24 0 46 11 62 22v372h169v-525zM345 577h-116l-152 118l218 33z" />
    <glyph glyph-name="Uhungarumlaut" unicode="&#x170;" horiz-adv-x="687" 
d="M641 278c0 -201 -133 -288 -300 -288c-169 0 -295 85 -295 288v412h205v-415c0 -76 35 -116 93 -116c62 0 92 42 92 114v417h205v-412zM607 855l-136 -118h-112l32 85l-99 -85h-112l56 151l168 -29l11 29z" />
    <glyph glyph-name="uhungarumlaut" unicode="&#x171;" horiz-adv-x="541" 
d="M497 0h-160l-11 66c-44 -45 -87 -76 -146 -76c-91 0 -139 57 -139 156v349h178v-299c0 -29 12 -50 41 -50c21 0 39 11 59 30v319h178v-495zM534 665l-136 -118h-112l32 85l-99 -85h-112l56 151l168 -29l11 29z" />
    <glyph glyph-name="uhungarumlaut.sc" horiz-adv-x="542" 
d="M499 207c0 -145 -86 -217 -230 -217s-226 72 -226 217v318h168v-322c0 -45 12 -74 59 -74s60 29 60 74v322h169v-318zM535 695l-136 -118h-112l32 85l-99 -85h-112l56 151l168 -29l11 29z" />
    <glyph glyph-name="Uhungarumlaut.alt" horiz-adv-x="700" 
d="M473 0l-10 61c-63 -42 -123 -68 -199 -68c-126 0 -211 61 -211 221v476h205v-446c0 -53 25 -78 75 -78c30 0 67 14 108 42v482h205v-690h-173zM613 855l-136 -118h-112l32 85l-99 -85h-112l56 151l168 -29l11 29z" />
    <glyph glyph-name="uhungarumlaut.sc_alt" horiz-adv-x="546" 
d="M500 0h-146l-7 45c-39 -36 -91 -55 -147 -55c-99 0 -156 60 -156 190v345h169v-327c0 -48 19 -67 56 -67c24 0 46 11 62 22v372h169v-525zM536 695l-136 -118h-112l32 85l-99 -85h-112l56 151l168 -29l11 29z" />
    <glyph glyph-name="Umacron" unicode="&#x16a;" horiz-adv-x="687" 
d="M641 278c0 -201 -133 -288 -300 -288c-169 0 -295 85 -295 288v412h205v-415c0 -76 35 -116 93 -116c62 0 92 42 92 114v417h205v-412zM503 742h-320v118h320v-118z" />
    <glyph glyph-name="umacron" unicode="&#x16b;" horiz-adv-x="541" 
d="M497 0h-160l-11 66c-44 -45 -87 -76 -146 -76c-91 0 -139 57 -139 156v349h178v-299c0 -29 12 -50 41 -50c21 0 39 11 59 30v319h178v-495zM430 552h-320v118h320v-118z" />
    <glyph glyph-name="umacron.sc" horiz-adv-x="542" 
d="M499 207c0 -145 -86 -217 -230 -217s-226 72 -226 217v318h168v-322c0 -45 12 -74 59 -74s60 29 60 74v322h169v-318zM431 582h-320v118h320v-118z" />
    <glyph glyph-name="Umacron.alt" horiz-adv-x="700" 
d="M473 0l-10 61c-63 -42 -123 -68 -199 -68c-126 0 -211 61 -211 221v476h205v-446c0 -53 25 -78 75 -78c30 0 67 14 108 42v482h205v-690h-173zM509 742h-320v118h320v-118z" />
    <glyph glyph-name="umacron.sc_alt" horiz-adv-x="546" 
d="M500 0h-146l-7 45c-39 -36 -91 -55 -147 -55c-99 0 -156 60 -156 190v345h169v-327c0 -48 19 -67 56 -67c24 0 46 11 62 22v372h169v-525zM432 582h-320v118h320v-118z" />
    <glyph glyph-name="Uogonek" unicode="&#x172;" horiz-adv-x="687" 
d="M641 278c0 -177 -102 -265 -240 -284l-11 -19c-15 -26 -21 -39 -21 -55c0 -19 12 -29 34 -29c15 0 27 3 42 8v-83c-34 -15 -74 -26 -116 -26c-60 0 -96 29 -96 84c0 31 14 66 51 120c-140 17 -238 104 -238 284v412h205v-415c0 -76 35 -116 93 -116c62 0 92 42 92 114
v417h205v-412z" />
    <glyph glyph-name="uogonek" unicode="&#x173;" horiz-adv-x="541" 
d="M497 0h-33l-14 -25c-15 -26 -21 -39 -21 -55c0 -19 12 -29 34 -29c15 0 27 3 42 8v-83c-34 -15 -74 -26 -116 -26c-60 0 -96 29 -96 84c0 32 15 69 56 126h-12l-11 66c-44 -45 -87 -76 -146 -76c-91 0 -139 57 -139 156v349h178v-299c0 -29 12 -50 41 -50
c21 0 39 11 59 30v319h178v-495z" />
    <glyph glyph-name="uogonek.sc" horiz-adv-x="542" 
d="M499 207c0 -124 -62 -194 -170 -212l-11 -20c-15 -26 -21 -39 -21 -55c0 -19 12 -29 34 -29c15 0 27 3 42 8v-83c-34 -15 -74 -26 -116 -26c-60 0 -96 29 -96 84c0 31 14 66 52 121c-109 16 -170 87 -170 212v318h168v-322c0 -45 12 -74 59 -74s60 29 60 74v322h169v-318
z" />
    <glyph glyph-name="Uogonek.alt" horiz-adv-x="700" 
d="M473 0l-10 61c-63 -42 -123 -68 -199 -68c-126 0 -211 61 -211 221v476h205v-446c0 -53 25 -78 75 -78c30 0 67 14 108 42v482h205v-690h-37l-14 -25c-15 -26 -21 -39 -21 -55c0 -19 12 -29 34 -29c15 0 27 3 42 8v-83c-34 -15 -74 -26 -116 -26c-60 0 -96 29 -96 84
c0 32 15 69 56 126h-21z" />
    <glyph glyph-name="uogonek.sc_alt" horiz-adv-x="546" 
d="M500 0h-32l-14 -25c-15 -26 -21 -39 -21 -55c0 -19 12 -29 34 -29c15 0 27 3 42 8v-83c-34 -15 -74 -26 -116 -26c-60 0 -96 29 -96 84c0 33 15 69 57 127l-7 44c-39 -36 -91 -55 -147 -55c-99 0 -156 60 -156 190v345h169v-327c0 -48 19 -67 56 -67c24 0 46 11 62 22
v372h169v-525z" />
    <glyph glyph-name="Uring" unicode="&#x16e;" horiz-adv-x="687" 
d="M641 278c0 -201 -133 -288 -300 -288c-169 0 -295 85 -295 288v412h205v-415c0 -76 35 -116 93 -116c62 0 92 42 92 114v417h205v-412zM487 835c0 -60 -46 -110 -144 -110s-144 50 -144 110c0 59 46 110 144 110s144 -51 144 -110zM390 835c0 30 -18 57 -47 57
s-47 -27 -47 -57c0 -31 18 -57 47 -57s47 26 47 57z" />
    <glyph glyph-name="uring" unicode="&#x16f;" horiz-adv-x="541" 
d="M497 0h-160l-11 66c-44 -45 -87 -76 -146 -76c-91 0 -139 57 -139 156v349h178v-299c0 -29 12 -50 41 -50c21 0 39 11 59 30v319h178v-495zM414 645c0 -60 -46 -110 -144 -110s-144 50 -144 110c0 59 46 110 144 110s144 -51 144 -110zM317 645c0 30 -18 57 -47 57
s-47 -27 -47 -57c0 -31 18 -57 47 -57s47 26 47 57z" />
    <glyph glyph-name="uring.sc" horiz-adv-x="542" 
d="M499 207c0 -145 -86 -217 -230 -217s-226 72 -226 217v318h168v-322c0 -45 12 -74 59 -74s60 29 60 74v322h169v-318zM415 680c0 -60 -46 -110 -144 -110s-144 50 -144 110c0 59 46 110 144 110s144 -51 144 -110zM318 680c0 30 -18 57 -47 57s-47 -27 -47 -57
c0 -31 18 -57 47 -57s47 26 47 57z" />
    <glyph glyph-name="Uring.alt" horiz-adv-x="700" 
d="M473 0l-10 61c-63 -42 -123 -68 -199 -68c-126 0 -211 61 -211 221v476h205v-446c0 -53 25 -78 75 -78c30 0 67 14 108 42v482h205v-690h-173zM493 835c0 -60 -46 -110 -144 -110s-144 50 -144 110c0 59 46 110 144 110s144 -51 144 -110zM396 835c0 30 -18 57 -47 57
s-47 -27 -47 -57c0 -31 18 -57 47 -57s47 26 47 57z" />
    <glyph glyph-name="uring.sc_alt" horiz-adv-x="546" 
d="M500 0h-146l-7 45c-39 -36 -91 -55 -147 -55c-99 0 -156 60 -156 190v345h169v-327c0 -48 19 -67 56 -67c24 0 46 11 62 22v372h169v-525zM416 680c0 -60 -46 -110 -144 -110s-144 50 -144 110c0 59 46 110 144 110s144 -51 144 -110zM319 680c0 30 -18 57 -47 57
s-47 -27 -47 -57c0 -31 18 -57 47 -57s47 26 47 57z" />
    <glyph glyph-name="Wacute" unicode="&#x1e82;" horiz-adv-x="978" 
d="M968 690l-180 -690h-213l-90 396l-90 -396h-212l-173 664l225 33l82 -392l84 385h206l84 -385l76 385h201zM696 855l-152 -118h-112l49 151z" />
    <glyph glyph-name="wacute" unicode="&#x1e83;" horiz-adv-x="726" 
d="M724 495l-130 -495h-175l-56 245l-55 -245h-177l-126 482l186 20l51 -266l53 259h163l54 -258l49 258h163zM566 665l-152 -118h-112l49 151z" />
    <glyph glyph-name="wacute.sc" horiz-adv-x="793" 
d="M782 525l-117 -525h-202l-67 330l-69 -330h-198l-118 503l177 29l61 -348l67 341h183l66 -341l52 341h165zM601 695l-152 -118h-112l49 151z" />
    <glyph glyph-name="Wacute.alt" horiz-adv-x="1008" 
d="M1002 690l-214 -693h-210l-78 254l-85 -254h-205l-204 669l218 31l122 -437l78 231l-53 177l218 31l104 -439l108 430h201zM696 855l-152 -118h-112l49 151z" />
    <glyph glyph-name="wacute.sc_alt" horiz-adv-x="770" 
d="M765 525l-158 -527h-170l-55 180l-60 -180h-164l-153 506l175 28l90 -328l55 164l-41 136l173 28l74 -328l71 321h163zM577 695l-152 -118h-112l49 151z" />
    <glyph glyph-name="Wcircumflex" unicode="&#x174;" horiz-adv-x="978" 
d="M968 690l-180 -690h-213l-90 396l-90 -396h-212l-173 664l225 33l82 -392l84 385h206l84 -385l76 385h201zM685 737h-113l-69 53l-69 -53h-113l100 150h164z" />
    <glyph glyph-name="wcircumflex" unicode="&#x175;" horiz-adv-x="726" 
d="M724 495l-130 -495h-175l-56 245l-55 -245h-177l-126 482l186 20l51 -266l53 259h163l54 -258l49 258h163zM555 547h-113l-69 53l-69 -53h-113l100 150h164z" />
    <glyph glyph-name="wcircumflex.sc" horiz-adv-x="793" 
d="M782 525l-117 -525h-202l-67 330l-69 -330h-198l-118 503l177 29l61 -348l67 341h183l66 -341l52 341h165zM590 577h-113l-69 53l-69 -53h-113l100 150h164z" />
    <glyph glyph-name="Wcircumflex.alt" horiz-adv-x="1008" 
d="M1002 690l-214 -693h-210l-78 254l-85 -254h-205l-204 669l218 31l122 -437l78 231l-53 177l218 31l104 -439l108 430h201zM685 737h-113l-69 53l-69 -53h-113l100 150h164z" />
    <glyph glyph-name="wcircumflex.sc_alt" horiz-adv-x="770" 
d="M765 525l-158 -527h-170l-55 180l-60 -180h-164l-153 506l175 28l90 -328l55 164l-41 136l173 28l74 -328l71 321h163zM566 577h-113l-69 53l-69 -53h-113l100 150h164z" />
    <glyph glyph-name="Wdieresis" unicode="&#x1e84;" horiz-adv-x="978" 
d="M968 690l-180 -690h-213l-90 396l-90 -396h-212l-173 664l225 33l82 -392l84 385h206l84 -385l76 385h201zM679 737h-144v143h144v-143zM473 737h-144v143h144v-143z" />
    <glyph glyph-name="wdieresis" unicode="&#x1e85;" horiz-adv-x="726" 
d="M724 495l-130 -495h-175l-56 245l-55 -245h-177l-126 482l186 20l51 -266l53 259h163l54 -258l49 258h163zM549 547h-144v143h144v-143zM343 547h-144v143h144v-143z" />
    <glyph glyph-name="wdieresis.sc" horiz-adv-x="793" 
d="M782 525l-117 -525h-202l-67 330l-69 -330h-198l-118 503l177 29l61 -348l67 341h183l66 -341l52 341h165zM584 577h-144v143h144v-143zM378 577h-144v143h144v-143z" />
    <glyph glyph-name="Wdieresis.alt" horiz-adv-x="1008" 
d="M1002 690l-214 -693h-210l-78 254l-85 -254h-205l-204 669l218 31l122 -437l78 231l-53 177l218 31l104 -439l108 430h201zM473 737h-144v143h144v-143zM679 737h-144v143h144v-143z" />
    <glyph glyph-name="wdieresis.sc_alt" horiz-adv-x="770" 
d="M765 525l-158 -527h-170l-55 180l-60 -180h-164l-153 506l175 28l90 -328l55 164l-41 136l173 28l74 -328l71 321h163zM354 577h-144v143h144v-143zM560 577h-144v143h144v-143z" />
    <glyph glyph-name="Wgrave" unicode="&#x1e80;" horiz-adv-x="978" 
d="M968 690l-180 -690h-213l-90 396l-90 -396h-212l-173 664l225 33l82 -392l84 385h206l84 -385l76 385h201zM577 737h-116l-152 118l218 33z" />
    <glyph glyph-name="wgrave" unicode="&#x1e81;" horiz-adv-x="726" 
d="M724 495l-130 -495h-175l-56 245l-55 -245h-177l-126 482l186 20l51 -266l53 259h163l54 -258l49 258h163zM447 547h-116l-152 118l218 33z" />
    <glyph glyph-name="wgrave.sc" horiz-adv-x="793" 
d="M782 525l-117 -525h-202l-67 330l-69 -330h-198l-118 503l177 29l61 -348l67 341h183l66 -341l52 341h165zM482 577h-116l-152 118l218 33z" />
    <glyph glyph-name="Wgrave.alt" horiz-adv-x="1008" 
d="M1002 690l-214 -693h-210l-78 254l-85 -254h-205l-204 669l218 31l122 -437l78 231l-53 177l218 31l104 -439l108 430h201zM577 737h-116l-152 118l218 33z" />
    <glyph glyph-name="wgrave.sc_alt" horiz-adv-x="770" 
d="M765 525l-158 -527h-170l-55 180l-60 -180h-164l-153 506l175 28l90 -328l55 164l-41 136l173 28l74 -328l71 321h163zM458 577h-116l-152 118l218 33z" />
    <glyph glyph-name="Yacute" unicode="&#xdd;" horiz-adv-x="685" 
d="M692 690l-247 -444v-246h-205v242l-236 428l218 27l130 -265l127 258h213zM545 855l-152 -118h-112l49 151z" />
    <glyph glyph-name="yacute" unicode="&#xfd;" horiz-adv-x="521" 
d="M520 495l-166 -491c-46 -135 -109 -186 -228 -186c-38 0 -53 3 -69 7l-22 139c17 -5 31 -8 65 -8c33 0 65 11 82 43l-179 482l192 21l80 -278l73 271h172zM469 665l-152 -118h-112l49 151z" />
    <glyph glyph-name="yacute.sc" horiz-adv-x="528" 
d="M530 525l-181 -338v-187h-178v180l-173 329l180 22l90 -190l85 184h177zM460 695l-152 -118h-112l49 151z" />
    <glyph glyph-name="Ycircumflex" unicode="&#x176;" horiz-adv-x="685" 
d="M692 690l-247 -444v-246h-205v242l-236 428l218 27l130 -265l127 258h213zM534 737h-113l-69 53l-69 -53h-113l100 150h164z" />
    <glyph glyph-name="ycircumflex" unicode="&#x177;" horiz-adv-x="521" 
d="M520 495l-166 -491c-46 -135 -109 -186 -228 -186c-38 0 -53 3 -69 7l-22 139c17 -5 31 -8 65 -8c33 0 65 11 82 43l-179 482l192 21l80 -278l73 271h172zM458 547h-113l-69 53l-69 -53h-113l100 150h164z" />
    <glyph glyph-name="ycircumflex.sc" horiz-adv-x="528" 
d="M530 525l-181 -338v-187h-178v180l-173 329l180 22l90 -190l85 184h177zM449 577h-113l-69 53l-69 -53h-113l100 150h164z" />
    <glyph glyph-name="Ydieresis" unicode="&#x178;" horiz-adv-x="685" 
d="M692 690l-247 -444v-246h-205v242l-236 428l218 27l130 -265l127 258h213zM528 737h-144v143h144v-143zM322 737h-144v143h144v-143z" />
    <glyph glyph-name="ydieresis" unicode="&#xff;" horiz-adv-x="521" 
d="M520 495l-166 -491c-46 -135 -109 -186 -228 -186c-38 0 -53 3 -69 7l-22 139c17 -5 31 -8 65 -8c33 0 65 11 82 43l-179 482l192 21l80 -278l73 271h172zM246 547h-144v143h144v-143zM452 547h-144v143h144v-143z" />
    <glyph glyph-name="ydieresis.sc" horiz-adv-x="528" 
d="M530 525l-181 -338v-187h-178v180l-173 329l180 22l90 -190l85 184h177zM443 577h-144v143h144v-143zM237 577h-144v143h144v-143z" />
    <glyph glyph-name="Ygrave" unicode="&#x1ef2;" horiz-adv-x="685" 
d="M692 690l-247 -444v-246h-205v242l-236 428l218 27l130 -265l127 258h213zM426 737h-116l-152 118l218 33z" />
    <glyph glyph-name="ygrave" unicode="&#x1ef3;" horiz-adv-x="521" 
d="M520 495l-166 -491c-46 -135 -109 -186 -228 -186c-38 0 -53 3 -69 7l-22 139c17 -5 31 -8 65 -8c33 0 65 11 82 43l-179 482l192 21l80 -278l73 271h172zM350 547h-116l-152 118l218 33z" />
    <glyph glyph-name="ygrave.sc" horiz-adv-x="528" 
d="M530 525l-181 -338v-187h-178v180l-173 329l180 22l90 -190l85 184h177zM341 577h-116l-152 118l218 33z" />
    <glyph glyph-name="Zacute" unicode="&#x179;" horiz-adv-x="617" 
d="M587 0h-550v147l291 384h-255l-24 159h529v-147l-291 -384h275zM510 855l-152 -118h-112l49 151z" />
    <glyph glyph-name="zacute" unicode="&#x17a;" horiz-adv-x="474" 
d="M455 0h-431v133l195 225h-168l-21 137h413v-134l-194 -224h184zM434 665l-152 -118h-112l49 151z" />
    <glyph glyph-name="zacute.sc" horiz-adv-x="479" 
d="M456 0h-428v112l219 288h-190l-18 125h410v-112l-218 -289h207zM439 695l-152 -118h-112l49 151z" />
    <glyph glyph-name="Zcaron" unicode="&#x17d;" horiz-adv-x="617" 
d="M587 0h-550v147l291 384h-255l-24 159h529v-147l-291 -384h275zM136 887h113l69 -53l69 53h113l-100 -150h-164z" />
    <glyph glyph-name="zcaron" unicode="&#x17e;" horiz-adv-x="474" 
d="M455 0h-431v133l195 225h-168l-21 137h413v-134l-194 -224h184zM60 697h113l69 -53l69 53h113l-100 -150h-164z" />
    <glyph glyph-name="zcaron.sc" horiz-adv-x="479" 
d="M456 0h-428v112l219 288h-190l-18 125h410v-112l-218 -289h207zM65 727h113l69 -53l69 53h113l-100 -150h-164z" />
    <glyph glyph-name="Zdotaccent" unicode="&#x17b;" horiz-adv-x="617" 
d="M587 0h-550v147l291 384h-255l-24 159h529v-147l-291 -384h275zM393 737h-150v143h150v-143z" />
    <glyph glyph-name="zdotaccent" unicode="&#x17c;" horiz-adv-x="474" 
d="M455 0h-431v133l195 225h-168l-21 137h413v-134l-194 -224h184zM317 547h-150v143h150v-143z" />
    <glyph glyph-name="zdotaccent.sc" horiz-adv-x="479" 
d="M456 0h-428v112l219 288h-190l-18 125h410v-112l-218 -289h207zM322 577h-150v143h150v-143z" />
    <glyph glyph-name="AE" unicode="&#xc6;" horiz-adv-x="917" 
d="M1 0l307 690h569v-161h-255v-99h193l25 -159h-218v-110h264v-161h-454v116h-176l-48 -116h-207zM315 271h117v288z" />
    <glyph glyph-name="ae" unicode="&#xe6;" horiz-adv-x="777" 
d="M753 245c0 -19 -1 -38 -3 -48h-282c10 -62 54 -83 112 -83c47 0 102 17 156 45l17 -118c-54 -31 -121 -51 -197 -51c-85 0 -156 24 -203 72c-59 -49 -114 -72 -178 -72c-87 0 -153 44 -153 136c0 113 83 171 271 187v4c0 36 -19 54 -67 54c-53 0 -103 -13 -155 -35
l-20 130c55 22 124 37 197 37c77 0 122 -20 152 -64c35 41 79 66 141 66c145 0 212 -114 212 -260zM586 288c-2 72 -25 108 -61 108s-59 -36 -60 -108h121zM305 143c-8 29 -14 59 -14 93v1c-70 -16 -94 -45 -94 -80c0 -31 16 -45 41 -45c22 0 44 11 67 31z" />
    <glyph glyph-name="ae.sc" horiz-adv-x="740" 
d="M229 525h475v-125h-202v-74h148l18 -123h-166v-78h208v-125h-375v92h-121l-35 -92h-183zM257 214h78v207z" />
    <glyph glyph-name="AEacute" unicode="&#x1fc;" horiz-adv-x="917" 
d="M1 0l307 690h569v-161h-255v-99h193l25 -159h-218v-110h264v-161h-454v116h-176l-48 -116h-207zM701 855l-152 -118h-112l49 151zM315 271h117v288z" />
    <glyph glyph-name="aeacute" unicode="&#x1fd;" horiz-adv-x="777" 
d="M753 245c0 -19 -1 -38 -3 -48h-282c10 -62 54 -83 112 -83c47 0 102 17 156 45l17 -118c-54 -31 -121 -51 -197 -51c-85 0 -156 24 -203 72c-59 -49 -114 -72 -178 -72c-87 0 -153 44 -153 136c0 113 83 171 271 187v4c0 36 -19 54 -67 54c-53 0 -103 -13 -155 -35
l-20 130c55 22 124 37 197 37c77 0 122 -20 152 -64c35 41 79 66 141 66c145 0 212 -114 212 -260zM586 288c-2 72 -25 108 -61 108s-59 -36 -60 -108h121zM305 143c-8 29 -14 59 -14 93v1c-70 -16 -94 -45 -94 -80c0 -31 16 -45 41 -45c22 0 44 11 67 31zM593 665
l-152 -118h-112l49 151z" />
    <glyph glyph-name="aeacute.sc" horiz-adv-x="740" 
d="M229 525h475v-125h-202v-74h148l18 -123h-166v-78h208v-125h-375v92h-121l-35 -92h-183zM592 695l-152 -118h-112l49 151zM257 214h78v207z" />
    <glyph glyph-name="OE" unicode="&#x152;" horiz-adv-x="923" 
d="M892 0h-494c-241 0 -367 138 -367 344c0 205 127 346 359 346h493v-161h-255v-99h193l25 -159h-218v-110h264v-161zM430 154v382h-26c-103 0 -169 -55 -169 -191c0 -133 70 -191 171 -191h24z" />
    <glyph glyph-name="oe" unicode="&#x153;" horiz-adv-x="821" 
d="M797 245c0 -19 -1 -38 -3 -48h-282c10 -62 55 -83 113 -83c47 0 101 17 156 45l16 -118c-53 -31 -111 -51 -191 -51c-81 0 -146 25 -187 78c-39 -48 -96 -78 -166 -78c-128 0 -231 100 -231 257s103 258 238 258c67 0 124 -26 161 -78c39 49 95 78 162 78
c146 0 214 -114 214 -260zM630 288c-2 72 -24 108 -61 108c-36 0 -59 -36 -60 -108h121zM336 247c0 71 -27 114 -73 114c-45 0 -72 -42 -72 -113s27 -115 72 -115c46 0 73 43 73 114z" />
    <glyph glyph-name="oe.sc" horiz-adv-x="736" 
d="M706 0h-409c-182 0 -273 101 -273 262c0 156 100 263 268 263h408v-125h-202v-74h148l18 -123h-166v-78h208v-125zM328 394h-26c-63 0 -102 -41 -102 -131c0 -89 35 -132 103 -132h25v263z" />
    <glyph glyph-name="Eth" unicode="&#xd0;" horiz-adv-x="739" 
d="M710 346c0 -205 -127 -346 -359 -346h-262v267h-58l-27 169h85v254h254c240 0 367 -138 367 -344zM505 345c0 133 -70 191 -171 191h-47v-104h104v-161h-104v-117h49c103 0 169 55 169 191z" />
    <glyph glyph-name="eth" unicode="&#xf0;" horiz-adv-x="539" 
d="M234 501h-91l48 63c-21 8 -44 15 -68 21l21 136c49 -10 95 -23 135 -40l28 41l90 -20l-45 -58c104 -66 163 -170 163 -326c0 -116 -31 -204 -90 -264c-44 -45 -98 -65 -170 -65c-128 0 -232 85 -232 242c0 145 77 233 176 233c56 0 102 -22 144 -63
c-6 58 -34 100 -84 131zM264 125c50 0 78 53 80 167c-29 22 -62 36 -88 36c-37 0 -64 -34 -64 -106c0 -61 30 -97 72 -97z" />
    <glyph glyph-name="eth.sc" horiz-adv-x="580" 
d="M26 193l-26 140h82v192h201c182 0 273 -101 273 -262c0 -156 -100 -263 -268 -263h-206v193h-56zM383 262c0 89 -35 132 -103 132h-32v-66h67v-130h-67v-67h32c64 0 103 41 103 131z" />
    <glyph glyph-name="Thorn" unicode="&#xde;" horiz-adv-x="602" 
d="M579 359c0 -163 -116 -247 -290 -247h-31v-112h-204v690h204v-95h34c178 0 287 -77 287 -236zM384 356c0 60 -35 90 -103 90h-25v-185h23c68 0 105 30 105 95z" />
    <glyph glyph-name="thorn" unicode="&#xfe;" horiz-adv-x="546" 
d="M520 261c0 -192 -98 -265 -202 -265c-43 0 -69 7 -96 15v-169l-178 -28v880l178 28v-282c30 33 71 65 127 65c99 0 171 -76 171 -244zM342 248c0 73 -24 99 -58 99c-23 0 -42 -15 -62 -36v-168c15 -6 27 -10 49 -10c40 0 71 30 71 115z" />
    <glyph glyph-name="thorn.sc" horiz-adv-x="495" 
d="M474 271c0 -123 -84 -198 -236 -198h-23v-73h-169v525h169v-68h28c143 0 231 -63 231 -186zM318 265c0 42 -24 71 -81 71h-23v-144h25c57 0 79 30 79 73z" />
    <glyph glyph-name="schwa" unicode="&#x259;" horiz-adv-x="508" 
d="M24 454c54 31 121 51 197 51c157 0 265 -80 265 -254c0 -163 -101 -261 -239 -261c-156 0 -223 114 -223 260c0 19 1 38 3 48h282c-10 62 -54 83 -112 83c-48 0 -102 -17 -157 -45zM252 99c36 0 59 36 60 108h-121c2 -72 25 -108 61 -108z" />
    <glyph glyph-name="germandbls" unicode="&#xdf;" horiz-adv-x="614" 
d="M597 162c0 -111 -69 -168 -178 -168c-49 0 -93 11 -134 28l20 128c32 -17 61 -26 86 -26c22 0 36 10 36 33c0 30 -35 60 -115 90l-17 112c30 49 52 104 52 160c0 43 -15 67 -47 67c-33 0 -48 -25 -48 -72v-514h-178v352h-66v143h66v7c0 138 79 215 229 215
c148 0 215 -81 215 -181c0 -83 -33 -131 -79 -180c99 -41 158 -96 158 -194z" />
    <glyph glyph-name="zero" unicode="0" horiz-adv-x="641" 
d="M611 338c0 -227 -115 -351 -290 -351c-174 0 -291 124 -291 351s117 351 291 351c175 0 290 -124 290 -351zM414 338c0 130 -26 204 -93 204c-66 0 -94 -74 -94 -204s28 -204 94 -204c67 0 93 74 93 204z" />
    <glyph glyph-name="one" unicode="1" horiz-adv-x="429" 
d="M372 0h-202v492l-133 -53l-22 155l177 82h180v-676z" />
    <glyph glyph-name="two" unicode="2" horiz-adv-x="560" 
d="M531 0h-493v140l226 222c38 38 60 65 60 105c0 34 -27 55 -72 55c-56 0 -117 -25 -177 -64l-23 165c61 37 133 63 233 63c143 0 231 -72 231 -195c0 -97 -50 -158 -132 -234l-111 -102h233z" />
    <glyph glyph-name="three" unicode="3" horiz-adv-x="558" 
d="M525 191c0 -137 -116 -204 -261 -204c-94 0 -175 21 -234 53l24 148c55 -27 121 -46 187 -46c55 0 90 22 90 62c0 43 -28 67 -107 67h-68l-24 143h81c76 0 106 27 106 64s-28 56 -84 56c-59 0 -120 -20 -171 -52l-24 145c53 35 137 62 228 62c151 0 247 -67 247 -178
c0 -92 -48 -135 -117 -162c79 -26 127 -72 127 -158z" />
    <glyph glyph-name="three.alt" horiz-adv-x="558" 
d="M525 210c0 -134 -96 -223 -256 -223c-97 0 -176 22 -239 52l24 151c55 -27 126 -47 183 -47c66 0 98 24 98 70c0 48 -41 69 -128 69h-63l-18 113l153 128h-215l-25 153h470v-143l-162 -130c105 -23 178 -73 178 -193z" />
    <glyph glyph-name="four" unicode="4" horiz-adv-x="619" 
d="M602 127h-89v-127h-188v127h-303v121l273 428h218v-419h89v-130zM325 257v233l-144 -233h144z" />
    <glyph glyph-name="four.alt" horiz-adv-x="619" 
d="M602 127h-89v-127h-184v127h-307v132l274 425l171 -40l-257 -385h121v135l182 40v-174h89v-133z" />
    <glyph glyph-name="five" unicode="5" horiz-adv-x="567" 
d="M533 232c0 -160 -116 -245 -284 -245c-83 0 -155 17 -219 44l26 161c57 -24 123 -44 190 -44c60 0 103 28 103 75c0 45 -32 69 -86 69c-37 0 -65 -8 -89 -18l-119 26l23 376h417l25 -159h-294l-5 -86c22 5 51 9 90 9c128 0 222 -68 222 -208z" />
    <glyph glyph-name="six" unicode="6" horiz-adv-x="582" 
d="M455 536c-123 -26 -211 -73 -244 -150c49 33 99 50 161 50c94 0 184 -61 184 -204c0 -150 -113 -245 -259 -245c-159 0 -267 99 -267 286c0 246 174 378 401 418zM297 300c-29 0 -59 -11 -90 -30c1 -107 41 -144 89 -144c47 0 77 36 77 93s-27 81 -76 81z" />
    <glyph glyph-name="seven" unicode="7" horiz-adv-x="547" 
d="M514 522l-241 -529l-189 31l228 488h-261l-24 164h487v-154z" />
    <glyph glyph-name="eight" unicode="8" horiz-adv-x="598" 
d="M30 178c0 70 42 131 113 173c-58 37 -92 86 -92 150c0 122 110 188 253 188c150 0 243 -73 243 -176c0 -62 -34 -113 -95 -154c78 -40 114 -90 114 -167c0 -120 -101 -205 -267 -205c-177 0 -269 88 -269 191zM211 198c0 -49 40 -81 91 -81c43 0 79 28 79 72
s-27 67 -119 104c-31 -25 -51 -57 -51 -95zM227 505c0 -35 24 -60 99 -90c29 24 46 50 46 86c0 41 -32 67 -75 67c-41 0 -70 -27 -70 -63z" />
    <glyph glyph-name="nine" unicode="9" horiz-adv-x="582" 
d="M120 140c127 23 213 67 247 139c-49 -32 -97 -47 -151 -47c-105 0 -190 60 -190 207c0 157 113 250 259 250c159 0 267 -99 267 -286c0 -248 -174 -378 -410 -418zM287 366c27 0 55 9 88 29c-1 116 -40 155 -89 155c-45 0 -77 -36 -77 -97s27 -87 78 -87z" />
    <glyph glyph-name="zero.osf" horiz-adv-x="559" 
d="M534 262c0 -168 -108 -273 -254 -273c-148 0 -255 104 -255 273c0 168 107 274 255 274c146 0 254 -104 254 -274zM356 262c0 97 -36 128 -76 128c-43 0 -77 -31 -77 -128c0 -96 36 -127 77 -127c42 0 76 31 76 127z" />
    <glyph glyph-name="one.osf" horiz-adv-x="378" 
d="M323 0h-182v347l-110 -45l-22 150l154 76h160v-528z" />
    <glyph glyph-name="two.osf" horiz-adv-x="516" 
d="M488 0h-453v123l196 161c33 27 46 42 46 66c0 20 -15 35 -48 35c-43 0 -101 -23 -159 -52l-24 148c65 32 137 52 228 52c121 0 202 -54 202 -156c0 -69 -31 -108 -98 -162l-103 -81h194z" />
    <glyph glyph-name="three.osf" horiz-adv-x="507" 
d="M475 39c0 -151 -150 -225 -322 -225c-36 0 -78 2 -108 6l-22 156c35 -6 88 -10 129 -10c85 0 140 33 140 81c0 38 -26 58 -74 58c-22 0 -48 -2 -65 -4l-30 -4v143l50 7c88 12 108 45 108 81c0 34 -18 54 -63 54c-54 0 -110 -25 -168 -62l-22 147c58 37 134 67 232 67
c123 0 203 -61 203 -171c0 -91 -53 -139 -110 -169c67 -19 122 -62 122 -155z" />
    <glyph glyph-name="three.osf_alt" horiz-adv-x="507" 
d="M316 233h1c96 -17 161 -75 161 -166c0 -174 -150 -253 -322 -253c-36 0 -81 2 -111 6l-22 156c35 -6 89 -10 130 -10c83 0 139 34 139 86c0 33 -26 53 -74 53c-22 0 -48 -2 -65 -4l-30 -4l-16 118l156 156h-214l-21 154h443v-141z" />
    <glyph glyph-name="four.osf" horiz-adv-x="578" 
d="M567 0h-84v-156l-180 -30v186h-284v141l252 392h212v-406h84v-127zM305 127v216l-138 -216h138z" />
    <glyph glyph-name="five.osf" horiz-adv-x="523" 
d="M490 80c0 -168 -135 -266 -336 -266c-52 0 -79 3 -109 7l-22 155c35 -6 81 -10 116 -10c99 0 162 38 162 97c0 37 -25 55 -61 55c-25 0 -42 -4 -65 -13l-131 24l13 396h398l21 -154h-269l-3 -114c29 8 58 12 98 12c106 0 188 -63 188 -189z" />
    <glyph glyph-name="six.osf" horiz-adv-x="564" 
d="M449 552c-130 -25 -207 -69 -235 -136c50 25 94 34 138 34c110 0 187 -70 187 -207c0 -154 -104 -253 -255 -253c-156 0 -257 99 -257 298c0 242 176 393 397 417zM292 309c-33 0 -60 -10 -89 -27v-6c0 -95 31 -141 86 -141c45 0 75 35 75 92c0 59 -27 82 -72 82z" />
    <glyph glyph-name="seven.osf" horiz-adv-x="520" 
d="M488 372l-239 -558l-181 46l220 497h-247l-24 168h471v-153z" />
    <glyph glyph-name="eight.osf" horiz-adv-x="558" 
d="M25 178c0 69 40 129 109 171c-58 38 -88 87 -88 152c0 122 100 188 239 188c146 0 229 -73 229 -176c0 -61 -33 -112 -90 -152c77 -40 109 -91 109 -169c0 -119 -93 -205 -253 -205c-172 0 -255 88 -255 191zM204 194c0 -46 29 -77 77 -77c40 0 69 28 69 70
s-17 69 -97 103c-30 -25 -49 -57 -49 -96zM219 508c0 -36 14 -62 80 -91c27 23 42 49 42 84c0 41 -23 67 -63 67c-38 0 -59 -27 -59 -60z" />
    <glyph glyph-name="nine.osf" horiz-adv-x="564" 
d="M115 -37c129 25 207 69 234 136c-49 -25 -93 -34 -137 -34c-110 0 -187 71 -187 212c0 159 104 258 255 258c156 0 257 -99 257 -298c0 -254 -176 -403 -397 -427zM272 206c33 0 60 10 89 27v16c0 95 -31 141 -86 141c-45 0 -75 -40 -75 -97c0 -59 27 -87 72 -87z" />
    <glyph glyph-name="period" unicode="." horiz-adv-x="272" 
d="M231 0h-190v195h190v-195z" />
    <glyph glyph-name="comma" unicode="," horiz-adv-x="272" 
d="M261 195l-133 -350l-108 25l41 325h200z" />
    <glyph glyph-name="comma.alt" horiz-adv-x="272" 
d="M49 195h182c10 -32 15 -64 15 -95c0 -82 -38 -162 -135 -256l-99 41c40 74 55 135 55 194c0 39 -7 77 -18 116z" />
    <glyph glyph-name="colon" unicode=":" horiz-adv-x="281" 
d="M235 303h-189v192h189v-192zM235 0h-189v192h189v-192z" />
    <glyph glyph-name="semicolon" unicode=";" horiz-adv-x="281" 
d="M241 303h-189v192h189v-192zM255 192l-133 -347l-108 25l41 322h200z" />
    <glyph glyph-name="semicolon.alt" horiz-adv-x="281" 
d="M241 303h-189v192h189v-192zM49 192h182c10 -31 15 -62 15 -93c0 -81 -38 -161 -135 -255l-99 41c40 74 55 136 55 194c0 39 -7 76 -18 113z" />
    <glyph glyph-name="ellipsis" unicode="&#x2026;" horiz-adv-x="801" 
d="M759 0h-185v193h185v-193zM493 0h-185v193h185v-193zM227 0h-185v193h185v-193z" />
    <glyph glyph-name="periodcentered" unicode="&#xb7;" horiz-adv-x="272" 
d="M231 196h-189v195h189v-195z" />
    <glyph glyph-name="bullet" unicode="&#x2022;" horiz-adv-x="508" 
d="M441 344l-26 -171l-161 -25l-160 25l-27 171l27 171l160 25l161 -25z" />
    <glyph glyph-name="ampersand" unicode="&#x26;" horiz-adv-x="654" 
d="M668 15l-199 -21l-43 53c-52 -40 -111 -59 -179 -59c-131 0 -223 76 -223 198c0 93 50 157 126 198c-38 53 -51 90 -51 144c0 95 72 175 209 175c84 0 148 -20 193 -41l-26 -159c-56 28 -101 45 -142 45c-32 0 -48 -17 -48 -38c0 -17 8 -33 28 -58l120 -148
c9 32 17 70 22 113l147 -32c-11 -85 -32 -152 -65 -209zM277 128c22 0 44 7 66 23l-108 131c-23 -25 -33 -51 -33 -81c0 -43 27 -73 75 -73z" />
    <glyph glyph-name="ampersand.sc" horiz-adv-x="514" 
d="M533 23l-153 -29l-40 45c-43 -31 -94 -48 -148 -48c-104 0 -175 59 -175 150c0 81 52 128 112 154c-25 34 -38 69 -38 101c0 81 60 134 167 134c63 0 113 -15 148 -32l-22 -120c-32 17 -69 31 -98 31c-28 0 -40 -11 -40 -28c0 -19 11 -33 33 -59l59 -70l6 62l127 -27
c-7 -54 -22 -102 -43 -142zM224 102c21 0 39 4 54 15l-85 102c-19 -17 -28 -36 -28 -59c0 -36 28 -58 59 -58z" />
    <glyph glyph-name="exclam" unicode="!" horiz-adv-x="305" 
d="M264 690l-56 -415l-107 -23l-60 438h223zM247 0h-189v195h189v-195z" />
    <glyph glyph-name="exclamdown" unicode="&#xa1;" horiz-adv-x="305" 
d="M247 495h-189v195h189v-195zM264 0h-223l56 415l107 24z" />
    <glyph glyph-name="question" unicode="?" horiz-adv-x="501" 
d="M489 505c0 -147 -110 -223 -322 -262l-10 147l12 3c101 25 132 53 132 95c0 32 -23 53 -72 53c-57 0 -128 -28 -187 -67l-24 161c58 38 133 68 240 68c149 0 231 -72 231 -198zM297 0h-189v195h189v-195z" />
    <glyph glyph-name="questiondown" unicode="&#xbf;" horiz-adv-x="501" 
d="M12 185c0 147 110 223 322 262l10 -147l-12 -3c-101 -25 -132 -53 -132 -95c0 -32 23 -53 72 -53c57 0 128 28 187 67l24 -161c-58 -38 -133 -68 -240 -68c-149 0 -231 72 -231 198zM204 690h189v-195h-189v195z" />
    <glyph glyph-name="quotedblleft" unicode="&#x201c;" horiz-adv-x="512" 
d="M229 674l-18 -325h-196l108 350zM473 674l-18 -325h-196l108 350z" />
    <glyph glyph-name="quotedblright" unicode="&#x201d;" horiz-adv-x="512" 
d="M253 690l-108 -350l-106 25l18 325h196zM497 690l-108 -350l-106 25l18 325h196z" />
    <glyph glyph-name="quotedblleft.alt" horiz-adv-x="504" 
d="M219 349h-174c-11 36 -17 70 -17 105c0 79 31 156 107 246l93 -41c-21 -63 -30 -119 -30 -170c0 -48 8 -93 21 -140zM459 349h-174c-11 36 -17 70 -17 105c0 79 31 156 107 246l93 -41c-21 -63 -30 -119 -30 -170c0 -48 8 -93 21 -140z" />
    <glyph glyph-name="quotedblright.alt" horiz-adv-x="504" 
d="M45 690h174c11 -36 17 -70 17 -105c0 -79 -31 -156 -107 -246l-93 41c21 63 30 119 30 170c0 48 -8 93 -21 140zM285 690h174c11 -36 17 -70 17 -105c0 -79 -31 -156 -107 -246l-93 41c21 63 30 119 30 170c0 48 -8 93 -21 140z" />
    <glyph glyph-name="quoteleft" unicode="&#x2018;" horiz-adv-x="272" 
d="M233 674l-18 -325h-200l108 350z" />
    <glyph glyph-name="quoteright" unicode="&#x2019;" horiz-adv-x="272" 
d="M257 690l-108 -350l-110 25l18 325h200z" />
    <glyph glyph-name="quoteleft.alt" horiz-adv-x="264" 
d="M228 349h-174c-11 36 -17 70 -17 105c0 79 31 156 107 246l93 -41c-21 -63 -30 -119 -30 -170c0 -48 8 -93 21 -140z" />
    <glyph glyph-name="quoteright.alt" horiz-adv-x="264" 
d="M45 690h174c11 -36 17 -70 17 -105c0 -79 -31 -156 -107 -246l-93 41c21 63 30 119 30 170c0 48 -8 93 -21 140z" />
    <glyph glyph-name="quotedblbase" unicode="&#x201e;" horiz-adv-x="512" 
d="M248 195l-108 -350l-106 25l18 325h196zM492 195l-108 -350l-106 25l18 325h196z" />
    <glyph glyph-name="quotesinglbase" unicode="&#x201a;" horiz-adv-x="272" 
d="M252 195l-108 -350l-110 25l18 325h200z" />
    <glyph glyph-name="quotedblbase.alt" horiz-adv-x="512" 
d="M40 195h174c11 -36 17 -70 17 -105c0 -79 -31 -156 -107 -246l-93 41c21 63 30 119 30 170c0 48 -8 93 -21 140zM280 195h174c11 -36 17 -70 17 -105c0 -79 -31 -156 -107 -246l-93 41c21 63 30 119 30 170c0 48 -8 93 -21 140z" />
    <glyph glyph-name="quotesinglbase.alt" horiz-adv-x="272" 
d="M40 195h174c11 -36 17 -70 17 -105c0 -79 -31 -156 -107 -246l-93 41c21 63 30 119 30 170c0 48 -8 93 -21 140z" />
    <glyph glyph-name="guillemotleft" unicode="&#xab;" horiz-adv-x="590" 
d="M305 495l-93 -247l87 -235l-108 -23l-175 258l169 247h120zM558 495l-92 -247l86 -235l-108 -23l-174 258l169 247h119z" />
    <glyph glyph-name="guillemotright" unicode="&#xbb;" horiz-adv-x="590" 
d="M574 247l-169 -247h-120l93 247l-87 235l109 23zM321 247l-169 -247h-120l92 247l-86 235l108 23z" />
    <glyph glyph-name="guilsinglleft" unicode="&#x2039;" horiz-adv-x="337" 
d="M305 495l-93 -247l87 -235l-108 -23l-175 258l169 247h120z" />
    <glyph glyph-name="guilsinglright" unicode="&#x203a;" horiz-adv-x="337" 
d="M321 247l-169 -247h-120l92 247l-86 235l108 23z" />
    <glyph glyph-name="guillemotleft.sc" horiz-adv-x="590" 
d="M558 524l-92 -262l86 -249l-108 -23l-174 272l169 262h119zM305 524l-93 -262l87 -249l-108 -23l-175 272l169 262h120z" />
    <glyph glyph-name="guillemotright.sc" horiz-adv-x="590" 
d="M574 262l-169 -262h-120l93 262l-87 249l109 23zM321 262l-169 -262h-120l92 262l-86 249l108 23z" />
    <glyph glyph-name="guilsinglleft.sc" horiz-adv-x="337" 
d="M305 524l-93 -262l87 -249l-108 -23l-175 272l169 262h120z" />
    <glyph glyph-name="guilsinglright.sc" horiz-adv-x="337" 
d="M321 262l-169 -262h-120l93 262l-87 249l108 23z" />
    <glyph glyph-name="hyphen" unicode="-" horiz-adv-x="354" 
d="M320 209h-285v169h285v-169z" />
    <glyph glyph-name="endash" unicode="&#x2013;" horiz-adv-x="454" 
d="M418 211h-382v165h382v-165z" />
    <glyph glyph-name="emdash" unicode="&#x2014;" horiz-adv-x="908" 
d="M872 212h-836v163h836v-163z" />
    <glyph glyph-name="underscore" unicode="_" horiz-adv-x="454" 
d="M456 -104h-458v70h458v-70z" />
    <glyph glyph-name="slash" unicode="/" horiz-adv-x="527" 
d="M520 668l-412 -795l-144 31l412 795z" />
    <glyph glyph-name="backslash" unicode="\" horiz-adv-x="527" 
d="M563 -96l-144 -31l-413 795l145 31z" />
    <glyph glyph-name="slash.sc" horiz-adv-x="400" 
d="M414 558l-339 -654l-109 22l339 655z" />
    <glyph glyph-name="backslash.sc" horiz-adv-x="400" 
d="M434 -74l-109 -22l-339 654l109 23z" />
    <glyph glyph-name="slash.osf" horiz-adv-x="404" 
d="M457 599l-430 -697l-86 18l430 697z" />
    <glyph glyph-name="bar" unicode="|" horiz-adv-x="314" 
d="M230 -163l-146 -23v885l146 23v-885z" />
    <glyph glyph-name="parenleft" unicode="(" horiz-adv-x="409" 
d="M400 -64l-129 -30c-127 94 -234 213 -234 402c0 205 115 337 317 418l15 -110c-85 -81 -132 -171 -132 -304c0 -151 51 -249 163 -376z" />
    <glyph glyph-name="parenright" unicode=")" horiz-adv-x="409" 
d="M9 692l129 30c127 -94 234 -213 234 -402c0 -205 -115 -337 -317 -418l-15 110c85 81 132 171 132 304c0 151 -51 249 -163 376z" />
    <glyph glyph-name="parenleft.sc" horiz-adv-x="338" 
d="M345 -49l-140 -35c-93 69 -169 178 -169 318c0 171 106 300 264 351l17 -120c-70 -56 -108 -129 -108 -228c0 -106 48 -197 136 -286z" />
    <glyph glyph-name="parenright.sc" horiz-adv-x="338" 
d="M-7 533l140 35c93 -69 169 -178 169 -318c0 -171 -106 -300 -264 -351l-17 120c70 56 108 129 108 228c0 106 -48 197 -136 286z" />
    <glyph glyph-name="bracketleft" unicode="[" horiz-adv-x="422" 
d="M392 -104h-328v794h322v-104h-151v-586h140z" />
    <glyph glyph-name="bracketright" unicode="]" horiz-adv-x="422" 
d="M30 690h328v-794h-322v104h151v586h-140z" />
    <glyph glyph-name="bracketleft.sc" horiz-adv-x="342" 
d="M323 -104h-265v629h257v-104h-98v-421h89z" />
    <glyph glyph-name="bracketright.sc" horiz-adv-x="342" 
d="M284 -104h-257v104h98v421h-89l-17 104h265v-629z" />
    <glyph glyph-name="braceleft" unicode="{" horiz-adv-x="518" 
d="M486 -104h-171c-105 0 -162 52 -162 131c0 47 14 87 14 129c0 65 -40 86 -111 86h-21l-16 103h37c71 0 111 21 111 85c0 43 -14 83 -14 129c0 79 57 131 162 131h166v-104h-82c-47 0 -69 -18 -69 -54c0 -40 13 -66 13 -111c0 -71 -41 -110 -120 -127v-2
c79 -17 120 -56 120 -127c0 -44 -13 -71 -13 -111c0 -35 22 -54 69 -54h70z" />
    <glyph glyph-name="braceright" unicode="}" horiz-adv-x="518" 
d="M31 690h171c105 0 162 -52 162 -131c0 -47 -14 -87 -14 -129c0 -65 40 -86 111 -86h21l16 -103h-37c-71 0 -111 -21 -111 -85c0 -43 14 -83 14 -129c0 -79 -57 -131 -162 -131h-166v104h82c47 0 69 18 69 54c0 40 -13 66 -13 111c0 71 41 110 120 127v2
c-79 17 -120 56 -120 127c0 44 13 71 13 111c0 35 -22 54 -69 54h-70z" />
    <glyph glyph-name="braceleft.sc" horiz-adv-x="410" 
d="M391 -104h-151c-81 0 -124 40 -124 100c0 36 11 78 11 110c0 41 -31 56 -84 56h-17l-15 97h32c53 0 84 14 84 55c0 33 -11 76 -11 111c0 60 43 100 124 100h143v-104h-63c-35 0 -52 -14 -52 -41c0 -30 10 -49 10 -83c0 -46 -22 -73 -82 -86v-1c60 -14 82 -37 82 -84
c0 -33 -10 -54 -10 -84c0 -27 17 -42 52 -42h55z" />
    <glyph glyph-name="braceright.sc" horiz-adv-x="410" 
d="M19 525h151c81 0 124 -40 124 -100c0 -36 -11 -78 -11 -110c0 -41 31 -56 84 -56h17l15 -97h-32c-53 0 -84 -14 -84 -55c0 -33 11 -76 11 -111c0 -60 -43 -100 -124 -100h-143v104h63c35 0 52 14 52 41c0 30 -10 49 -10 83c0 46 22 73 82 86v1c-60 14 -82 37 -82 84
c0 33 10 54 10 84c0 27 -17 42 -52 42h-55z" />
    <glyph glyph-name="at" unicode="@" horiz-adv-x="834" 
d="M594 42c-69 0 -124 35 -144 84c-51 -57 -96 -84 -146 -84c-66 0 -109 46 -109 133c0 173 118 303 257 303c64 0 130 -16 181 -38l-43 -225c-3 -15 -6 -35 -6 -55c0 -24 12 -50 60 -50c66 0 113 77 113 205c0 203 -122 296 -298 296c-202 0 -382 -185 -382 -418
c0 -216 123 -298 300 -298c78 0 152 17 212 48l6 -36c-54 -28 -135 -47 -222 -47c-212 0 -340 108 -340 332c0 241 196 455 430 455c202 0 338 -118 338 -331c0 -163 -71 -274 -207 -274zM370 160c20 0 39 14 79 57l28 146c-6 2 -20 4 -31 4c-58 0 -107 -80 -107 -163
c0 -35 13 -44 31 -44z" />
    <glyph glyph-name="copyright" unicode="&#xa9;" horiz-adv-x="799" 
d="M745 346c0 -213 -142 -359 -346 -359c-205 0 -345 144 -345 357c0 214 142 359 346 359c205 0 345 -144 345 -357zM701 345c0 207 -132 322 -301 322c-172 0 -302 -115 -302 -322s132 -322 302 -322c171 0 301 115 301 322zM549 173c-40 -20 -77 -28 -125 -28
c-133 0 -212 82 -212 203s86 203 210 203c47 0 86 -9 120 -23l-17 -110c-35 21 -59 28 -93 28c-54 0 -82 -42 -82 -97c0 -60 34 -98 92 -98c26 0 54 5 91 24z" />
    <glyph glyph-name="published" unicode="&#x2117;" horiz-adv-x="799" 
d="M745 346c0 -213 -142 -359 -346 -359c-205 0 -345 144 -345 357c0 214 142 359 346 359c205 0 345 -144 345 -357zM701 345c0 207 -132 322 -301 322c-172 0 -302 -115 -302 -322s132 -322 302 -322c171 0 301 115 301 322zM585 407c0 -92 -66 -143 -168 -143h-29v-114
h-129v394h163c100 0 163 -49 163 -137zM463 406c0 33 -20 51 -55 51h-22v-106h21c35 0 56 19 56 55z" />
    <glyph glyph-name="registered.alt" horiz-adv-x="799" 
d="M745 346c0 -213 -142 -359 -346 -359c-205 0 -345 144 -345 357c0 214 142 359 346 359c205 0 345 -144 345 -357zM701 345c0 207 -132 322 -301 322c-172 0 -302 -115 -302 -322s132 -322 302 -322c171 0 301 115 301 322zM466 150l-78 123h-16v-118h-126v394h152
c110 0 170 -48 170 -133c0 -49 -22 -86 -63 -110l92 -134zM371 462v-108h20c40 0 58 20 58 55c0 34 -20 53 -59 53h-19z" />
    <glyph glyph-name="registered" unicode="&#xae;" horiz-adv-x="563" 
d="M508 470c0 -138 -95 -232 -227 -232c-134 0 -227 93 -227 232c0 138 95 233 227 233c134 0 227 -94 227 -233zM475 470c0 132 -86 206 -194 206s-194 -74 -194 -206c0 -131 86 -205 194 -205c109 0 194 74 194 205zM409 360l-88 -12l-50 84h-9v-82h-81v256h107
c68 0 105 -29 105 -83c0 -37 -20 -59 -44 -71zM314 517c0 21 -13 34 -37 34h-15v-69h15c24 0 37 12 37 35z" />
    <glyph glyph-name="servicemark" unicode="&#x2120;" horiz-adv-x="817" 
d="M790 345h-111l-13 204l-49 -206h-103l-49 206l-13 -204h-92l26 345h141l51 -211l52 211h135zM188 340c-44 0 -82 11 -122 29l16 87c40 -22 78 -35 110 -35c17 0 27 8 27 20c0 14 -9 21 -46 36c-69 28 -99 52 -99 111c0 69 55 107 120 107c46 0 76 -10 106 -25l-12 -87
c-39 21 -71 31 -95 31c-17 0 -24 -9 -24 -19s6 -19 38 -31c76 -30 109 -55 109 -114c0 -79 -57 -110 -128 -110z" />
    <glyph glyph-name="servicemark.alt" horiz-adv-x="829" 
d="M188 340c-44 0 -82 11 -122 29l16 87c40 -22 78 -35 110 -35c17 0 27 8 27 20c0 14 -9 21 -46 36c-69 28 -99 52 -99 111c0 69 55 107 120 107c46 0 76 -10 106 -25l-12 -87c-39 21 -71 31 -95 31c-17 0 -24 -9 -24 -19s6 -19 38 -31c76 -30 109 -55 109 -114
c0 -79 -57 -110 -128 -110zM786 345h-105v206l-66 -210h-85l-66 210v-206h-99v345h142l72 -210l66 210h141v-345z" />
    <glyph glyph-name="trademark" unicode="&#x2122;" horiz-adv-x="817" 
d="M790 345h-111l-13 204l-49 -206h-103l-49 206l-13 -204h-92l26 345h141l51 -211l52 211h135zM341 606h-107v-261h-108v261h-101v84h304z" />
    <glyph glyph-name="trademark.alt" horiz-adv-x="838" 
d="M795 345h-105v206l-66 -210h-85l-66 210v-206h-99v345h142l72 -210l66 210h141v-345zM341 606h-107v-261h-108v261h-101v84h304z" />
    <glyph glyph-name="asterisk" unicode="*" horiz-adv-x="454" 
d="M428 536l-107 -76l43 -125l-33 -21l-104 78l-104 -78l-33 21l43 125l-107 76l12 37h132l36 123h42l36 -123h132z" />
    <glyph glyph-name="dagger" unicode="&#x2020;" horiz-adv-x="518" 
d="M339 611l-63 -135h-34l-63 135v79h160v-79zM481 362h-47l-135 58v33l135 58h47v-149zM219 420l-135 -58h-48v149h48l135 -58v-33zM322 8l-48 -122h-31l-48 122v271l47 119h34l46 -119v-271z" />
    <glyph glyph-name="daggerdbl" unicode="&#x2021;" horiz-adv-x="536" 
d="M348 611l-63 -135h-34l-63 135v79h160v-79zM490 367h-47l-135 53v33l135 54h47v-140zM228 420l-135 -53h-48v140h48l135 -54v-33zM341 230l-56 -119h-34l-56 119v49l56 119h34l56 -119v-49zM490 2h-47l-135 53v33l135 54h47v-140zM228 55l-135 -53h-48v140h48l135 -54
v-33zM348 -182h-160v79l63 136h34l63 -136v-79z" />
    <glyph glyph-name="asciicircum" unicode="^" horiz-adv-x="454" 
d="M411 547h-113l-69 53l-69 -53h-113l100 150h164z" />
    <glyph glyph-name="asciitilde" unicode="~" horiz-adv-x="409" 
d="M377 362c-15 -115 -48 -150 -101 -150c-25 0 -43 7 -71 18c-38 15 -50 20 -65 20s-24 -9 -32 -42l-76 17c14 116 48 151 101 151c25 0 42 -7 70 -18c39 -16 50 -20 66 -20c14 0 23 9 32 42z" />
    <glyph glyph-name="dollar" unicode="$" horiz-adv-x="558" 
d="M382 738l-10 -65c47 -9 92 -25 131 -47l-24 -140c-42 24 -87 43 -134 53l-17 -114c132 -40 198 -88 198 -214c0 -153 -110 -215 -254 -216l-16 -117l-77 17l15 105c-60 9 -116 29 -171 58l22 138c68 -37 123 -56 177 -63l21 139c-124 37 -201 81 -201 206s85 203 245 203
h7l12 74zM368 188c0 31 -15 49 -66 66l-18 -124c53 1 84 21 84 58zM200 499c0 -26 15 -40 68 -57l15 105h-10c-52 0 -73 -18 -73 -48z" />
    <glyph glyph-name="dollar.osf" horiz-adv-x="466" 
d="M214 -94l-65 14l13 80c-61 8 -111 26 -148 44l19 108c47 -24 99 -42 153 -49l17 103c-129 30 -173 77 -173 158c0 107 67 164 207 164h9l9 57l64 -14l-8 -49c42 -6 78 -19 114 -36l-20 -109c-33 17 -74 33 -118 41l-14 -87c114 -26 171 -70 171 -165
c0 -106 -73 -170 -212 -170h-4zM312 146c0 23 -12 39 -61 50l-15 -96c56 0 76 17 76 46zM163 386c0 -23 14 -35 61 -45l13 83h-11c-44 0 -63 -12 -63 -38z" />
    <glyph glyph-name="sterling" unicode="&#xa3;" horiz-adv-x="557" 
d="M48 411h91l33 104c37 121 108 174 231 174c53 0 90 -7 119 -17l-23 -158c-24 8 -44 11 -68 11c-47 0 -70 -18 -85 -68l-14 -46h103l24 -149h-173l-34 -110h249l25 -152h-478v115l45 147h-45v149z" />
    <glyph glyph-name="sterling.osf" horiz-adv-x="495" 
d="M40 202v113h84l17 43c42 108 98 173 217 173c45 0 85 -7 113 -15l-24 -134c-20 6 -41 10 -61 10c-35 0 -53 -14 -67 -49l-12 -28h82l16 -113h-143l-29 -72h215l21 -130h-427v104l38 98h-40z" />
    <glyph glyph-name="Euro" unicode="&#x20ac;" horiz-adv-x="617" 
d="M25 377v80h83c37 140 141 229 303 229c69 0 127 -12 173 -33l-24 -154c-42 21 -77 31 -129 31c-55 0 -96 -26 -117 -73h179l13 -80h-208c-1 -13 -1 -26 -1 -39v-29h202v-80h-189c21 -60 68 -83 137 -83c42 0 82 10 124 28l24 -148c-55 -23 -106 -36 -182 -36
c-177 0 -279 83 -310 239h-73l-12 80h76v28c0 13 0 27 1 40h-70z" />
    <glyph glyph-name="Euro.osf" horiz-adv-x="528" 
d="M401 204h-153c15 -46 65 -70 113 -70c36 0 79 9 112 27l21 -137c-43 -21 -97 -33 -156 -33c-144 0 -234 79 -253 213h-58v113h58c20 133 121 217 252 217c61 0 112 -11 149 -30l-22 -147c-29 20 -65 33 -111 33c-50 0 -94 -26 -106 -73h136z" />
    <glyph glyph-name="yen" unicode="&#xa5;" horiz-adv-x="655" 
d="M72 220v79h126l-198 359l212 25l122 -258l117 251h204l-213 -377h122l12 -79h-156v-60h151v-79h-151v-81h-198v81h-144l-11 79h155v60h-150z" />
    <glyph glyph-name="yen.osf" horiz-adv-x="537" 
d="M487 124h-139v-124h-175v124h-129v105h111l-157 278l177 23l98 -198l94 193h172l-175 -296h106z" />
    <glyph glyph-name="cent" unicode="&#xa2;" horiz-adv-x="500" 
d="M468 126c-51 -26 -99 -39 -155 -41l-14 -95l-80 18l12 83c-122 23 -199 114 -199 246c0 161 120 253 273 253h3l14 95l81 -18l-14 -85c28 -6 52 -15 75 -25l-21 -138c-26 12 -54 22 -84 28l-34 -222c35 1 76 11 126 33zM201 334c0 -48 20 -84 62 -100l33 216
c-63 -7 -95 -48 -95 -116z" />
    <glyph glyph-name="cent.osf" horiz-adv-x="500" 
d="M468 49c-51 -26 -99 -39 -155 -41l-14 -95l-80 18l12 83c-122 23 -199 114 -199 246c0 161 120 253 273 253h3l14 95l81 -18l-14 -85c28 -6 52 -15 75 -25l-21 -138c-26 12 -54 22 -84 28l-34 -222c35 1 76 11 126 33zM201 257c0 -48 20 -84 62 -100l33 216
c-63 -7 -95 -48 -95 -116z" />
    <glyph glyph-name="florin" unicode="&#x192;" horiz-adv-x="472" 
d="M411 459v-147h-116l-50 -312h-192l48 312h-76l21 147h78l7 44c21 138 94 181 220 181c36 0 66 -2 95 -6v-143c-16 3 -30 5 -50 5c-45 0 -67 -20 -74 -66l-3 -15h92z" />
    <glyph glyph-name="florin.osf" horiz-adv-x="472" 
d="M404 308v-147h-120l-50 -313l-193 -34l53 347h-76l21 147h78l7 44c20 139 94 181 220 181c36 0 66 -2 95 -6v-143c-16 3 -32 5 -52 5c-45 0 -69 -20 -76 -66l-3 -15h96z" />
    <glyph glyph-name="numbersign" unicode="#" horiz-adv-x="678" 
d="M558 662l-18 -114h102v-148h-126l-19 -124h109l22 -148h-155l-20 -130h-106l20 130h-123l-22 -138l-102 24l18 114h-102v148h125l20 124h-107l-24 148h154l21 130h106l-21 -130h124l22 138zM286 404l-21 -132h127l20 132h-126z" />
    <glyph glyph-name="numbersign.osf" horiz-adv-x="543" 
d="M281 -2l13 83h-103l-14 -88l-79 17l11 71h-76v139h98l13 83h-80l-21 139h123l14 83h82l-13 -83h102l14 89l80 -18l-12 -71h77v-139h-99l-13 -83h79l23 -139h-124l-13 -83h-82zM225 307l-15 -91h107l14 91h-106z" />
    <glyph glyph-name="paragraph" unicode="&#xb6;" horiz-adv-x="556" 
d="M493 0h-95v606h-64v-172l-37 -230c-160 6 -262 83 -262 237c0 148 101 235 265 235h193v-676z" />
    <glyph glyph-name="paragraph.osf" horiz-adv-x="556" 
d="M493 -158l-95 -15v630h-64v-173l-37 -230c-160 7 -262 83 -262 237c0 148 101 236 265 236h193v-685z" />
    <glyph glyph-name="section" unicode="&#xa7;" horiz-adv-x="588" 
d="M562 368c0 -30 -13 -68 -34 -94l-127 21c5 8 8 16 8 28c0 20 -17 30 -66 43l-88 23c-98 26 -151 63 -151 145c0 102 81 150 190 150c66 0 112 -8 162 -24l-18 -114c-49 17 -94 27 -129 27c-29 0 -40 -9 -40 -22c0 -14 10 -20 51 -31l85 -22c112 -29 157 -56 157 -130z
M26 308c0 30 13 68 34 94l127 -21c-5 -8 -8 -16 -8 -28c0 -20 17 -30 66 -43l88 -23c98 -26 151 -63 151 -145c0 -102 -81 -150 -190 -150c-66 0 -112 8 -162 24l18 114c49 -17 94 -27 129 -27c29 0 40 9 40 22c0 14 -10 20 -51 31l-85 22c-112 29 -157 56 -157 130z" />
    <glyph glyph-name="ordfeminine" unicode="&#xaa;" horiz-adv-x="409" 
d="M354 353h-107l-7 41c-34 -31 -66 -47 -107 -47c-52 0 -88 33 -88 86c0 74 57 111 190 119v5c0 29 -18 40 -54 40c-38 0 -71 -9 -105 -23l-12 81c36 15 86 26 146 26c94 0 144 -34 144 -115v-213zM364 221h-315v79h302zM235 445v59c-53 -8 -75 -29 -75 -51
c0 -18 9 -28 25 -28s34 7 50 20z" />
    <glyph glyph-name="ordmasculine" unicode="&#xba;" horiz-adv-x="409" 
d="M374 514c0 -103 -72 -168 -170 -168s-169 65 -169 168c0 101 71 167 169 167s170 -66 170 -167zM368 221h-324v79h311zM257 514c0 46 -20 75 -53 75c-32 0 -52 -30 -52 -75c0 -47 20 -76 52 -76s53 29 53 76z" />
    <glyph glyph-name="degree" unicode="&#xb0;" horiz-adv-x="454" 
d="M408 501c0 -105 -76 -180 -181 -180s-181 75 -181 180c0 104 76 181 181 181s181 -77 181 -181zM309 501c0 51 -32 90 -82 90s-82 -39 -82 -90c0 -52 32 -89 82 -89s82 37 82 89z" />
    <glyph glyph-name="percent" unicode="%" horiz-adv-x="891" 
d="M374 486c0 -131 -75 -200 -169 -200c-95 0 -170 68 -170 199c0 130 76 199 170 199c95 0 169 -68 169 -198zM278 -7l-99 22l219 332l215 336l99 -22l-220 -334zM856 191c0 -130 -76 -199 -170 -199c-95 0 -169 68 -169 198c0 131 75 200 169 200c95 0 170 -68 170 -199z
M258 486c0 70 -19 105 -53 105c-35 0 -54 -35 -54 -106c0 -69 20 -104 54 -104c35 0 53 35 53 105zM740 191c0 69 -20 104 -54 104c-35 0 -53 -35 -53 -105s19 -105 53 -105c35 0 54 35 54 106z" />
    <glyph glyph-name="percent.osf" horiz-adv-x="700" 
d="M293 374c0 -106 -61 -161 -135 -161s-135 55 -135 161s61 161 135 161s135 -55 135 -161zM557 516l-170 -263l-161 -258l-83 18l180 279l151 243zM677 155c0 -106 -62 -161 -135 -161c-75 0 -135 54 -135 160c0 107 60 162 135 162c74 0 135 -54 135 -161zM196 374
c0 55 -13 82 -38 82c-26 0 -38 -27 -38 -82c0 -54 13 -82 38 -82c26 0 38 28 38 82zM579 155c0 54 -12 82 -37 82c-27 0 -38 -28 -38 -83c0 -53 12 -80 38 -80s37 27 37 81z" />
    <glyph glyph-name="quotedbl" unicode="&#x22;" horiz-adv-x="568" 
d="M528 676l-52 -340l-116 26l-48 314h216zM255 676l-52 -340l-116 26l-47 314h215z" />
    <glyph glyph-name="quotesingle" unicode="'" horiz-adv-x="300" 
d="M260 676l-52 -340l-121 26l-47 314h220z" />
    <glyph glyph-name="plus" unicode="+" horiz-adv-x="572" 
d="M518 269h-161v-167h-142v167h-161v138h161v167h142v-167h161v-138z" />
    <glyph glyph-name="plus.osf" horiz-adv-x="563" 
d="M508 193h-160v-167h-142v167h-161v138h161v167h142v-167h160v-138z" />
    <glyph glyph-name="minus" unicode="&#x2212;" horiz-adv-x="572" 
d="M518 265h-464v146h464v-146z" />
    <glyph glyph-name="minus.osf" horiz-adv-x="572" 
d="M518 189h-464v146h464v-146z" />
    <glyph glyph-name="divide" unicode="&#xf7;" horiz-adv-x="572" 
d="M361 474h-150v140h150v-140zM518 271h-464v134h464v-134zM361 62h-150v140h150v-140z" />
    <glyph glyph-name="divide.osf" horiz-adv-x="572" 
d="M361 398h-150v140h150v-140zM518 195h-464v134h464v-134zM361 -14h-150v140h150v-140z" />
    <glyph glyph-name="equal" unicode="=" horiz-adv-x="590" 
d="M518 394h-445v137h445v-137zM518 146h-445v136h445v-136z" />
    <glyph glyph-name="equal.osf" horiz-adv-x="590" 
d="M518 319h-445v136h445v-136zM518 70h-445v136h445v-136z" />
    <glyph glyph-name="multiply" unicode="&#xd7;" horiz-adv-x="572" 
d="M415 109l-130 132l-129 -131l-98 98l131 129l-132 130l100 100l130 -132l129 131l98 -98l-131 -129l132 -130z" />
    <glyph glyph-name="multiply.osf" horiz-adv-x="572" 
d="M415 33l-130 132l-129 -131l-98 98l131 129l-132 130l100 100l130 -132l129 131l98 -98l-131 -129l132 -130z" />
    <glyph glyph-name="less" unicode="&#x3c;" horiz-adv-x="572" 
d="M504 55l-447 222v122l447 222v-149l-273 -133l273 -134v-150z" />
    <glyph glyph-name="less.osf" horiz-adv-x="572" 
d="M504 -22l-447 223v121l447 223v-150l-273 -133l273 -133v-151z" />
    <glyph glyph-name="greater" unicode="&#x3e;" horiz-adv-x="572" 
d="M515 277l-447 -222v150l273 132l-273 134v150l447 -222v-122z" />
    <glyph glyph-name="greater.osf" horiz-adv-x="572" 
d="M515 202l-447 -222v150l273 132l-273 134v151l447 -223v-122z" />
    <glyph glyph-name="plusminus" unicode="&#xb1;" horiz-adv-x="540" 
d="M466 352h-127v-133h-139v133h-127v133h127v133h139v-133h127v-133zM492 41h-444v135h444v-135z" />
    <glyph glyph-name="onehalf" unicode="&#xbd;" horiz-adv-x="810" 
d="M330 303h-282v97h83v174l-76 -30l-14 97l123 49h94v-290h56zM782 0h-296v92l127 117c18 16 29 28 29 47c0 17 -13 26 -34 26c-32 0 -67 -17 -101 -37l-15 104c38 22 83 39 144 39c87 0 136 -46 136 -110c0 -58 -35 -91 -80 -131l-51 -45h123zM239 -17l-70 18l218 342
l204 341l70 -18l-219 -343z" />
    <glyph glyph-name="onequarter" unicode="&#xbc;" horiz-adv-x="810" 
d="M330 303h-282v97h83v174l-76 -30l-14 97l123 49h94v-290h56zM780 68h-45v-70h-122v70h-156v77l131 238h147v-232h45v-83zM626 147v48l8 101h-7l-31 -74l-19 -34l-28 -41l3 -5l39 5h35zM254 -17l-70 18l218 342l204 341l70 -18l-219 -343z" />
    <glyph glyph-name="threequarters" unicode="&#xbe;" horiz-adv-x="810" 
d="M331 409c0 -72 -69 -113 -162 -113c-53 0 -104 11 -141 29l18 95c32 -16 78 -26 112 -26c31 0 49 12 49 30c0 21 -18 30 -70 30h-34l-15 79h49c51 0 62 16 62 32c0 15 -12 26 -42 26c-31 0 -75 -12 -103 -28l-19 94c37 18 82 34 142 34c91 0 148 -39 148 -103
c0 -45 -32 -74 -75 -87c52 -13 81 -45 81 -92zM780 68h-45v-70h-122v70h-156v77l131 238h147v-232h45v-83zM626 147v48l8 101h-7l-31 -74l-19 -34l-28 -41l3 -5l39 5h35zM244 -17l-70 18l218 342l204 341l70 -18l-219 -343z" />
    <glyph glyph-name="one.sup" unicode="&#xb9;" horiz-adv-x="360" 
d="M330 403h-282v97h83v174l-76 -30l-14 97l123 49h94v-290h56z" />
    <glyph glyph-name="two.sup" unicode="&#xb2;" horiz-adv-x="360" 
d="M332 403h-296v92l127 117c18 16 29 28 29 47c0 17 -13 26 -34 26c-32 0 -67 -17 -101 -37l-15 104c38 22 83 39 144 39c87 0 136 -46 136 -110c0 -58 -35 -91 -80 -131l-51 -45h123z" />
    <glyph glyph-name="three.sup" unicode="&#xb3;" horiz-adv-x="360" 
d="M331 509c0 -72 -69 -113 -162 -113c-53 0 -104 11 -141 29l18 95c32 -16 78 -26 112 -26c31 0 49 12 49 30c0 21 -18 30 -70 30h-34l-15 79h49c51 0 62 16 62 32c0 15 -12 26 -42 26c-31 0 -75 -12 -103 -28l-19 94c37 18 82 34 142 34c91 0 148 -39 148 -103
c0 -45 -32 -74 -75 -87c52 -13 81 -45 81 -92z" />
    <glyph glyph-name="space" unicode=" " horiz-adv-x="204" 
 />
    <glyph glyph-name="uni00A0" unicode="&#xa0;" horiz-adv-x="102" 
 />
    <glyph glyph-name="emspace" unicode="&#x2003;" horiz-adv-x="1000" 
 />
    <glyph glyph-name="enspace" unicode="&#x2002;" horiz-adv-x="500" 
 />
    <glyph glyph-name="threeperemspace" unicode="&#x2004;" horiz-adv-x="333" 
 />
    <glyph glyph-name="fourperemspace" unicode="&#x2005;" horiz-adv-x="250" 
 />
    <glyph glyph-name="thinspace" unicode="&#x2009;" horiz-adv-x="133" 
 />
    <glyph glyph-name="hairspace" unicode="&#x200a;" horiz-adv-x="75" 
 />
    <glyph glyph-name="NUL" horiz-adv-x="0" 
 />
    <glyph glyph-name="hfjslug" horiz-adv-x="694" 
d="M644 -200h-208l-8 14h-163l-8 -14h-207v303c18 0 32 14 32 32c0 17 -14 32 -32 32v554h100l30 79h334l29 -79h101v-921zM400 563v-172h15v78h38v14h-38v66h43v14h-58zM184 563v-172h15v79h47v-79h15v172h-15v-79h-47v79h-15zM460 394c5 -2 14 -4 21 -4c20 0 31 11 31 36
v137h-16v-137c0 -16 -5 -22 -16 -22c-6 0 -15 3 -20 5v-15zM371 465l-13 3c-2 -9 -5 -21 -8 -30h-1l-16 31c13 12 23 26 23 42c0 17 -9 31 -27 31c-17 0 -28 -14 -28 -31c0 -15 6 -24 14 -39c-15 -12 -23 -28 -23 -47c0 -22 12 -37 29 -37c13 0 23 9 29 24h1l12 -24l12 6
l-17 32c5 12 9 25 13 39zM523 323v-46h8v12l8 8l15 -20h10l-20 26l18 20h-10l-20 -24h-1v24h-8zM488 292l10 -15h9l-12 17c5 2 10 6 10 14c0 9 -7 15 -17 15h-20v-46h8v15h12zM426 276c14 0 24 11 24 24c0 12 -10 24 -24 24s-24 -12 -24 -24c0 -13 10 -24 24 -24zM370 301
l-13 22h-9l18 -29v-17h8v17l18 29h-9zM193 323v-46h34v7h-26v13h23v7h-23v12h26v7h-34zM132 323v-46h8v32l25 -32h7v46h-8v-32l-25 32h-7zM241 323l14 -47h8l11 34h1l11 -34h8l14 47h-8l-10 -35h-1l-11 35h-7l-11 -35h-1l-10 35h-8zM327 479c-7 13 -12 22 -12 32
c0 11 6 19 14 19s13 -8 13 -19c0 -12 -5 -21 -15 -32zM342 423c-5 -13 -12 -21 -20 -21c-9 0 -16 10 -16 25c0 13 7 26 16 35zM487 299h-11v17h11c6 0 10 -3 10 -8s-4 -9 -10 -9zM426 283c-10 0 -16 8 -16 17c0 8 6 17 16 17s16 -9 16 -17c0 -9 -6 -17 -16 -17z" />
    <glyph glyph-name="A.flat" horiz-adv-x="716" 
d="M6 0l238 693h229l237 -693h-218l-37 116h-217l-34 -116h-198zM347 489l-65 -218h127z" />
    <glyph glyph-name="E.flat" horiz-adv-x="549" 
d="M518 0h-464v690h455v-161h-255v-99h206v-159h-206v-110h264v-161z" />
    <glyph glyph-name="F.flat" horiz-adv-x="514" 
d="M490 522h-233v-111h182v-167h-182v-244h-203v690h436v-168z" />
    <glyph glyph-name="G.flat" horiz-adv-x="675" 
d="M633 63c-78 -51 -164 -76 -260 -76c-219 0 -343 144 -343 357c0 214 135 359 352 359c81 0 155 -19 211 -48l-26 -172c-53 31 -112 56 -179 56c-106 0 -154 -81 -154 -194c0 -115 50 -200 153 -200c28 0 50 6 72 17v98h-113v144h287v-341z" />
    <glyph glyph-name="K.flat" horiz-adv-x="677" 
d="M689 0h-243l-187 309v-309h-205v690h205v-289l182 289h230l-224 -321z" />
    <glyph glyph-name="L.flat" horiz-adv-x="503" 
d="M476 0h-422v690h205v-516h217v-174z" />
    <glyph glyph-name="Q.alt_flat" horiz-adv-x="745" 
d="M716 173v-186l-135 82c-57 -49 -130 -77 -217 -77c-201 0 -334 139 -334 352c0 214 133 359 336 359c212 0 334 -149 334 -349c0 -57 -10 -110 -29 -157zM499 350c0 119 -46 198 -131 198c-87 0 -134 -79 -134 -205c0 -125 52 -204 138 -204c24 0 44 6 61 18l-67 40v178
l130 -78c2 17 3 34 3 53z" />
    <glyph glyph-name="R.flat" horiz-adv-x="640" 
d="M647 0h-236l-123 214h-31v-214h-203v690h264c178 0 280 -79 280 -227c0 -93 -42 -159 -120 -199zM399 451c0 58 -37 90 -103 90h-41v-185h42c66 0 102 34 102 95z" />
    <glyph glyph-name="T.flat" horiz-adv-x="617" 
d="M596 520h-185v-520h-205v520h-185v170h575v-170z" />
    <glyph glyph-name="V.flat" horiz-adv-x="707" 
d="M701 690l-241 -693h-214l-240 693h235l126 -439l124 439h210z" />
    <glyph glyph-name="W.flat" horiz-adv-x="985" 
d="M975 690l-180 -690h-213l-90 396l-90 -396h-212l-180 690h234l80 -385l84 385h206l84 -385l76 385h201z" />
    <glyph glyph-name="W.alt_flat" horiz-adv-x="1015" 
d="M1009 690l-214 -693h-210l-78 254l-85 -254h-205l-211 693h227l120 -430l78 231l-60 199h227l102 -430l108 430h201z" />
    <glyph glyph-name="X.flat" horiz-adv-x="672" 
d="M666 0h-240l-103 201l-111 -201h-206l207 341l-203 349h239l98 -193l104 193h207l-201 -332z" />
    <glyph glyph-name="Y.flat" horiz-adv-x="685" 
d="M692 690l-247 -444v-246h-205v242l-247 448h233l126 -258l127 258h213z" />
    <glyph glyph-name="Z.flat" horiz-adv-x="617" 
d="M578 0h-541v147l291 384h-270v159h520v-147l-291 -384h291v-159z" />
    <glyph glyph-name="f.flat" horiz-adv-x="354" 
d="M368 579c-17 2 -35 5 -58 5c-41 0 -58 -21 -58 -60v-29h98v-143h-98v-352h-178v352h-66v143h66v46c0 129 77 176 203 176c26 0 50 -3 70 -7z" />
    <glyph glyph-name="k.flat" horiz-adv-x="520" 
d="M527 0h-199l-106 220v-220h-178v694l178 28v-427l105 200h191l-136 -231z" />
    <glyph glyph-name="t.flat" horiz-adv-x="374" 
d="M363 5c-28 -8 -52 -12 -95 -12c-114 0 -195 42 -195 179v180h-62v143h62v141l177 28v-169h105v-143h-105v-152c0 -40 21 -56 58 -56c11 0 23 2 34 6z" />
    <glyph glyph-name="v.flat" horiz-adv-x="524" 
d="M523 495l-171 -497h-179l-172 497h199l75 -273l76 273h172z" />
    <glyph glyph-name="w.flat" horiz-adv-x="726" 
d="M724 495l-130 -495h-175l-56 245l-55 -245h-177l-130 495h191l50 -259l53 259h163l54 -258l49 258h163z" />
    <glyph glyph-name="x.flat" horiz-adv-x="506" 
d="M497 0h-197l-60 124l-66 -124h-165l144 237l-142 258h197l57 -122l65 122h165l-143 -235z" />
    <glyph glyph-name="y.flat" horiz-adv-x="525" 
d="M524 495l-166 -491c-47 -135 -109 -186 -228 -186c-38 0 -53 3 -69 7l-22 139c17 -5 31 -8 65 -8c33 0 65 11 82 43l-184 496h199l78 -271l73 271h172z" />
    <glyph glyph-name="z.flat" horiz-adv-x="474" 
d="M443 0h-419v133l195 225h-179v137h403v-134l-194 -224h194v-137z" />
    <glyph glyph-name="a.sc_flat" horiz-adv-x="564" 
d="M166 0h-163l168 527h223l167 -527h-176l-25 92h-169zM275 408l-54 -193h108z" />
    <glyph glyph-name="e.sc_flat" 
d="M421 0h-375v525h369v-125h-202v-74h157v-123h-157v-78h208v-125z" />
    <glyph glyph-name="f.sc_flat" horiz-adv-x="432" 
d="M409 397h-196v-84h153v-129h-153v-184h-167v525h363v-128z" />
    <glyph glyph-name="g.sc_flat" horiz-adv-x="526" 
d="M486 44c-56 -31 -118 -54 -206 -54c-159 0 -256 110 -256 272c0 171 113 273 271 273c61 0 115 -14 158 -34l-23 -141c-44 21 -83 34 -123 34c-73 0 -116 -48 -116 -137c0 -92 38 -137 108 -137c18 0 29 2 41 6v73h-75v109h221v-264z" />
    <glyph glyph-name="k.sc_flat" horiz-adv-x="532" 
d="M535 0h-195l-124 242v-242h-170v525h170v-229l121 229h185l-146 -240z" />
    <glyph glyph-name="l.sc_flat" horiz-adv-x="419" 
d="M394 0h-348v525h177v-380h171v-145z" />
    <glyph glyph-name="q.sc_alt_flat" horiz-adv-x="571" 
d="M540 120v-134l-96 69c-44 -42 -102 -65 -170 -65c-145 0 -250 110 -250 272s105 273 251 273s251 -110 251 -272c0 -44 -8 -85 -22 -120zM277 400c-55 0 -83 -60 -83 -140s28 -140 83 -140c18 0 34 6 46 18l-48 33v128l83 -58c1 6 1 12 1 19c0 80 -27 140 -82 140z" />
    <glyph glyph-name="r.sc_flat" horiz-adv-x="522" 
d="M522 0h-193l-80 144h-35v-144h-168v525h221c151 0 221 -72 221 -179c0 -67 -35 -119 -85 -149zM324 338c0 43 -30 64 -75 64h-37v-134h34c52 0 78 23 78 70z" />
    <glyph glyph-name="t.sc_flat" horiz-adv-x="485" 
d="M463 380h-132v-380h-178v380h-131v145h441v-145z" />
    <glyph glyph-name="v.sc_flat" horiz-adv-x="554" 
d="M549 525l-167 -527h-211l-166 527h188l93 -354l90 354h173z" />
    <glyph glyph-name="w.sc_flat" horiz-adv-x="798" 
d="M787 525l-117 -525h-202l-67 330l-69 -330h-198l-123 525h183l60 -341l67 341h183l66 -341l52 341h165z" />
    <glyph glyph-name="w.sc_alt_flat" horiz-adv-x="776" 
d="M771 525l-158 -527h-170l-55 181l-60 -181h-164l-159 527h182l88 -321l56 165l-47 156h181l72 -321l71 321h163z" />
    <glyph glyph-name="x.sc_flat" horiz-adv-x="528" 
d="M182 0h-180l151 262l-149 263h191l72 -142l72 142h180l-148 -254l150 -271h-191l-73 151z" />
    <glyph glyph-name="y.sc_flat" horiz-adv-x="536" 
d="M538 525l-181 -338v-187h-178v180l-181 345h191l87 -184l85 184h177z" />
    <glyph glyph-name="z.sc_flat" horiz-adv-x="479" 
d="M449 0h-421v112l219 288h-202v125h404v-112l-218 -289h218v-124z" />
    <glyph glyph-name="two.flat" horiz-adv-x="560" 
d="M517 0h-479v140l226 222c38 38 60 65 60 105c0 34 -27 55 -72 55c-56 0 -117 -25 -177 -64l-23 165c61 37 133 63 233 63c143 0 231 -72 231 -195c0 -97 -50 -158 -132 -234l-111 -102h244v-155z" />
    <glyph glyph-name="three.flat" horiz-adv-x="558" 
d="M525 191c0 -137 -116 -204 -261 -204c-94 0 -175 21 -234 53l24 148c55 -27 121 -46 187 -46c55 0 90 22 90 62c0 43 -28 67 -107 67h-80l-1 143h70c76 0 106 27 106 64s-28 56 -84 56c-59 0 -120 -20 -171 -52l-24 145c53 35 137 62 228 62c151 0 247 -67 247 -178
c0 -92 -48 -135 -117 -162c79 -26 127 -72 127 -158z" />
    <glyph glyph-name="three.alt_flat" horiz-adv-x="558" 
d="M525 210c0 -134 -96 -223 -256 -223c-97 0 -176 22 -239 52l24 151c55 -27 126 -47 183 -47c66 0 98 24 98 70c0 48 -41 69 -128 69h-63l-18 113l153 128h-229v153h459v-143l-162 -130c105 -23 178 -73 178 -193z" />
    <glyph glyph-name="four.alt_flat" horiz-adv-x="619" 
d="M602 127h-89v-127h-184v127h-307v132l269 417h197l-278 -417h121v135l182 40v-174h89v-133z" />
    <glyph glyph-name="five.flat" horiz-adv-x="567" 
d="M533 232c0 -160 -116 -245 -284 -245c-83 0 -155 17 -219 44l26 161c57 -24 123 -44 190 -44c60 0 103 28 103 75c0 45 -32 69 -86 69c-37 0 -65 -8 -89 -18l-119 26l23 376h429v-159h-281l-5 -86c22 5 51 9 90 9c128 0 222 -68 222 -208z" />
    <glyph glyph-name="seven.flat" horiz-adv-x="547" 
d="M514 522l-238 -522h-204l240 512h-276v164h478v-154z" />
    <glyph glyph-name="sterling.flat" horiz-adv-x="557" 
d="M48 411h91l33 104c37 121 108 174 231 174c53 0 90 -7 119 -17l-23 -158c-24 8 -44 11 -68 11c-47 0 -70 -18 -85 -68l-14 -46h115v-149h-161l-34 -110h262v-152h-466v115l45 147h-45v149z" />
    <glyph glyph-name="Euro.flat" horiz-adv-x="617" 
d="M25 377v80h83c37 140 141 229 303 229c69 0 127 -12 173 -33l-24 -154c-42 21 -77 31 -129 31c-55 0 -96 -26 -117 -73h185v-80h-201c-1 -13 -1 -26 -1 -39v-29h202v-80h-189c21 -60 68 -83 137 -83c42 0 82 10 124 28l24 -148c-55 -23 -106 -36 -182 -36
c-177 0 -279 83 -310 239h-78v80h69v28c0 13 0 27 1 40h-70z" />
    <glyph glyph-name="yen.flat" horiz-adv-x="665" 
d="M82 220v79h126l-208 377h225l119 -251l117 251h204l-213 -377h129v-79h-151v-60h151v-79h-151v-81h-198v81h-150v79h150v60h-150z" />
    <glyph glyph-name="numbersign.flat" horiz-adv-x="678" 
d="M561 678l-21 -130h102v-148h-126l-19 -124h121v-148h-145l-20 -130h-106l20 130h-123l-21 -130h-106l20 130h-101v148h125l19 124h-120v148h144l21 130h106l-21 -130h124l21 130h106zM286 404l-21 -132h127l20 132h-126z" />
    <glyph glyph-name="ordfeminine.flat" horiz-adv-x="409" 
d="M354 353h-107l-7 41c-34 -31 -66 -47 -107 -47c-52 0 -88 33 -88 86c0 74 57 111 190 119v5c0 29 -18 40 -54 40c-38 0 -71 -9 -105 -23l-12 81c36 15 86 26 146 26c94 0 144 -34 144 -115v-213zM359 221h-310v79h310v-79zM235 445v59c-53 -8 -75 -29 -75 -51
c0 -18 9 -28 25 -28s34 7 50 20z" />
    <glyph glyph-name="ordmasculine.flat" horiz-adv-x="409" 
d="M374 514c0 -103 -72 -168 -170 -168s-169 65 -169 168c0 101 71 167 169 167s170 -66 170 -167zM365 221h-321v79h321v-79zM257 514c0 46 -20 75 -53 75c-32 0 -52 -30 -52 -75c0 -47 20 -76 52 -76s53 29 53 76z" />
    <glyph glyph-name="percent.flat" horiz-adv-x="891" 
d="M374 486c0 -131 -75 -200 -169 -200c-95 0 -170 68 -170 199c0 130 76 199 170 199c95 0 169 -68 169 -198zM282 0h-113l229 347l211 329h113l-230 -349zM856 191c0 -130 -76 -199 -170 -199c-95 0 -169 68 -169 198c0 131 75 200 169 200c95 0 170 -68 170 -199z
M258 486c0 70 -19 105 -53 105c-35 0 -54 -35 -54 -106c0 -69 20 -104 54 -104c35 0 53 35 53 105zM740 191c0 69 -20 104 -54 104c-35 0 -53 -35 -53 -105s19 -105 53 -105c35 0 54 35 54 106z" />
    <glyph glyph-name="two.osf_flat" horiz-adv-x="516" 
d="M479 0h-444v123l196 161c33 27 46 42 46 66c0 20 -15 35 -48 35c-43 0 -101 -23 -159 -52l-24 148c65 32 137 52 228 52c121 0 202 -54 202 -156c0 -69 -31 -108 -98 -162l-103 -81h204v-134z" />
    <glyph glyph-name="three.osf_alt_flat" horiz-adv-x="507" 
d="M316 233h1c96 -17 161 -75 161 -166c0 -174 -150 -253 -322 -253c-36 0 -81 2 -111 6l-22 156c35 -6 89 -10 130 -10c83 0 139 34 139 86c0 33 -26 53 -74 53c-22 0 -48 -2 -65 -4l-30 -4l-16 118l156 156h-225v154h433v-141z" />
    <glyph glyph-name="five.osf_flat" horiz-adv-x="523" 
d="M490 80c0 -168 -135 -266 -336 -266c-52 0 -79 3 -109 7l-22 155c35 -6 81 -10 116 -10c99 0 162 38 162 97c0 37 -25 55 -61 55c-25 0 -42 -4 -65 -13l-131 24l13 396h408v-154h-258l-3 -114c29 8 58 12 98 12c106 0 188 -63 188 -189z" />
    <glyph glyph-name="seven.osf_flat" horiz-adv-x="520" 
d="M488 372l-239 -558l-181 46l220 497h-260v168h460v-153z" />
    <glyph glyph-name="sterling.osf_flat" horiz-adv-x="495" 
d="M40 202v113h84l17 43c42 108 98 173 217 173c45 0 85 -7 113 -15l-24 -134c-20 6 -41 10 -61 10c-35 0 -53 -14 -67 -49l-12 -28h92v-113h-137l-29 -72h225v-130h-416v104l38 98h-40z" />
    <glyph glyph-name="Euro.osf_flat" horiz-adv-x="528" 
d="M391 204h-143c15 -46 65 -70 113 -70c36 0 79 9 112 27l21 -137c-43 -21 -97 -33 -156 -33c-144 0 -234 79 -253 213h-58v113h58c20 133 121 217 252 217c61 0 112 -11 149 -30l-22 -147c-29 20 -65 33 -111 33c-50 0 -94 -26 -106 -73h144v-113z" />
    <glyph glyph-name="yen.osf_flat" horiz-adv-x="547" 
d="M487 124h-129v-124h-175v124h-129v105h111l-167 296h189l96 -193l94 193h172l-175 -296h113v-105z" />
    <glyph glyph-name="numbersign.osf_flat" horiz-adv-x="543" 
d="M33 220h98l13 83h-91v139h113l14 83h82l-13 -83h103l13 83h82l-14 -83h77v-139h-99l-13 -83h92v-139h-114l-13 -83h-82l13 83h-103l-13 -83h-82l13 83h-76v139zM225 307l-15 -91h107l15 91h-107z" />
    <glyph glyph-name="percent.osf_flat" horiz-adv-x="700" 
d="M293 374c0 -106 -61 -161 -135 -161s-135 55 -135 161s61 161 135 161s135 -55 135 -161zM565 529l-178 -276l-158 -253h-94l188 292l148 237h94zM677 155c0 -106 -62 -161 -135 -161c-75 0 -135 54 -135 160c0 107 60 162 135 162c74 0 135 -54 135 -161zM196 374
c0 55 -13 82 -38 82c-26 0 -38 -27 -38 -82c0 -54 13 -82 38 -82c26 0 38 28 38 82zM579 155c0 54 -12 82 -37 82c-27 0 -38 -28 -38 -83c0 -53 12 -80 38 -80s37 27 37 81z" />
    <glyph glyph-name="ampersand.flat" horiz-adv-x="663" 
d="M680 0h-216l-38 47c-52 -40 -111 -59 -179 -59c-131 0 -223 76 -223 198c0 93 50 157 126 198c-38 53 -51 90 -51 144c0 95 72 175 209 175c84 0 148 -20 193 -41l-26 -159c-56 28 -101 45 -142 45c-32 0 -48 -17 -48 -38c0 -17 8 -33 28 -58l120 -148c9 32 17 70 22 113
l147 -32c-11 -85 -32 -152 -65 -209zM277 128c22 0 44 7 66 23l-108 131c-23 -25 -33 -51 -33 -81c0 -43 27 -73 75 -73z" />
    <glyph glyph-name="exclam.flat" horiz-adv-x="305" 
d="M264 690l-59 -427h-105l-59 427h223zM247 0h-189v195h189v-195z" />
    <glyph glyph-name="exclamdown.flat" horiz-adv-x="305" 
d="M41 0l59 427h105l59 -427h-223zM58 690h189v-195h-189v195z" />
    <glyph glyph-name="guillemotleft.flat" horiz-adv-x="590" 
d="M305 495l-93 -247l93 -248h-120l-169 248l169 247h120zM559 495l-93 -247l93 -248h-120l-169 248l169 247h120z" />
    <glyph glyph-name="guillemotright.flat" horiz-adv-x="590" 
d="M285 0l93 247l-93 248h120l169 -248l-169 -247h-120zM31 0l93 247l-93 248h120l169 -248l-169 -247h-120z" />
    <glyph glyph-name="guilsinglleft.flat" horiz-adv-x="337" 
d="M305 495l-93 -247l93 -248h-120l-169 248l169 247h120z" />
    <glyph glyph-name="guilsinglright.flat" horiz-adv-x="337" 
d="M31 0l93 247l-93 248h120l169 -248l-169 -247h-120z" />
    <glyph glyph-name="parenleft.flat" horiz-adv-x="409" 
d="M237 314c0 -130 47 -221 132 -302l-15 -110c-202 81 -317 215 -317 412s115 331 317 412l15 -110c-85 -81 -132 -172 -132 -302z" />
    <glyph glyph-name="parenright.flat" horiz-adv-x="409" 
d="M172 314c0 130 -47 221 -132 302l15 110c202 -81 317 -215 317 -412s-115 -331 -317 -412l-15 110c85 81 132 172 132 302z" />
    <glyph glyph-name="bracketleft.flat" horiz-adv-x="422" 
d="M386 -104h-322v794h322v-104h-151v-586h151v-104z" />
    <glyph glyph-name="bracketright.flat" horiz-adv-x="422" 
d="M36 690h322v-794h-322v104h151v586h-151v104z" />
    <glyph glyph-name="braceleft.flat" horiz-adv-x="518" 
d="M481 -104h-166c-105 0 -162 52 -162 131c0 47 14 87 14 129c0 65 -40 86 -111 86h-30v103h30c71 0 111 21 111 85c0 43 -14 83 -14 129c0 79 57 131 162 131h166v-104h-82c-47 0 -69 -18 -69 -54c0 -40 13 -66 13 -111c0 -71 -41 -110 -120 -127v-2
c79 -17 120 -56 120 -127c0 -44 -13 -71 -13 -111c0 -35 22 -54 69 -54h82v-104z" />
    <glyph glyph-name="braceright.flat" horiz-adv-x="518" 
d="M36 690h166c105 0 162 -52 162 -131c0 -47 -14 -87 -14 -129c0 -65 40 -86 111 -86h30v-103h-30c-71 0 -111 -21 -111 -85c0 -43 14 -83 14 -129c0 -79 -57 -131 -162 -131h-166v104h82c47 0 69 18 69 54c0 40 -13 66 -13 111c0 71 41 110 120 127v2
c-79 17 -120 56 -120 127c0 44 13 71 13 111c0 35 -22 54 -69 54h-82v104z" />
    <glyph glyph-name="registered.alt_flat" horiz-adv-x="799" 
d="M745 346c0 -213 -142 -359 -346 -359c-205 0 -345 144 -345 357c0 214 142 359 346 359c205 0 345 -144 345 -357zM701 345c0 207 -132 322 -301 322c-172 0 -302 -115 -302 -322s132 -322 302 -322c171 0 301 115 301 322zM462 155l-74 118h-16v-118h-126v394h152
c110 0 170 -48 170 -133c0 -49 -22 -86 -63 -110l104 -151h-147zM371 462v-108h20c40 0 58 20 58 55c0 34 -20 53 -59 53h-19z" />
    <glyph glyph-name="registered.flat" horiz-adv-x="563" 
d="M508 470c0 -138 -95 -232 -227 -232c-134 0 -227 93 -227 232c0 138 95 233 227 233c134 0 227 -94 227 -233zM475 470c0 132 -86 206 -194 206s-194 -74 -194 -206c0 -131 86 -205 194 -205c109 0 194 74 194 205zM415 350h-95l-49 82h-9v-82h-81v256h107
c68 0 105 -29 105 -83c0 -37 -20 -59 -44 -71zM314 517c0 21 -13 34 -37 34h-15v-69h15c24 0 37 12 37 35z" />
    <glyph glyph-name="trademark.flat" horiz-adv-x="817" 
d="M790 345h-111l-13 204l-49 -206h-103l-49 206l-13 -204h-92l26 345h141l51 -211l52 211h135zM335 606h-101v-261h-108v261h-101v84h310v-84z" />
    <glyph glyph-name="trademark.alt_flat" horiz-adv-x="838" 
d="M795 345h-105v206l-66 -210h-85l-66 210v-206h-99v345h142l72 -210l66 210h141v-345zM335 606h-101v-261h-108v261h-101v84h310v-84z" />
    <glyph glyph-name="ampersand.sc_flat" horiz-adv-x="526" 
d="M547 0h-173l-34 39c-44 -31 -94 -48 -148 -48c-104 0 -175 59 -175 150c0 81 52 128 112 154c-25 34 -38 69 -38 101c0 81 60 134 167 134c63 0 113 -15 148 -32l-22 -120c-32 17 -69 31 -98 31c-28 0 -40 -11 -40 -28c0 -19 12 -33 33 -59l58 -71c3 19 5 40 7 63
l127 -27c-8 -55 -23 -103 -44 -144zM224 102c21 0 39 4 54 15l-85 102c-19 -17 -28 -36 -28 -59c0 -36 28 -58 59 -58z" />
    <glyph glyph-name="guillemotleft.sc_flat" horiz-adv-x="590" 
d="M305 524l-93 -262l93 -262h-120l-169 262l169 262h120zM559 524l-93 -262l93 -262h-120l-169 262l169 262h120z" />
    <glyph glyph-name="guillemotright.sc_flat" horiz-adv-x="590" 
d="M285 0l93 262l-93 262h120l169 -262l-169 -262h-120zM31 0l93 262l-93 262h120l169 -262l-169 -262h-120z" />
    <glyph glyph-name="guilsinglleft.sc_flat" horiz-adv-x="337" 
d="M305 524l-93 -262l93 -262h-120l-169 262l169 262h120z" />
    <glyph glyph-name="guilsinglright.sc_flat" horiz-adv-x="337" 
d="M31 0l93 262l-93 262h120l169 -262l-169 -262h-120z" />
    <glyph glyph-name="parenleft.sc_flat" horiz-adv-x="338" 
d="M36 242c0 162 106 292 264 343l17 -120c-70 -56 -108 -128 -108 -223s38 -167 108 -223l-17 -120c-158 51 -264 181 -264 343z" />
    <glyph glyph-name="parenright.sc_flat" horiz-adv-x="338" 
d="M302 242c0 -162 -106 -292 -264 -343l-17 120c70 56 108 128 108 223s-38 167 -108 223l17 120c158 -51 264 -181 264 -343z" />
    <glyph glyph-name="bracketleft.sc_flat" horiz-adv-x="342" 
d="M315 -104h-257v629h257v-104h-98v-421h98v-104z" />
    <glyph glyph-name="bracketright.sc_flat" horiz-adv-x="342" 
d="M284 -104h-257v104h98v421h-98v104h257v-629z" />
    <glyph glyph-name="braceleft.sc_flat" horiz-adv-x="410" 
d="M383 -104h-143c-81 0 -124 40 -124 100c0 36 11 78 11 110c0 41 -31 56 -84 56h-26v97h26c53 0 84 14 84 55c0 33 -11 76 -11 111c0 60 43 100 124 100h143v-104h-63c-35 0 -52 -14 -52 -41c0 -30 10 -49 10 -83c0 -46 -22 -73 -82 -86v-1c60 -14 82 -37 82 -84
c0 -33 -10 -54 -10 -84c0 -27 17 -42 52 -42h63v-104z" />
    <glyph glyph-name="braceright.sc_flat" horiz-adv-x="410" 
d="M27 525h143c81 0 124 -40 124 -100c0 -36 -11 -78 -11 -110c0 -41 31 -56 84 -56h26v-97h-26c-53 0 -84 -14 -84 -55c0 -33 11 -76 11 -111c0 -60 -43 -100 -124 -100h-143v104h63c35 0 52 14 52 41c0 30 -10 49 -10 83c0 46 22 73 82 86v1c-60 14 -82 37 -82 84
c0 33 10 54 10 84c0 27 -17 42 -52 42h-63v104z" />
    <glyph glyph-name="AE.flat" horiz-adv-x="917" 
d="M1 0l307 690h569v-161h-255v-99h206v-159h-206v-110h264v-161h-454v116h-176l-48 -116h-207zM315 271h117v288z" />
    <glyph glyph-name="OE.flat" horiz-adv-x="923" 
d="M892 0h-494c-241 0 -367 138 -367 344c0 205 127 346 359 346h493v-161h-255v-99h206v-159h-206v-110h264v-161zM430 154v382h-26c-103 0 -169 -55 -169 -191c0 -133 70 -191 171 -191h24z" />
    <glyph glyph-name="Eth.flat" horiz-adv-x="739" 
d="M710 346c0 -205 -127 -346 -359 -346h-262v267h-73v169h73v254h254c240 0 367 -138 367 -344zM505 345c0 133 -70 191 -171 191h-47v-104h104v-161h-104v-117h49c103 0 169 55 169 191z" />
    <glyph glyph-name="Dcroat.flat" horiz-adv-x="739" 
d="M710 346c0 -205 -127 -346 -359 -346h-262v267h-73v169h73v254h254c240 0 367 -138 367 -344zM505 345c0 133 -70 191 -171 191h-47v-104h104v-161h-104v-117h49c103 0 169 55 169 191z" />
    <glyph glyph-name="Hbar.flat" horiz-adv-x="779" 
d="M690 0h-205v257h-191v-257h-205v510h-79v112h79v68h203v-68h195v68h203v-68h79v-112h-79v-510zM292 429h195v85h-195v-85z" />
    <glyph glyph-name="Lslash.flat" horiz-adv-x="538" 
d="M406 381l-114 -61v-146h219v-174h-422v211l-73 -39v166l73 38v314h203v-205l114 62v-166z" />
    <glyph glyph-name="Aogonek.flat" horiz-adv-x="716" 
d="M6 0l238 693h229l237 -693h-46l-14 -25c-15 -26 -21 -39 -21 -55c0 -19 12 -29 34 -29c15 0 27 3 42 8v-83c-34 -15 -74 -26 -116 -26c-60 0 -96 29 -96 84c0 32 15 69 56 126h-57l-37 116h-217l-34 -116h-198zM347 489l-65 -218h127z" />
    <glyph glyph-name="Eogonek.flat" horiz-adv-x="549" 
d="M518 0h-37l-14 -25c-15 -26 -21 -39 -21 -55c0 -19 12 -29 34 -29c15 0 27 3 42 8v-83c-34 -15 -74 -26 -116 -26c-60 0 -96 29 -96 84c0 32 15 69 56 126h-312v690h455v-161h-255v-99h206v-159h-206v-110h264v-161z" />
    <glyph glyph-name="Aring.flat" horiz-adv-x="716" 
d="M499 734c0 -23 -7 -43 -20 -61l231 -673h-218l-37 116h-217l-34 -116h-198l229 667c-16 19 -24 42 -24 67c0 59 46 110 144 110s144 -51 144 -110zM347 489l-65 -218h127zM402 734c0 30 -18 57 -47 57s-47 -27 -47 -57c0 -31 18 -57 47 -57s47 26 47 57z" />
    <glyph glyph-name="Aringacute.flat" horiz-adv-x="716" 
d="M499 734c0 -23 -7 -43 -20 -61l231 -673h-218l-37 116h-217l-34 -116h-198l229 667c-16 19 -24 42 -24 67c0 59 46 110 144 110s144 -51 144 -110zM546 989l-152 -118h-112l49 151zM347 489l-65 -218h127zM402 734c0 30 -18 57 -47 57s-47 -27 -47 -57
c0 -31 18 -57 47 -57s47 26 47 57z" />
    <glyph glyph-name="Ldot.flat" horiz-adv-x="503" 
d="M476 302h-138v143h138v-143zM476 0h-422v690h205v-516h217v-174z" />
    <glyph glyph-name="Aacute.flat" horiz-adv-x="716" 
d="M6 0l238 693h229l237 -693h-218l-37 116h-217l-34 -116h-198zM546 865l-152 -118h-112l49 151zM347 489l-65 -218h127z" />
    <glyph glyph-name="Agrave.flat" horiz-adv-x="716" 
d="M6 0l238 693h229l237 -693h-218l-37 116h-217l-34 -116h-198zM427 747h-116l-152 118l218 33zM347 489l-65 -218h127z" />
    <glyph glyph-name="Acircumflex.flat" horiz-adv-x="716" 
d="M6 0l238 693h229l237 -693h-218l-37 116h-217l-34 -116h-198zM535 747h-113l-69 53l-69 -53h-113l100 150h164zM347 489l-65 -218h127z" />
    <glyph glyph-name="Abreve.flat" horiz-adv-x="716" 
d="M6 0l238 693h229l237 -693h-218l-37 116h-217l-34 -116h-198zM520 889c-13 -88 -68 -144 -166 -144s-153 56 -166 144l94 14c17 -41 36 -55 72 -55s55 14 72 55zM347 489l-65 -218h127z" />
    <glyph glyph-name="Atilde.flat" horiz-adv-x="716" 
d="M6 0l238 693h229l237 -693h-218l-37 116h-217l-34 -116h-198zM530 896c-15 -115 -49 -150 -101 -150c-26 0 -43 7 -71 18c-38 15 -50 20 -65 20s-24 -9 -32 -42l-77 17c15 116 49 151 101 151c26 0 43 -6 71 -18c38 -16 50 -20 65 -20s24 9 32 42zM347 489l-65 -218h127z
" />
    <glyph glyph-name="Amacron.flat" horiz-adv-x="716" 
d="M6 0l238 693h229l237 -693h-218l-37 116h-217l-34 -116h-198zM514 752h-320v118h320v-118zM347 489l-65 -218h127z" />
    <glyph glyph-name="Adieresis.flat" horiz-adv-x="716" 
d="M6 0l238 693h229l237 -693h-218l-37 116h-217l-34 -116h-198zM529 747h-144v143h144v-143zM323 747h-144v143h144v-143zM347 489l-65 -218h127z" />
    <glyph glyph-name="Eacute.flat" horiz-adv-x="549" 
d="M518 0h-464v690h455v-161h-255v-99h206v-159h-206v-110h264v-161zM478 855l-152 -118h-112l49 151z" />
    <glyph glyph-name="Egrave.flat" horiz-adv-x="549" 
d="M518 0h-464v690h455v-161h-255v-99h206v-159h-206v-110h264v-161zM359 737h-116l-152 118l218 33z" />
    <glyph glyph-name="Ecircumflex.flat" horiz-adv-x="549" 
d="M518 0h-464v690h455v-161h-255v-99h206v-159h-206v-110h264v-161zM467 737h-113l-69 53l-69 -53h-113l100 150h164z" />
    <glyph glyph-name="Ecaron.flat" horiz-adv-x="549" 
d="M518 0h-464v690h455v-161h-255v-99h206v-159h-206v-110h264v-161zM104 887h113l69 -53l69 53h113l-100 -150h-164z" />
    <glyph glyph-name="Ebreve.flat" horiz-adv-x="549" 
d="M518 0h-464v690h455v-161h-255v-99h206v-159h-206v-110h264v-161zM452 879c-13 -88 -68 -144 -166 -144s-153 56 -166 144l94 14c17 -41 36 -55 72 -55s55 14 72 55z" />
    <glyph glyph-name="Emacron.flat" horiz-adv-x="549" 
d="M518 0h-464v690h455v-161h-255v-99h206v-159h-206v-110h264v-161zM446 742h-320v118h320v-118z" />
    <glyph glyph-name="Edieresis.flat" horiz-adv-x="549" 
d="M518 0h-464v690h455v-161h-255v-99h206v-159h-206v-110h264v-161zM461 737h-144v143h144v-143zM255 737h-144v143h144v-143z" />
    <glyph glyph-name="Edotaccent.flat" horiz-adv-x="549" 
d="M518 0h-464v690h455v-161h-255v-99h206v-159h-206v-110h264v-161zM361 737h-150v143h150v-143z" />
    <glyph glyph-name="Gbreve.flat" horiz-adv-x="675" 
d="M633 63c-78 -51 -164 -76 -260 -76c-219 0 -343 144 -343 357c0 214 135 359 352 359c81 0 155 -19 211 -48l-26 -172c-53 31 -112 56 -179 56c-106 0 -154 -81 -154 -194c0 -115 50 -200 153 -200c28 0 50 6 72 17v98h-113v144h287v-341zM529 889
c-13 -88 -68 -144 -166 -144s-153 56 -166 144l94 14c17 -41 36 -55 72 -55s55 14 72 55z" />
    <glyph glyph-name="Gdotaccent.flat" horiz-adv-x="675" 
d="M633 63c-78 -51 -164 -76 -260 -76c-219 0 -343 144 -343 357c0 214 135 359 352 359c81 0 155 -19 211 -48l-26 -172c-53 31 -112 56 -179 56c-106 0 -154 -81 -154 -194c0 -115 50 -200 153 -200c28 0 50 6 72 17v98h-113v144h287v-341zM438 747h-150v143h150v-143z
" />
    <glyph glyph-name="Gcommaaccent.flat" horiz-adv-x="675" 
d="M633 63c-78 -51 -164 -76 -260 -76c-219 0 -343 144 -343 357c0 214 135 359 352 359c81 0 155 -19 211 -48l-26 -172c-53 31 -112 56 -179 56c-106 0 -154 -81 -154 -194c0 -115 50 -200 153 -200c28 0 50 6 72 17v98h-113v144h287v-341zM272 -76l140 22
c29 -24 46 -51 46 -87c0 -48 -34 -95 -96 -131l-110 21c40 43 54 70 54 102c0 22 -6 43 -34 73z" />
    <glyph glyph-name="Kcommaaccent.flat" horiz-adv-x="677" 
d="M689 0h-243l-187 309v-309h-205v690h205v-289l182 289h230l-224 -321zM260 -56l140 22c29 -24 46 -51 46 -87c0 -48 -34 -95 -96 -131l-110 21c40 43 54 70 54 102c0 22 -6 43 -34 73z" />
    <glyph glyph-name="Lacute.flat" horiz-adv-x="503" 
d="M476 0h-422v690h205v-516h217v-174zM373 865l-152 -118h-112l49 151z" />
    <glyph glyph-name="Lcaron.flat" horiz-adv-x="503" 
d="M476 0h-422v690h205v-516h217v-174zM446 703c6 -25 9 -49 9 -72c0 -49 -23 -101 -68 -145l-83 17c17 39 23 69 23 104c0 22 -6 50 -17 79z" />
    <glyph glyph-name="Lcommaaccent.flat" horiz-adv-x="503" 
d="M476 0h-422v690h205v-516h217v-174zM175 -76l140 22c29 -24 46 -51 46 -87c0 -48 -34 -95 -96 -131l-110 21c40 43 54 70 54 102c0 22 -6 43 -34 73z" />
    <glyph glyph-name="Racute.flat" horiz-adv-x="640" 
d="M647 0h-236l-123 214h-31v-214h-203v690h264c178 0 280 -79 280 -227c0 -93 -42 -159 -120 -199zM399 451c0 58 -37 90 -103 90h-41v-185h42c66 0 102 34 102 95zM502 855l-152 -118h-112l49 151z" />
    <glyph glyph-name="Rcaron.flat" horiz-adv-x="640" 
d="M647 0h-236l-123 214h-31v-214h-203v690h264c178 0 280 -79 280 -227c0 -93 -42 -159 -120 -199zM399 451c0 58 -37 90 -103 90h-41v-185h42c66 0 102 34 102 95zM128 887h113l69 -53l69 53h113l-100 -150h-164z" />
    <glyph glyph-name="Rcommaaccent.flat" horiz-adv-x="640" 
d="M647 0h-236l-123 214h-31v-214h-203v690h264c178 0 280 -79 280 -227c0 -93 -42 -159 -120 -199zM399 451c0 58 -37 90 -103 90h-41v-185h42c66 0 102 34 102 95zM229 -56l140 22c29 -24 46 -51 46 -87c0 -48 -34 -95 -96 -131l-110 21c40 43 54 70 54 102
c0 22 -6 43 -34 73z" />
    <glyph glyph-name="Tcaron.flat" horiz-adv-x="617" 
d="M596 520h-185v-520h-205v520h-185v170h575v-170zM126 887h113l69 -53l69 53h113l-100 -150h-164z" />
    <glyph glyph-name="Tcommaaccent.flat" horiz-adv-x="617" 
d="M596 520h-185v-520h-205v520h-185v170h575v-170zM217 -76l140 22c29 -24 46 -51 46 -87c0 -48 -34 -95 -96 -131l-110 21c40 43 54 70 54 102c0 22 -6 43 -34 73z" />
    <glyph glyph-name="Wacute.flat" horiz-adv-x="985" 
d="M975 690l-180 -690h-213l-90 396l-90 -396h-212l-180 690h234l80 -385l84 385h206l84 -385l76 385h201zM704 855l-152 -118h-112l49 151z" />
    <glyph glyph-name="Wgrave.flat" horiz-adv-x="985" 
d="M975 690l-180 -690h-213l-90 396l-90 -396h-212l-180 690h234l80 -385l84 385h206l84 -385l76 385h201zM585 737h-116l-152 118l218 33z" />
    <glyph glyph-name="Wcircumflex.flat" horiz-adv-x="985" 
d="M975 690l-180 -690h-213l-90 396l-90 -396h-212l-180 690h234l80 -385l84 385h206l84 -385l76 385h201zM693 737h-113l-69 53l-69 -53h-113l100 150h164z" />
    <glyph glyph-name="Wdieresis.flat" horiz-adv-x="985" 
d="M975 690l-180 -690h-213l-90 396l-90 -396h-212l-180 690h234l80 -385l84 385h206l84 -385l76 385h201zM687 737h-144v143h144v-143zM481 737h-144v143h144v-143z" />
    <glyph glyph-name="Wacute.alt_flat" horiz-adv-x="1015" 
d="M1009 690l-214 -693h-210l-78 254l-85 -254h-205l-211 693h227l120 -430l78 231l-60 199h227l102 -430l108 430h201zM699 855l-152 -118h-112l49 151z" />
    <glyph glyph-name="Wgrave.alt_flat" horiz-adv-x="1015" 
d="M1009 690l-214 -693h-210l-78 254l-85 -254h-205l-211 693h227l120 -430l78 231l-60 199h227l102 -430l108 430h201zM580 737h-116l-152 118l218 33z" />
    <glyph glyph-name="Wcircumflex.alt_flat" horiz-adv-x="1015" 
d="M1009 690l-214 -693h-210l-78 254l-85 -254h-205l-211 693h227l120 -430l78 231l-60 199h227l102 -430l108 430h201zM688 737h-113l-69 53l-69 -53h-113l100 150h164z" />
    <glyph glyph-name="Wdieresis.alt_flat" horiz-adv-x="1015" 
d="M1009 690l-214 -693h-210l-78 254l-85 -254h-205l-211 693h227l120 -430l78 231l-60 199h227l102 -430l108 430h201zM476 737h-144v143h144v-143zM682 737h-144v143h144v-143z" />
    <glyph glyph-name="Yacute.flat" horiz-adv-x="685" 
d="M692 690l-247 -444v-246h-205v242l-247 448h233l126 -258l127 258h213zM545 855l-152 -118h-112l49 151z" />
    <glyph glyph-name="Ygrave.flat" horiz-adv-x="685" 
d="M692 690l-247 -444v-246h-205v242l-247 448h233l126 -258l127 258h213zM426 737h-116l-152 118l218 33z" />
    <glyph glyph-name="Ycircumflex.flat" horiz-adv-x="685" 
d="M692 690l-247 -444v-246h-205v242l-247 448h233l126 -258l127 258h213zM534 737h-113l-69 53l-69 -53h-113l100 150h164z" />
    <glyph glyph-name="Ydieresis.flat" horiz-adv-x="685" 
d="M692 690l-247 -444v-246h-205v242l-247 448h233l126 -258l127 258h213zM528 737h-144v143h144v-143zM322 737h-144v143h144v-143z" />
    <glyph glyph-name="Zacute.flat" horiz-adv-x="617" 
d="M578 0h-541v147l291 384h-270v159h520v-147l-291 -384h291v-159zM510 855l-152 -118h-112l49 151z" />
    <glyph glyph-name="Zcaron.flat" horiz-adv-x="617" 
d="M578 0h-541v147l291 384h-270v159h520v-147l-291 -384h291v-159zM136 887h113l69 -53l69 53h113l-100 -150h-164z" />
    <glyph glyph-name="Zdotaccent.flat" horiz-adv-x="617" 
d="M578 0h-541v147l291 384h-270v159h520v-147l-291 -384h291v-159zM393 737h-150v143h150v-143z" />
    <glyph glyph-name="AEacute.flat" horiz-adv-x="917" 
d="M1 0l307 690h569v-161h-255v-99h206v-159h-206v-110h264v-161h-454v116h-176l-48 -116h-207zM701 855l-152 -118h-112l49 151zM315 271h117v288z" />
    <glyph glyph-name="dcroat.flat" horiz-adv-x="546" 
d="M502 0h-161l-10 62c-31 -35 -74 -72 -134 -72c-99 0 -172 76 -172 244c0 192 98 264 203 264c43 0 69 -6 96 -14v59h-118v103h118v48l178 28v-76h64v-103h-64v-543zM324 183v169c-15 6 -27 9 -50 9c-40 0 -71 -30 -71 -114c0 -74 25 -99 59 -99c23 0 42 15 62 35z" />
    <glyph glyph-name="hbar.flat" horiz-adv-x="541" 
d="M500 0h-178v299c0 29 -12 50 -41 50c-21 0 -39 -11 -59 -30v-319h-178v543h-60v103h60v48l178 28v-76h122v-103h-122v-107c42 41 82 69 139 69c91 0 139 -57 139 -156v-349z" />
    <glyph glyph-name="lslash.flat" horiz-adv-x="334" 
d="M255 0h-176v221l-67 -35v167l67 34v307l176 28v-244l67 36v-167l-67 -34v-313z" />
    <glyph glyph-name="kcommaaccent.flat" horiz-adv-x="520" 
d="M527 0h-199l-106 220v-220h-178v694l178 28v-427l105 200h191l-136 -231zM179 -66l140 22c29 -24 46 -51 46 -87c0 -48 -34 -95 -96 -131l-110 21c40 43 54 70 54 102c0 22 -6 43 -34 73z" />
    <glyph glyph-name="tcaron.flat" horiz-adv-x="374" 
d="M363 5c-28 -8 -52 -12 -95 -12c-114 0 -195 42 -195 179v180h-62v143h62v141l177 28v-169h105v-143h-105v-152c0 -40 21 -56 58 -56c11 0 23 2 34 6zM428 743c6 -25 9 -49 9 -72c0 -49 -23 -101 -68 -145l-83 17c17 39 23 69 23 104c0 22 -6 50 -17 79z" />
    <glyph glyph-name="tcommaaccent.flat" horiz-adv-x="374" 
d="M363 5c-28 -8 -52 -12 -95 -12c-114 0 -195 42 -195 179v180h-62v143h62v141l177 28v-169h105v-143h-105v-152c0 -40 21 -56 58 -56c11 0 23 2 34 6zM109 -66l140 22c29 -24 46 -51 46 -87c0 -48 -34 -95 -96 -131l-110 21c40 43 54 70 54 102c0 22 -6 43 -34 73z" />
    <glyph glyph-name="wacute.flat" horiz-adv-x="726" 
d="M724 495l-130 -495h-175l-56 245l-55 -245h-177l-130 495h191l50 -259l53 259h163l54 -258l49 258h163zM566 665l-152 -118h-112l49 151z" />
    <glyph glyph-name="wgrave.flat" horiz-adv-x="726" 
d="M724 495l-130 -495h-175l-56 245l-55 -245h-177l-130 495h191l50 -259l53 259h163l54 -258l49 258h163zM447 547h-116l-152 118l218 33z" />
    <glyph glyph-name="wcircumflex.flat" horiz-adv-x="726" 
d="M724 495l-130 -495h-175l-56 245l-55 -245h-177l-130 495h191l50 -259l53 259h163l54 -258l49 258h163zM555 547h-113l-69 53l-69 -53h-113l100 150h164z" />
    <glyph glyph-name="wdieresis.flat" horiz-adv-x="726" 
d="M724 495l-130 -495h-175l-56 245l-55 -245h-177l-130 495h191l50 -259l53 259h163l54 -258l49 258h163zM549 547h-144v143h144v-143zM343 547h-144v143h144v-143z" />
    <glyph glyph-name="yacute.flat" horiz-adv-x="525" 
d="M524 495l-166 -491c-47 -135 -109 -186 -228 -186c-38 0 -53 3 -69 7l-22 139c17 -5 31 -8 65 -8c33 0 65 11 82 43l-184 496h199l78 -271l73 271h172zM473 665l-152 -118h-112l49 151z" />
    <glyph glyph-name="ygrave.flat" horiz-adv-x="525" 
d="M524 495l-166 -491c-47 -135 -109 -186 -228 -186c-38 0 -53 3 -69 7l-22 139c17 -5 31 -8 65 -8c33 0 65 11 82 43l-184 496h199l78 -271l73 271h172zM354 547h-116l-152 118l218 33z" />
    <glyph glyph-name="ycircumflex.flat" horiz-adv-x="525" 
d="M524 495l-166 -491c-47 -135 -109 -186 -228 -186c-38 0 -53 3 -69 7l-22 139c17 -5 31 -8 65 -8c33 0 65 11 82 43l-184 496h199l78 -271l73 271h172zM462 547h-113l-69 53l-69 -53h-113l100 150h164z" />
    <glyph glyph-name="ydieresis.flat" horiz-adv-x="525" 
d="M524 495l-166 -491c-47 -135 -109 -186 -228 -186c-38 0 -53 3 -69 7l-22 139c17 -5 31 -8 65 -8c33 0 65 11 82 43l-184 496h199l78 -271l73 271h172zM250 547h-144v143h144v-143zM456 547h-144v143h144v-143z" />
    <glyph glyph-name="zacute.flat" horiz-adv-x="474" 
d="M443 0h-419v133l195 225h-179v137h403v-134l-194 -224h194v-137zM434 665l-152 -118h-112l49 151z" />
    <glyph glyph-name="zcaron.flat" horiz-adv-x="474" 
d="M443 0h-419v133l195 225h-179v137h403v-134l-194 -224h194v-137zM60 697h113l69 -53l69 53h113l-100 -150h-164z" />
    <glyph glyph-name="zdotaccent.flat" horiz-adv-x="474" 
d="M443 0h-419v133l195 225h-179v137h403v-134l-194 -224h194v-137zM317 547h-150v143h150v-143z" />
    <glyph glyph-name="f_f.flat" horiz-adv-x="726" 
d="M368 579c-17 2 -35 5 -58 5c-41 0 -58 -21 -58 -60v-29h98v-143h-98v-352h-178v352h-66v143h66v46c0 129 77 176 203 176c26 0 50 -3 70 -7zM740 579c-17 2 -35 5 -58 5c-41 0 -58 -21 -58 -60v-29h98v-143h-98v-352h-178v352h-66v143h66v46c0 129 77 176 203 176
c26 0 50 -3 70 -7z" />
    <glyph glyph-name="f_f_i.flat" horiz-adv-x="996" 
d="M368 579c-17 2 -35 5 -58 5c-41 0 -58 -21 -58 -60v-29h98v-143h-98v-352h-178v352h-66v143h66v46c0 129 77 176 203 176c26 0 50 -3 70 -7zM740 579c-17 2 -35 5 -58 5c-41 0 -58 -21 -58 -60v-29h98v-143h-98v-352h-178v352h-66v143h66v46c0 129 77 176 203 176
c26 0 50 -3 70 -7zM960 638c0 -57 -43 -92 -99 -92c-55 0 -99 35 -99 92c0 58 44 93 99 93c56 0 99 -35 99 -93zM950 0h-178v495h178v-495z" />
    <glyph glyph-name="f_f_l.flat" horiz-adv-x="996" 
d="M368 579c-17 2 -35 5 -58 5c-41 0 -58 -21 -58 -60v-29h98v-143h-98v-352h-178v352h-66v143h66v46c0 129 77 176 203 176c26 0 50 -3 70 -7zM740 579c-17 2 -35 5 -58 5c-41 0 -58 -21 -58 -60v-29h98v-143h-98v-352h-178v352h-66v143h66v46c0 129 77 176 203 176
c26 0 50 -3 70 -7zM950 0h-178v694l178 28v-722z" />
    <glyph glyph-name="fi.flat" horiz-adv-x="624" 
d="M368 579c-17 2 -35 5 -58 5c-41 0 -58 -21 -58 -60v-29h98v-143h-98v-352h-178v352h-66v143h66v46c0 129 77 176 203 176c26 0 50 -3 70 -7zM588 638c0 -57 -43 -92 -99 -92c-55 0 -99 35 -99 92c0 58 44 93 99 93c56 0 99 -35 99 -93zM578 0h-178v495h178v-495z" />
    <glyph glyph-name="fl.flat" horiz-adv-x="624" 
d="M368 579c-17 2 -35 5 -58 5c-41 0 -58 -21 -58 -60v-29h98v-143h-98v-352h-178v352h-66v143h66v46c0 129 77 176 203 176c26 0 50 -3 70 -7zM578 0h-178v694l178 28v-722z" />
    <glyph glyph-name="ae.sc_flat" horiz-adv-x="740" 
d="M229 525h475v-125h-202v-74h157v-123h-157v-78h208v-125h-375v92h-121l-35 -92h-183zM257 214h78v207z" />
    <glyph glyph-name="oe.sc_flat" horiz-adv-x="736" 
d="M706 0h-409c-182 0 -273 101 -273 262c0 156 100 263 268 263h408v-125h-202v-74h157v-123h-157v-78h208v-125zM328 394h-26c-63 0 -102 -41 -102 -131c0 -89 35 -132 103 -132h25v263z" />
    <glyph glyph-name="eth.sc_flat" horiz-adv-x="580" 
d="M12 193v140h70v192h201c182 0 273 -101 273 -262c0 -156 -100 -263 -268 -263h-206v193h-70zM383 262c0 89 -35 132 -103 132h-32v-66h67v-130h-67v-67h32c64 0 103 41 103 131z" />
    <glyph glyph-name="dcroat.sc_flat" horiz-adv-x="580" 
d="M12 193v140h70v192h201c182 0 273 -101 273 -262c0 -156 -100 -263 -268 -263h-206v193h-70zM383 262c0 89 -35 132 -103 132h-32v-66h67v-130h-67v-67h32c64 0 103 41 103 131z" />
    <glyph glyph-name="hbar.sc_flat" horiz-adv-x="591" 
d="M528 0h-170v186h-125v-186h-170v361h-60v120h60v44h168v-44h129v44h168v-44h60v-120h-60v-361zM231 318h129v58h-129v-58z" />
    <glyph glyph-name="lslash.sc_flat" horiz-adv-x="455" 
d="M362 297l-105 -53v-99h173v-145h-348v152l-70 -38v141l70 35v235h175v-144l105 57v-141z" />
    <glyph glyph-name="aogonek.sc_flat" horiz-adv-x="564" 
d="M166 0h-163l168 527h223l167 -527h-33l-14 -25c-15 -26 -21 -39 -21 -55c0 -19 12 -29 34 -29c15 0 27 3 42 8v-83c-34 -15 -74 -26 -116 -26c-60 0 -96 29 -96 84c0 32 15 69 56 126h-28l-25 92h-169zM275 408l-54 -193h108z" />
    <glyph glyph-name="eogonek.sc_flat" 
d="M421 0h-38l-14 -25c-15 -26 -21 -39 -21 -55c0 -19 12 -29 34 -29c15 0 27 3 42 8v-83c-34 -15 -74 -26 -116 -26c-60 0 -96 29 -96 84c0 32 15 69 56 126h-222v525h369v-125h-202v-74h157v-123h-157v-78h208v-125z" />
    <glyph glyph-name="aring.sc_flat" horiz-adv-x="564" 
d="M422 569c0 -24 -7 -45 -22 -63l161 -506h-176l-25 92h-169l-25 -92h-163l159 498c-19 19 -28 44 -28 71c0 59 46 110 144 110s144 -51 144 -110zM275 408l-54 -193h108zM325 569c0 30 -18 57 -47 57s-47 -27 -47 -57c0 -31 18 -57 47 -57s47 26 47 57z" />
    <glyph glyph-name="aringacute.sc_flat" horiz-adv-x="564" 
d="M422 569c0 -24 -7 -45 -22 -63l161 -506h-176l-25 92h-169l-25 -92h-163l159 498c-19 19 -28 44 -28 71c0 59 46 110 144 110s144 -51 144 -110zM470 828l-152 -118h-112l49 151zM275 408l-54 -193h108zM325 569c0 30 -18 57 -47 57s-47 -27 -47 -57c0 -31 18 -57 47 -57
s47 26 47 57z" />
    <glyph glyph-name="ldot.sc_flat" horiz-adv-x="419" 
d="M409 234h-127v137h127v-137zM394 0h-348v525h177v-380h171v-145z" />
    <glyph glyph-name="aacute.sc_flat" horiz-adv-x="564" 
d="M166 0h-163l168 527h223l167 -527h-176l-25 92h-169zM474 695l-152 -118h-112l49 151zM275 408l-54 -193h108z" />
    <glyph glyph-name="agrave.sc_flat" horiz-adv-x="564" 
d="M166 0h-163l168 527h223l167 -527h-176l-25 92h-169zM355 577h-116l-152 118l218 33zM275 408l-54 -193h108z" />
    <glyph glyph-name="acircumflex.sc_flat" horiz-adv-x="564" 
d="M166 0h-163l168 527h223l167 -527h-176l-25 92h-169zM463 577h-113l-69 53l-69 -53h-113l100 150h164zM275 408l-54 -193h108z" />
    <glyph glyph-name="abreve.sc_flat" horiz-adv-x="564" 
d="M166 0h-163l168 527h223l167 -527h-176l-25 92h-169zM448 719c-13 -88 -68 -144 -166 -144s-153 56 -166 144l94 14c17 -41 36 -55 72 -55s55 14 72 55zM275 408l-54 -193h108z" />
    <glyph glyph-name="atilde.sc_flat" horiz-adv-x="564" 
d="M166 0h-163l168 527h223l167 -527h-176l-25 92h-169zM458 726c-15 -115 -49 -150 -101 -150c-26 0 -43 7 -71 18c-38 15 -50 20 -65 20s-24 -9 -32 -42l-77 17c15 116 49 151 101 151c26 0 43 -6 71 -18c38 -16 50 -20 65 -20s24 9 32 42zM275 408l-54 -193h108z" />
    <glyph glyph-name="amacron.sc_flat" horiz-adv-x="564" 
d="M166 0h-163l168 527h223l167 -527h-176l-25 92h-169zM442 582h-320v118h320v-118zM275 408l-54 -193h108z" />
    <glyph glyph-name="adieresis.sc_flat" horiz-adv-x="564" 
d="M166 0h-163l168 527h223l167 -527h-176l-25 92h-169zM457 577h-144v143h144v-143zM251 577h-144v143h144v-143zM275 408l-54 -193h108z" />
    <glyph glyph-name="eacute.sc_flat" 
d="M421 0h-375v525h369v-125h-202v-74h157v-123h-157v-78h208v-125zM425 695l-152 -118h-112l49 151z" />
    <glyph glyph-name="egrave.sc_flat" 
d="M421 0h-375v525h369v-125h-202v-74h157v-123h-157v-78h208v-125zM306 577h-116l-152 118l218 33z" />
    <glyph glyph-name="ecircumflex.sc_flat" 
d="M421 0h-375v525h369v-125h-202v-74h157v-123h-157v-78h208v-125zM414 577h-113l-69 53l-69 -53h-113l100 150h164z" />
    <glyph glyph-name="ecaron.sc_flat" 
d="M421 0h-375v525h369v-125h-202v-74h157v-123h-157v-78h208v-125zM51 727h113l69 -53l69 53h113l-100 -150h-164z" />
    <glyph glyph-name="ebreve.sc_flat" 
d="M421 0h-375v525h369v-125h-202v-74h157v-123h-157v-78h208v-125zM399 719c-13 -88 -68 -144 -166 -144s-153 56 -166 144l94 14c17 -41 36 -55 72 -55s55 14 72 55z" />
    <glyph glyph-name="emacron.sc_flat" 
d="M421 0h-375v525h369v-125h-202v-74h157v-123h-157v-78h208v-125zM393 582h-320v118h320v-118z" />
    <glyph glyph-name="edieresis.sc_flat" 
d="M421 0h-375v525h369v-125h-202v-74h157v-123h-157v-78h208v-125zM408 577h-144v143h144v-143zM202 577h-144v143h144v-143z" />
    <glyph glyph-name="edotaccent.sc_flat" 
d="M421 0h-375v525h369v-125h-202v-74h157v-123h-157v-78h208v-125zM308 577h-150v143h150v-143z" />
    <glyph glyph-name="gbreve.sc_flat" horiz-adv-x="526" 
d="M486 44c-56 -31 -118 -54 -206 -54c-159 0 -256 110 -256 272c0 171 113 273 271 273c61 0 115 -14 158 -34l-23 -141c-44 21 -83 34 -123 34c-73 0 -116 -48 -116 -137c0 -92 38 -137 108 -137c18 0 29 2 41 6v73h-75v109h221v-264zM441 719c-13 -88 -68 -144 -166 -144
s-153 56 -166 144l94 14c17 -41 36 -55 72 -55s55 14 72 55z" />
    <glyph glyph-name="gdotaccent.sc_flat" horiz-adv-x="526" 
d="M486 44c-56 -31 -118 -54 -206 -54c-159 0 -256 110 -256 272c0 171 113 273 271 273c61 0 115 -14 158 -34l-23 -141c-44 21 -83 34 -123 34c-73 0 -116 -48 -116 -137c0 -92 38 -137 108 -137c18 0 29 2 41 6v73h-75v109h221v-264zM350 577h-150v143h150v-143z" />
    <glyph glyph-name="gcommaaccent.sc_flat" horiz-adv-x="526" 
d="M486 44c-56 -31 -118 -54 -206 -54c-159 0 -256 110 -256 272c0 171 113 273 271 273c61 0 115 -14 158 -34l-23 -141c-44 21 -83 34 -123 34c-73 0 -116 -48 -116 -137c0 -92 38 -137 108 -137c18 0 29 2 41 6v73h-75v109h221v-264zM184 -66l140 22
c29 -24 46 -51 46 -87c0 -48 -34 -95 -96 -131l-110 21c40 43 54 70 54 102c0 22 -6 43 -34 73z" />
    <glyph glyph-name="kcommaaccent.sc_flat" horiz-adv-x="532" 
d="M535 0h-195l-124 242v-242h-170v525h170v-229l121 229h185l-146 -240zM183 -66l140 22c29 -24 46 -51 46 -87c0 -48 -34 -95 -96 -131l-110 21c40 43 54 70 54 102c0 22 -6 43 -34 73z" />
    <glyph glyph-name="lacute.sc_flat" horiz-adv-x="419" 
d="M394 0h-348v525h177v-380h171v-145zM356 695l-152 -118h-112l49 151z" />
    <glyph glyph-name="lcaron.sc_flat" horiz-adv-x="419" 
d="M394 0h-348v525h177v-380h171v-145zM404 536c6 -25 9 -49 9 -72c0 -49 -23 -101 -68 -145l-83 17c17 39 23 69 23 104c0 22 -6 50 -17 79z" />
    <glyph glyph-name="lcommaaccent.sc_flat" horiz-adv-x="419" 
d="M394 0h-348v525h177v-380h171v-145zM125 -76l140 22c29 -24 46 -51 46 -87c0 -48 -34 -95 -96 -131l-110 21c40 43 54 70 54 102c0 22 -6 43 -34 73z" />
    <glyph glyph-name="racute.sc_flat" horiz-adv-x="522" 
d="M522 0h-193l-80 144h-35v-144h-168v525h221c151 0 221 -72 221 -179c0 -67 -35 -119 -85 -149zM324 338c0 43 -30 64 -75 64h-37v-134h34c52 0 78 23 78 70zM448 695l-152 -118h-112l49 151z" />
    <glyph glyph-name="rcaron.sc_flat" horiz-adv-x="522" 
d="M522 0h-193l-80 144h-35v-144h-168v525h221c151 0 221 -72 221 -179c0 -67 -35 -119 -85 -149zM324 338c0 43 -30 64 -75 64h-37v-134h34c52 0 78 23 78 70zM74 727h113l69 -53l69 53h113l-100 -150h-164z" />
    <glyph glyph-name="rcommaaccent.sc_flat" horiz-adv-x="522" 
d="M522 0h-193l-80 144h-35v-144h-168v525h221c151 0 221 -72 221 -179c0 -67 -35 -119 -85 -149zM324 338c0 43 -30 64 -75 64h-37v-134h34c52 0 78 23 78 70zM165 -66l140 22c29 -24 46 -51 46 -87c0 -48 -34 -95 -96 -131l-110 21c40 43 54 70 54 102c0 22 -6 43 -34 73z
" />
    <glyph glyph-name="tcaron.sc_flat" horiz-adv-x="485" 
d="M463 380h-132v-380h-178v380h-131v145h441v-145zM63 727h113l69 -53l69 53h113l-100 -150h-164z" />
    <glyph glyph-name="tcommaaccent.sc_flat" horiz-adv-x="485" 
d="M463 380h-132v-380h-178v380h-131v145h441v-145zM154 -76l140 22c29 -24 46 -51 46 -87c0 -48 -34 -95 -96 -131l-110 21c40 43 54 70 54 102c0 22 -6 43 -34 73z" />
    <glyph glyph-name="wacute.sc_flat" horiz-adv-x="798" 
d="M787 525l-117 -525h-202l-67 330l-69 -330h-198l-123 525h183l60 -341l67 341h183l66 -341l52 341h165zM601 695l-152 -118h-112l49 151z" />
    <glyph glyph-name="wgrave.sc_flat" horiz-adv-x="798" 
d="M787 525l-117 -525h-202l-67 330l-69 -330h-198l-123 525h183l60 -341l67 341h183l66 -341l52 341h165zM482 577h-116l-152 118l218 33z" />
    <glyph glyph-name="wcircumflex.sc_flat" horiz-adv-x="798" 
d="M787 525l-117 -525h-202l-67 330l-69 -330h-198l-123 525h183l60 -341l67 341h183l66 -341l52 341h165zM590 577h-113l-69 53l-69 -53h-113l100 150h164z" />
    <glyph glyph-name="wdieresis.sc_flat" horiz-adv-x="798" 
d="M787 525l-117 -525h-202l-67 330l-69 -330h-198l-123 525h183l60 -341l67 341h183l66 -341l52 341h165zM584 577h-144v143h144v-143zM378 577h-144v143h144v-143z" />
    <glyph glyph-name="wacute.sc_alt_flat" horiz-adv-x="776" 
d="M771 525l-158 -527h-170l-55 181l-60 -181h-164l-159 527h182l88 -321l56 165l-47 156h181l72 -321l71 321h163zM580 695l-152 -118h-112l49 151z" />
    <glyph glyph-name="wgrave.sc_alt_flat" horiz-adv-x="776" 
d="M771 525l-158 -527h-170l-55 181l-60 -181h-164l-159 527h182l88 -321l56 165l-47 156h181l72 -321l71 321h163zM461 577h-116l-152 118l218 33z" />
    <glyph glyph-name="wcircumflex.sc_alt_flat" horiz-adv-x="776" 
d="M771 525l-158 -527h-170l-55 181l-60 -181h-164l-159 527h182l88 -321l56 165l-47 156h181l72 -321l71 321h163zM569 577h-113l-69 53l-69 -53h-113l100 150h164z" />
    <glyph glyph-name="wdieresis.sc_alt_flat" horiz-adv-x="776" 
d="M771 525l-158 -527h-170l-55 181l-60 -181h-164l-159 527h182l88 -321l56 165l-47 156h181l72 -321l71 321h163zM357 577h-144v143h144v-143zM563 577h-144v143h144v-143z" />
    <glyph glyph-name="yacute.sc_flat" horiz-adv-x="536" 
d="M538 525l-181 -338v-187h-178v180l-181 345h191l87 -184l85 184h177zM468 695l-152 -118h-112l49 151z" />
    <glyph glyph-name="ygrave.sc_flat" horiz-adv-x="536" 
d="M538 525l-181 -338v-187h-178v180l-181 345h191l87 -184l85 184h177zM349 577h-116l-152 118l218 33z" />
    <glyph glyph-name="ycircumflex.sc_flat" horiz-adv-x="536" 
d="M538 525l-181 -338v-187h-178v180l-181 345h191l87 -184l85 184h177zM457 577h-113l-69 53l-69 -53h-113l100 150h164z" />
    <glyph glyph-name="ydieresis.sc_flat" horiz-adv-x="536" 
d="M538 525l-181 -338v-187h-178v180l-181 345h191l87 -184l85 184h177zM451 577h-144v143h144v-143zM245 577h-144v143h144v-143z" />
    <glyph glyph-name="zacute.sc_flat" horiz-adv-x="479" 
d="M449 0h-421v112l219 288h-202v125h404v-112l-218 -289h218v-124zM439 695l-152 -118h-112l49 151z" />
    <glyph glyph-name="zcaron.sc_flat" horiz-adv-x="479" 
d="M449 0h-421v112l219 288h-202v125h404v-112l-218 -289h218v-124zM65 727h113l69 -53l69 53h113l-100 -150h-164z" />
    <glyph glyph-name="zdotaccent.sc_flat" horiz-adv-x="479" 
d="M449 0h-421v112l219 288h-202v125h404v-112l-218 -289h218v-124zM322 577h-150v143h150v-143z" />
    <glyph glyph-name="aeacute.sc_flat" horiz-adv-x="740" 
d="M229 525h475v-125h-202v-74h157v-123h-157v-78h208v-125h-375v92h-121l-35 -92h-183zM592 695l-152 -118h-112l49 151zM257 214h78v207z" />
    <glyph glyph-name="one.sup_flat" horiz-adv-x="360" 
d="M324 403h-276v97h83v174l-76 -30l-14 97l123 49h94v-290h66v-97z" />
    <glyph glyph-name="two.sup_flat" horiz-adv-x="360" 
d="M324 403h-288v92l127 117c18 16 29 28 29 47c0 17 -13 26 -34 26c-32 0 -67 -17 -101 -37l-15 104c38 22 83 39 144 39c87 0 136 -46 136 -110c0 -58 -35 -91 -80 -131l-51 -45h133v-102z" />
    <glyph glyph-name="three.sup_flat" horiz-adv-x="360" 
d="M331 509c0 -72 -69 -113 -162 -113c-53 0 -104 11 -141 29l18 95c32 -16 78 -26 112 -26c31 0 49 12 49 30c0 21 -18 30 -70 30h-42v79h42c51 0 62 16 62 32c0 15 -12 26 -42 26c-31 0 -75 -12 -103 -28l-19 94c37 18 82 34 142 34c91 0 148 -39 148 -103
c0 -45 -32 -74 -75 -87c52 -13 81 -45 81 -92z" />
    <glyph glyph-name="onehalf.flat" horiz-adv-x="810" 
d="M324 303h-276v97h83v174l-76 -30l-14 97l123 49h94v-290h66v-97zM774 0h-288v92l127 117c18 16 29 28 29 47c0 17 -13 26 -34 26c-32 0 -67 -17 -101 -37l-15 104c38 22 83 39 144 39c87 0 136 -46 136 -110c0 -58 -35 -91 -80 -131l-51 -45h133v-102zM239 -17l-70 18
l218 342l204 341l70 -18l-219 -343z" />
    <glyph glyph-name="onequarter.flat" horiz-adv-x="810" 
d="M780 68h-45v-70h-122v70h-156v77l131 238h147v-232h45v-83zM626 147v48l8 101h-7l-31 -74l-19 -34l-28 -41l3 -5l39 5h35zM324 303h-276v97h83v174l-76 -30l-14 97l123 49h94v-290h66v-97zM254 -17l-70 18l218 342l204 341l70 -18l-219 -343z" />
    <glyph glyph-name="threequarters.flat" horiz-adv-x="810" 
d="M780 68h-45v-70h-122v70h-156v77l131 238h147v-232h45v-83zM626 147v48l8 101h-7l-31 -74l-19 -34l-28 -41l3 -5l39 5h35zM331 409c0 -72 -69 -113 -162 -113c-53 0 -104 11 -141 29l18 95c32 -16 78 -26 112 -26c31 0 49 12 49 30c0 21 -18 30 -70 30h-42v79h42
c51 0 62 16 62 32c0 15 -12 26 -42 26c-31 0 -75 -12 -103 -28l-19 94c37 18 82 34 142 34c91 0 148 -39 148 -103c0 -45 -32 -74 -75 -87c52 -13 81 -45 81 -92zM244 -17l-70 18l218 342l204 341l70 -18l-219 -343z" />
    <glyph glyph-name="A.sc" horiz-adv-x="557" 
d="M166 0h-163l168 527h223l160 -505l-167 -29l-27 99h-169zM275 408l-54 -193h108z" />
    <glyph glyph-name="B.sc" horiz-adv-x="515" 
d="M494 150c0 -109 -94 -150 -230 -150h-218v525h230c117 0 199 -37 199 -139c0 -57 -33 -93 -73 -112c55 -20 92 -59 92 -124zM321 363c0 36 -27 53 -61 53h-50v-107h47c38 0 64 18 64 54zM326 163c0 36 -22 56 -68 56h-48v-111h49c39 0 67 19 67 55z" />
    <glyph glyph-name="C.sc" horiz-adv-x="459" 
d="M434 24c-42 -21 -93 -33 -144 -33c-161 0 -266 96 -266 271c0 172 116 272 259 272c61 0 106 -11 143 -30l-21 -147c-25 19 -62 33 -96 33c-59 0 -109 -36 -109 -128s53 -128 111 -128c35 0 69 9 103 27z" />
    <glyph glyph-name="D.sc" horiz-adv-x="544" 
d="M520 263c0 -156 -100 -263 -268 -263h-206v525h201c182 0 273 -101 273 -262zM344 262c0 89 -35 132 -103 132h-25v-263h26c63 0 102 41 102 131z" />
    <glyph glyph-name="E.sc" 
d="M421 0h-375v525h369v-125h-202v-74h148l18 -123h-166v-78h208v-125z" />
    <glyph glyph-name="F.sc" horiz-adv-x="432" 
d="M409 397h-196v-84h143l19 -129h-162v-184h-167v525h363v-128z" />
    <glyph glyph-name="G.sc" horiz-adv-x="526" 
d="M486 44c-56 -31 -118 -54 -206 -54c-159 0 -256 110 -256 272c0 171 113 273 271 273c61 0 115 -14 158 -34l-23 -141c-44 21 -83 34 -123 34c-73 0 -116 -48 -116 -137c0 -92 38 -137 108 -137c18 0 29 2 41 6v73h-67l-16 109h229v-264z" />
    <glyph glyph-name="H.sc" horiz-adv-x="557" 
d="M511 0h-170v196h-125v-196h-170v525h170v-185h125v185h170v-525z" />
    <glyph glyph-name="I.sc" horiz-adv-x="267" 
d="M218 0h-169v525h169v-525z" />
    <glyph glyph-name="J.sc" horiz-adv-x="362" 
d="M321 193c0 -136 -80 -198 -190 -198c-48 0 -81 4 -97 7l-21 138c16 -4 42 -7 65 -7c37 0 65 15 65 76v316h178v-332z" />
    <glyph glyph-name="K.sc" horiz-adv-x="527" 
d="M524 20l-180 -27l-128 249v-242h-170v525h170v-229l121 229h185l-146 -240z" />
    <glyph glyph-name="L.sc" horiz-adv-x="415" 
d="M399 0h-353v525h177v-380h155z" />
    <glyph glyph-name="M.sc" horiz-adv-x="747" 
d="M710 0h-166l-17 367l-81 -367h-168l-82 367l-16 -367h-143l31 525h232l72 -308l72 308h234z" />
    <glyph glyph-name="M.sc_alt" horiz-adv-x="716" 
d="M670 0h-160v301l-88 -303h-150l-88 303v-301h-138v525h218l97 -328l98 328h211v-525z" />
    <glyph glyph-name="N.sc" horiz-adv-x="558" 
d="M512 0h-143l-170 271v-271h-153v525h158l155 -248v248h153v-525z" />
    <glyph glyph-name="O.sc" horiz-adv-x="550" 
d="M526 263c0 -162 -105 -273 -252 -273c-145 0 -250 110 -250 272s105 273 251 273s251 -110 251 -272zM355 262c0 79 -26 138 -80 138s-81 -59 -81 -138s27 -138 81 -138c55 0 80 59 80 138z" />
    <glyph glyph-name="P.sc" horiz-adv-x="492" 
d="M474 339c0 -123 -84 -198 -236 -198h-23v-141h-169v525h197c143 0 231 -63 231 -186zM318 333c0 42 -24 71 -81 71h-23v-144h25c57 0 79 30 79 73z" />
    <glyph glyph-name="Q.sc" horiz-adv-x="555" 
d="M526 275c0 -105 -45 -172 -98 -212l108 -34l-29 -143l-251 90c-147 53 -232 124 -232 286s105 273 256 273c141 0 246 -103 246 -260zM355 262c0 79 -26 138 -80 138s-81 -59 -81 -138s27 -138 81 -138c55 0 80 59 80 138z" />
    <glyph glyph-name="Q.sc_alt" horiz-adv-x="571" 
d="M561 119l-26 -129l-89 66c-44 -42 -104 -66 -172 -66c-145 0 -250 110 -250 272s105 273 251 273s251 -110 251 -272c0 -40 -6 -76 -18 -109zM277 400c-55 0 -83 -60 -83 -140s28 -140 83 -140c21 0 37 8 50 23l-106 78l138 29v10c0 80 -27 140 -82 140z" />
    <glyph glyph-name="R.sc" horiz-adv-x="518" 
d="M511 19l-176 -29l-86 154h-35v-144h-168v525h221c151 0 221 -72 221 -179c0 -67 -35 -119 -85 -149zM324 338c0 43 -30 64 -75 64h-37v-134h34c52 0 78 23 78 70z" />
    <glyph glyph-name="S.sc" horiz-adv-x="469" 
d="M446 167c0 -108 -83 -175 -212 -175c-80 0 -156 18 -211 38l25 133c56 -21 133 -43 185 -43c45 0 58 11 58 29s-12 28 -57 40c-124 33 -194 66 -194 173c0 104 80 171 198 171c80 0 144 -19 183 -36l-23 -129c-46 19 -109 37 -158 37c-33 0 -47 -13 -47 -29
c0 -19 11 -28 58 -41c140 -38 195 -71 195 -168z" />
    <glyph glyph-name="T.sc" horiz-adv-x="482" 
d="M473 380h-142v-380h-178v380h-131v145h430z" />
    <glyph glyph-name="U.sc" horiz-adv-x="542" 
d="M499 207c0 -145 -86 -217 -230 -217s-226 72 -226 217v318h168v-322c0 -45 12 -74 59 -74s60 29 60 74v322h169v-318z" />
    <glyph glyph-name="U.sc_alt" horiz-adv-x="546" 
d="M500 0h-146l-7 45c-39 -36 -91 -55 -147 -55c-99 0 -156 60 -156 190v345h169v-327c0 -48 19 -67 56 -67c24 0 46 11 62 22v372h169v-525z" />
    <glyph glyph-name="V.sc" horiz-adv-x="548" 
d="M543 525l-167 -527h-211l-160 506l180 28l95 -361l90 354h173z" />
    <glyph glyph-name="W.sc" horiz-adv-x="793" 
d="M782 525l-117 -525h-202l-67 330l-69 -330h-198l-118 503l177 29l61 -348l67 341h183l66 -341l52 341h165z" />
    <glyph glyph-name="W.sc_alt" horiz-adv-x="770" 
d="M765 525l-158 -527h-170l-55 180l-60 -180h-164l-153 506l175 28l90 -328l55 164l-41 136l173 28l74 -328l71 321h163z" />
    <glyph glyph-name="X.sc" horiz-adv-x="528" 
d="M182 0h-180l151 261l-138 243l176 28l76 -149l72 142h180l-148 -253l145 -251l-176 -28l-82 159z" />
    <glyph glyph-name="Y.sc" horiz-adv-x="528" 
d="M530 525l-181 -338v-187h-178v180l-173 329l180 22l90 -190l85 184h177z" />
    <glyph glyph-name="Z.sc" horiz-adv-x="479" 
d="M456 0h-428v112l219 288h-190l-18 125h410v-112l-218 -289h207z" />
    <glyph glyph-name="Aacute.sc" horiz-adv-x="557" 
d="M166 0h-163l168 527h223l160 -505l-167 -29l-27 99h-169zM474 695l-152 -118h-112l49 151zM275 408l-54 -193h108z" />
    <glyph glyph-name="Abreve.sc" horiz-adv-x="557" 
d="M166 0h-163l168 527h223l160 -505l-167 -29l-27 99h-169zM448 719c-13 -88 -68 -144 -166 -144s-153 56 -166 144l94 14c17 -41 36 -55 72 -55s55 14 72 55zM275 408l-54 -193h108z" />
    <glyph glyph-name="Acircumflex.sc" horiz-adv-x="557" 
d="M166 0h-163l168 527h223l160 -505l-167 -29l-27 99h-169zM463 577h-113l-69 53l-69 -53h-113l100 150h164zM275 408l-54 -193h108z" />
    <glyph glyph-name="Adieresis.sc" horiz-adv-x="557" 
d="M166 0h-163l168 527h223l160 -505l-167 -29l-27 99h-169zM457 577h-144v143h144v-143zM251 577h-144v143h144v-143zM275 408l-54 -193h108z" />
    <glyph glyph-name="AE.sc" horiz-adv-x="740" 
d="M229 525h475v-125h-202v-74h148l18 -123h-166v-78h208v-125h-375v92h-121l-35 -92h-183zM257 214h78v207z" />
    <glyph glyph-name="AEacute.sc" horiz-adv-x="740" 
d="M229 525h475v-125h-202v-74h148l18 -123h-166v-78h208v-125h-375v92h-121l-35 -92h-183zM592 695l-152 -118h-112l49 151zM257 214h78v207z" />
    <glyph glyph-name="Agrave.sc" horiz-adv-x="557" 
d="M166 0h-163l168 527h223l160 -505l-167 -29l-27 99h-169zM355 577h-116l-152 118l218 33zM275 408l-54 -193h108z" />
    <glyph glyph-name="Amacron.sc" horiz-adv-x="557" 
d="M166 0h-163l168 527h223l160 -505l-167 -29l-27 99h-169zM442 582h-320v118h320v-118zM275 408l-54 -193h108z" />
    <glyph glyph-name="Aogonek.sc" horiz-adv-x="557" 
d="M166 0h-163l168 527h223l160 -505l-23 -4l-25 -43c-15 -26 -21 -39 -21 -55c0 -19 12 -29 34 -29c15 0 27 3 42 8v-83c-34 -15 -74 -26 -116 -26c-60 0 -96 29 -96 84c0 32 14 67 53 122l-15 -3l-27 99h-169zM275 408l-54 -193h108z" />
    <glyph glyph-name="Aring.sc" horiz-adv-x="557" 
d="M422 569c0 -24 -7 -45 -22 -63l154 -484l-167 -29l-27 99h-169l-25 -92h-163l159 498c-19 19 -28 44 -28 71c0 59 46 110 144 110s144 -51 144 -110zM275 408l-54 -193h108zM325 569c0 30 -18 57 -47 57s-47 -27 -47 -57c0 -31 18 -57 47 -57s47 26 47 57z" />
    <glyph glyph-name="Aringacute.sc" horiz-adv-x="557" 
d="M422 569c0 -24 -7 -45 -22 -63l154 -484l-167 -29l-27 99h-169l-25 -92h-163l159 498c-19 19 -28 44 -28 71c0 59 46 110 144 110s144 -51 144 -110zM470 828l-152 -118h-112l49 151zM275 408l-54 -193h108zM325 569c0 30 -18 57 -47 57s-47 -27 -47 -57
c0 -31 18 -57 47 -57s47 26 47 57z" />
    <glyph glyph-name="Atilde.sc" horiz-adv-x="557" 
d="M166 0h-163l168 527h223l160 -505l-167 -29l-27 99h-169zM458 726c-15 -115 -49 -150 -101 -150c-26 0 -43 7 -71 18c-38 15 -50 20 -65 20s-24 -9 -32 -42l-77 17c15 116 49 151 101 151c26 0 43 -6 71 -18c38 -16 50 -20 65 -20s24 9 32 42zM275 408l-54 -193h108z" />
    <glyph glyph-name="Cacute.sc" horiz-adv-x="459" 
d="M434 24c-42 -21 -93 -33 -144 -33c-161 0 -266 96 -266 271c0 172 108 272 266 272c53 0 99 -11 136 -30l-21 -147c-26 19 -58 33 -94 33c-65 0 -111 -42 -111 -128c0 -89 53 -128 111 -128c35 0 69 9 103 27zM458 695l-152 -118h-112l49 151z" />
    <glyph glyph-name="Ccaron.sc" horiz-adv-x="459" 
d="M434 24c-42 -21 -93 -33 -144 -33c-161 0 -266 96 -266 271c0 172 108 272 266 272c53 0 99 -11 136 -30l-21 -147c-26 19 -58 33 -94 33c-65 0 -111 -42 -111 -128c0 -89 53 -128 111 -128c35 0 69 9 103 27zM84 727h113l69 -53l69 53h113l-100 -150h-164z" />
    <glyph glyph-name="Ccedilla.sc" horiz-adv-x="459" 
d="M434 24c-42 -21 -93 -33 -144 -33c-161 0 -266 96 -266 271c0 172 108 272 266 272c53 0 99 -11 136 -30l-21 -147c-26 19 -58 33 -94 33c-65 0 -111 -42 -111 -128c0 -89 53 -128 111 -128c35 0 69 9 103 27zM386 -77l-147 -105h-113l45 138z" />
    <glyph glyph-name="Cdotaccent.sc" horiz-adv-x="459" 
d="M434 24c-42 -21 -93 -33 -144 -33c-161 0 -266 96 -266 271c0 172 108 272 266 272c53 0 99 -11 136 -30l-21 -147c-26 19 -58 33 -94 33c-65 0 -111 -42 -111 -128c0 -89 53 -128 111 -128c35 0 69 9 103 27zM341 577h-150v143h150v-143z" />
    <glyph glyph-name="Dcaron.sc" horiz-adv-x="544" 
d="M520 263c0 -156 -100 -263 -268 -263h-206v525h201c182 0 273 -101 273 -262zM344 262c0 89 -35 132 -103 132h-25v-263h26c63 0 102 41 102 131zM82 727h113l69 -53l69 53h113l-100 -150h-164z" />
    <glyph glyph-name="Dcroat.sc" horiz-adv-x="580" 
d="M26 193l-26 140h82v192h201c182 0 273 -101 273 -262c0 -156 -100 -263 -268 -263h-206v193h-56zM383 262c0 89 -35 132 -103 132h-32v-66h67v-130h-67v-67h32c64 0 103 41 103 131z" />
    <glyph glyph-name="Eacute.sc" 
d="M421 0h-375v525h369v-125h-202v-74h148l18 -123h-166v-78h208v-125zM425 695l-152 -118h-112l49 151z" />
    <glyph glyph-name="Ebreve.sc" 
d="M421 0h-375v525h369v-125h-202v-74h148l18 -123h-166v-78h208v-125zM399 719c-13 -88 -68 -144 -166 -144s-153 56 -166 144l94 14c17 -41 36 -55 72 -55s55 14 72 55z" />
    <glyph glyph-name="Ecaron.sc" 
d="M421 0h-375v525h369v-125h-202v-74h148l18 -123h-166v-78h208v-125zM51 727h113l69 -53l69 53h113l-100 -150h-164z" />
    <glyph glyph-name="Ecircumflex.sc" 
d="M421 0h-375v525h369v-125h-202v-74h148l18 -123h-166v-78h208v-125zM414 577h-113l-69 53l-69 -53h-113l100 150h164z" />
    <glyph glyph-name="Edieresis.sc" 
d="M421 0h-375v525h369v-125h-202v-74h148l18 -123h-166v-78h208v-125zM408 577h-144v143h144v-143zM202 577h-144v143h144v-143z" />
    <glyph glyph-name="Edotaccent.sc" 
d="M421 0h-375v525h369v-125h-202v-74h148l18 -123h-166v-78h208v-125zM308 577h-150v143h150v-143z" />
    <glyph glyph-name="Egrave.sc" 
d="M421 0h-375v525h369v-125h-202v-74h148l18 -123h-166v-78h208v-125zM306 577h-116l-152 118l218 33z" />
    <glyph glyph-name="Emacron.sc" 
d="M421 0h-375v525h369v-125h-202v-74h148l18 -123h-166v-78h208v-125zM393 582h-320v118h320v-118z" />
    <glyph glyph-name="Eogonek.sc" 
d="M421 0h-38l-14 -25c-15 -26 -21 -39 -21 -55c0 -19 12 -29 34 -29c15 0 27 3 42 8v-83c-34 -15 -74 -26 -116 -26c-60 0 -96 29 -96 84c0 32 15 69 56 126h-222v525h369v-125h-202v-74h148l18 -123h-166v-78h208v-125z" />
    <glyph glyph-name="Eth.sc" horiz-adv-x="580" 
d="M26 193l-26 140h82v192h201c182 0 273 -101 273 -262c0 -156 -100 -263 -268 -263h-206v193h-56zM383 262c0 89 -35 132 -103 132h-32v-66h67v-130h-67v-67h32c64 0 103 41 103 131z" />
    <glyph glyph-name="Gbreve.sc" horiz-adv-x="526" 
d="M486 44c-56 -31 -118 -54 -206 -54c-159 0 -256 110 -256 272c0 171 113 273 271 273c61 0 115 -14 158 -34l-23 -141c-44 21 -83 34 -123 34c-73 0 -116 -48 -116 -137c0 -92 38 -137 108 -137c18 0 29 2 41 6v73h-67l-16 109h229v-264zM441 719
c-13 -88 -68 -144 -166 -144s-153 56 -166 144l94 14c17 -41 36 -55 72 -55s55 14 72 55z" />
    <glyph glyph-name="Gcommaaccent.sc" horiz-adv-x="526" 
d="M486 44c-56 -31 -118 -54 -206 -54c-159 0 -256 110 -256 272c0 171 113 273 271 273c61 0 115 -14 158 -34l-23 -141c-44 21 -83 34 -123 34c-73 0 -116 -48 -116 -137c0 -92 38 -137 108 -137c18 0 29 2 41 6v73h-67l-16 109h229v-264zM184 -66l140 22
c29 -24 46 -51 46 -87c0 -48 -34 -95 -96 -131l-110 21c40 43 54 70 54 102c0 22 -6 43 -34 73z" />
    <glyph glyph-name="Gdotaccent.sc" horiz-adv-x="526" 
d="M486 44c-56 -31 -118 -54 -206 -54c-159 0 -256 110 -256 272c0 171 113 273 271 273c61 0 115 -14 158 -34l-23 -141c-44 21 -83 34 -123 34c-73 0 -116 -48 -116 -137c0 -92 38 -137 108 -137c18 0 29 2 41 6v73h-67l-16 109h229v-264zM350 577h-150v143h150v-143z" />
    <glyph glyph-name="Hbar.sc" horiz-adv-x="591" 
d="M528 0h-170v186h-125v-186h-170v361h-47l-19 120h66v44h168v-44h129v44h168v-44h60v-120h-60v-361zM231 318h129v58h-129v-58z" />
    <glyph glyph-name="Iacute.sc" horiz-adv-x="267" 
d="M218 0h-169v525h169v-525zM325 695l-152 -118h-112l49 151z" />
    <glyph glyph-name="Ibreve.sc" horiz-adv-x="267" 
d="M218 0h-169v525h169v-525zM299 719c-13 -88 -68 -144 -166 -144s-153 56 -166 144l94 14c17 -41 36 -55 72 -55s55 14 72 55z" />
    <glyph glyph-name="Icircumflex.sc" horiz-adv-x="267" 
d="M218 0h-169v525h169v-525zM314 577h-113l-69 53l-69 -53h-113l100 150h164z" />
    <glyph glyph-name="Idieresis.sc" horiz-adv-x="267" 
d="M218 0h-169v525h169v-525zM308 577h-144v143h144v-143zM102 577h-144v143h144v-143z" />
    <glyph glyph-name="Idotaccent.sc" horiz-adv-x="267" 
d="M218 0h-169v525h169v-525zM208 577h-150v143h150v-143z" />
    <glyph glyph-name="Igrave.sc" horiz-adv-x="267" 
d="M218 0h-169v525h169v-525zM206 577h-116l-152 118l218 33z" />
    <glyph glyph-name="Imacron.sc" horiz-adv-x="267" 
d="M218 0h-169v525h169v-525zM293 582h-320v118h320v-118z" />
    <glyph glyph-name="Iogonek.sc" horiz-adv-x="267" 
d="M218 0h-25l-14 -25c-15 -26 -21 -39 -21 -55c0 -19 12 -29 34 -29c15 0 27 3 42 8v-83c-34 -15 -74 -26 -116 -26c-60 0 -96 29 -96 84c0 32 15 69 56 126h-29v525h169v-525z" />
    <glyph glyph-name="Kcommaaccent.sc" horiz-adv-x="527" 
d="M524 20l-180 -27l-128 249v-242h-170v525h170v-229l121 229h185l-146 -240zM183 -66l140 22c29 -24 46 -51 46 -87c0 -48 -34 -95 -96 -131l-110 21c40 43 54 70 54 102c0 22 -6 43 -34 73z" />
    <glyph glyph-name="Lacute.sc" horiz-adv-x="415" 
d="M399 0h-353v525h177v-380h155zM356 695l-152 -118h-112l49 151z" />
    <glyph glyph-name="Lcaron.sc" horiz-adv-x="441" 
d="M399 0h-353v525h177v-380h155zM404 536c6 -25 9 -49 9 -72c0 -49 -23 -101 -68 -145l-83 17c17 39 23 69 23 104c0 22 -6 50 -17 79z" />
    <glyph glyph-name="Lcommaaccent.sc" horiz-adv-x="415" 
d="M399 0h-353v525h177v-380h155zM125 -76l140 22c29 -24 46 -51 46 -87c0 -48 -34 -95 -96 -131l-110 21c40 43 54 70 54 102c0 22 -6 43 -34 73z" />
    <glyph glyph-name="Ldot.sc" horiz-adv-x="421" 
d="M410 234h-127v137h127v-137zM399 0h-353v525h177v-380h155z" />
    <glyph glyph-name="Lslash.sc" 
d="M362 297l-105 -53v-99h157l21 -145h-353v152l-62 -33l-20 130l82 41v235h175v-144l105 57v-141z" />
    <glyph glyph-name="Nacute.sc" horiz-adv-x="558" 
d="M512 0h-143l-170 271v-271h-153v525h158l155 -248v248h153v-525zM471 695l-152 -118h-112l49 151z" />
    <glyph glyph-name="Ncaron.sc" horiz-adv-x="558" 
d="M512 0h-143l-170 271v-271h-153v525h158l155 -248v248h153v-525zM97 727h113l69 -53l69 53h113l-100 -150h-164z" />
    <glyph glyph-name="Ncommaaccent.sc" horiz-adv-x="558" 
d="M512 0h-143l-170 271v-271h-153v525h158l155 -248v248h153v-525zM188 -66l140 22c29 -24 46 -51 46 -87c0 -48 -34 -95 -96 -131l-110 21c40 43 54 70 54 102c0 22 -6 43 -34 73z" />
    <glyph glyph-name="Ntilde.sc" horiz-adv-x="558" 
d="M512 0h-143l-170 271v-271h-153v525h158l155 -248v248h153v-525zM455 726c-15 -115 -49 -150 -101 -150c-26 0 -43 7 -71 18c-38 15 -50 20 -65 20s-24 -9 -32 -42l-77 17c15 116 49 151 101 151c26 0 43 -6 71 -18c38 -16 50 -20 65 -20s24 9 32 42z" />
    <glyph glyph-name="Oacute.sc" horiz-adv-x="550" 
d="M526 263c0 -162 -105 -273 -252 -273c-145 0 -250 110 -250 272s105 273 251 273s251 -110 251 -272zM355 262c0 79 -26 138 -80 138s-81 -59 -81 -138s27 -138 81 -138c55 0 80 59 80 138zM468 695l-152 -118h-112l49 151z" />
    <glyph glyph-name="Obreve.sc" horiz-adv-x="550" 
d="M526 263c0 -162 -105 -273 -252 -273c-145 0 -250 110 -250 272s105 273 251 273s251 -110 251 -272zM355 262c0 79 -26 138 -80 138s-81 -59 -81 -138s27 -138 81 -138c55 0 80 59 80 138zM442 719c-13 -88 -68 -144 -166 -144s-153 56 -166 144l94 14
c17 -41 36 -55 72 -55s55 14 72 55z" />
    <glyph glyph-name="Ocircumflex.sc" horiz-adv-x="550" 
d="M526 263c0 -162 -105 -273 -252 -273c-145 0 -250 110 -250 272s105 273 251 273s251 -110 251 -272zM355 262c0 79 -26 138 -80 138s-81 -59 -81 -138s27 -138 81 -138c55 0 80 59 80 138zM457 577h-113l-69 53l-69 -53h-113l100 150h164z" />
    </font>
</defs>
</svg>
