<?xml version="1.0" encoding="UTF-8" standalone="no"?>
<svg width="618px" height="154px" viewBox="0 0 618 154" version="1.1" xmlns="http://www.w3.org/2000/svg" xmlns:xlink="http://www.w3.org/1999/xlink">
    <!-- Generator: Sketch 46.2 (44496) - http://www.bohemiancoding.com/sketch -->
    <title>Wordmark</title>
    <desc>Created with Sketch.</desc>
    <defs></defs>
    <g id="Page-1" stroke="none" stroke-width="1" fill="none" fill-rule="evenodd">
        <g id="Home" transform="translate(-39.000000, -94.000000)" fill="#FEFEFE">
            <g id="Wordmark" transform="translate(38.000000, 94.000000)">
                <path d="M15.9517,143.4645 L24.3497,143.4645 L34.2517,114.7615 L44.1527,143.4645 L52.5507,143.4645 L67.5287,99.2825 L57.4387,99.2825 L48.3517,128.9875 L38.5127,99.1575 L30.2407,99.1575 L20.4017,128.9875 L11.3137,99.2825 L0.9737,99.2825 L15.9517,143.4645 Z M78.8097,143.7775 C83.4467,143.7775 86.6427,142.0855 88.9617,139.5165 L88.9617,143.1515 L98.1747,143.1515 L98.1747,123.6605 C98.1747,119.1485 97.0467,115.4515 94.5397,112.9445 C92.1577,110.5625 88.3977,109.1845 83.1967,109.1845 C77.4937,109.1845 73.8587,110.2495 70.1607,111.8795 L72.5427,119.1485 C75.6137,118.0205 78.1827,117.3315 81.8177,117.3315 C86.5807,117.3315 89.0247,119.5245 89.0247,123.4725 L89.0247,124.0365 C86.6427,123.2225 84.1987,122.6585 80.8147,122.6585 C72.8557,122.6585 67.2787,126.0425 67.2787,133.3745 L67.2787,133.5005 C67.2787,140.1435 72.4797,143.7775 78.8097,143.7775 L78.8097,143.7775 Z M81.6927,137.1975 C78.6217,137.1975 76.4907,135.6935 76.4907,133.1245 L76.4907,132.9985 C76.4907,129.9905 78.9977,128.3615 83.0707,128.3615 C85.3897,128.3615 87.5207,128.8625 89.1497,129.6145 L89.1497,131.3065 C89.1497,134.7535 86.1417,137.1975 81.6927,137.1975 L81.6927,137.1975 Z M117.4147,143.7155 C120.6107,143.7155 122.9287,142.9635 124.9347,141.7725 L124.9347,134.1265 C123.5557,134.8785 121.9887,135.3175 120.2347,135.3175 C118.1037,135.3175 117.1637,134.2525 117.1637,132.0585 L117.1637,117.7075 L125.0597,117.7075 L125.0597,109.5605 L117.1637,109.5605 L117.1637,100.9745 L107.6377,100.9745 L107.6377,109.5605 L103.6267,109.5605 L103.6267,117.7075 L107.6377,117.7075 L107.6377,133.6255 C107.6377,141.3965 111.5857,143.7155 117.4147,143.7155 L117.4147,143.7155 Z M147.0567,143.9035 C153.1357,143.9035 157.6477,141.5215 160.7817,137.6365 L155.3287,132.8105 C152.6967,135.2545 150.3777,136.2575 147.1817,136.2575 C142.9207,136.2575 139.9127,134.0015 138.9717,129.6775 L162.3477,129.6775 C162.4107,128.7995 162.4737,127.9225 162.4737,127.1705 C162.4737,117.6445 157.3347,108.9335 146.1167,108.9335 C136.3397,108.9335 129.5087,116.8295 129.5087,126.4185 L129.5087,126.5435 C129.5087,136.8215 136.9667,143.9035 147.0567,143.9035 L147.0567,143.9035 Z M138.8467,123.7235 C139.5987,119.3995 142.1687,116.5795 146.1167,116.5795 C150.1277,116.5795 152.6337,119.4625 153.1977,123.7235 L138.8467,123.7235 Z M169.5547,143.1515 L179.0797,143.1515 L179.0797,130.7425 C179.0797,122.7205 182.9657,118.8985 189.2957,118.8985 L189.7967,118.8985 L189.7967,108.9335 C184.1567,108.6825 181.0227,111.6915 179.0797,116.3285 L179.0797,109.5605 L169.5547,109.5605 L169.5547,143.1515 Z M215.5527,143.1515 L225.0157,143.1515 L225.0157,114.6995 L237.2367,133.2495 L237.4877,133.2495 L249.8337,114.5115 L249.8337,143.1515 L259.4217,143.1515 L259.4217,99.2825 L249.0187,99.2825 L237.4877,117.8325 L225.9567,99.2825 L215.5527,99.2825 L215.5527,143.1515 Z M278.4727,143.7775 C283.1107,143.7775 286.3067,142.0855 288.6257,139.5165 L288.6257,143.1515 L297.8377,143.1515 L297.8377,123.6605 C297.8377,119.1485 296.7097,115.4515 294.2027,112.9445 C291.8217,110.5625 288.0617,109.1845 282.8597,109.1845 C277.1567,109.1845 273.5227,110.2495 269.8247,111.8795 L272.2057,119.1485 C275.2767,118.0205 277.8467,117.3315 281.4817,117.3315 C286.2437,117.3315 288.6887,119.5245 288.6887,123.4725 L288.6887,124.0365 C286.3067,123.2225 283.8627,122.6585 280.4787,122.6585 C272.5197,122.6585 266.9417,126.0425 266.9417,133.3745 L266.9417,133.5005 C266.9417,140.1435 272.1437,143.7775 278.4727,143.7775 L278.4727,143.7775 Z M281.3557,137.1975 C278.2847,137.1975 276.1547,135.6935 276.1547,133.1245 L276.1547,132.9985 C276.1547,129.9905 278.6607,128.3615 282.7347,128.3615 C285.0537,128.3615 287.1837,128.8625 288.8137,129.6145 L288.8137,131.3065 C288.8137,134.7535 285.8057,137.1975 281.3557,137.1975 L281.3557,137.1975 Z M306.0477,143.1515 L315.5737,143.1515 L315.5737,124.4125 C315.5737,119.9005 317.8917,117.5815 321.5267,117.5815 C325.1617,117.5815 327.2927,119.9005 327.2927,124.4125 L327.2927,143.1515 L336.8177,143.1515 L336.8177,121.4045 C336.8177,113.6965 332.6197,108.9335 325.4127,108.9335 C320.5867,108.9335 317.7667,111.5035 315.5737,114.3235 L315.5737,109.5605 L306.0477,109.5605 L306.0477,143.1515 Z M354.6157,143.7775 C359.2527,143.7775 362.4487,142.0855 364.7677,139.5165 L364.7677,143.1515 L373.9807,143.1515 L373.9807,123.6605 C373.9807,119.1485 372.8527,115.4515 370.3457,112.9445 C367.9637,110.5625 364.2037,109.1845 359.0027,109.1845 C353.2997,109.1845 349.6647,110.2495 345.9667,111.8795 L348.3487,119.1485 C351.4197,118.0205 353.9887,117.3315 357.6237,117.3315 C362.3867,117.3315 364.8307,119.5245 364.8307,123.4725 L364.8307,124.0365 C362.4487,123.2225 360.0047,122.6585 356.6207,122.6585 C348.6617,122.6585 343.0847,126.0425 343.0847,133.3745 L343.0847,133.5005 C343.0847,140.1435 348.2857,143.7775 354.6157,143.7775 L354.6157,143.7775 Z M357.4987,137.1975 C354.4277,137.1975 352.2967,135.6935 352.2967,133.1245 L352.2967,132.9985 C352.2967,129.9905 354.8037,128.3615 358.8767,128.3615 C361.1957,128.3615 363.3267,128.8625 364.9557,129.6145 L364.9557,131.3065 C364.9557,134.7535 361.9477,137.1975 357.4987,137.1975 L357.4987,137.1975 Z M397.2307,153.3035 C403.7477,153.3035 408.5737,151.9245 411.7067,148.7915 C414.5277,145.9715 415.9687,141.5845 415.9687,135.5685 L415.9687,109.5605 L406.4427,109.5605 L406.4427,113.9475 C403.8737,111.1265 400.8027,108.9335 395.6007,108.9335 C387.8927,108.9335 380.6857,114.5735 380.6857,124.6005 L380.6857,124.7265 C380.6857,134.6905 387.7677,140.3935 395.6007,140.3935 C400.6777,140.3935 403.7477,138.3255 406.5687,134.9415 L406.5687,136.5705 C406.5687,142.5875 403.4977,145.7205 396.9797,145.7205 C392.5307,145.7205 389.0837,144.5925 385.6367,142.6495 L382.3777,149.7945 C386.6397,152.0505 391.7787,153.3035 397.2307,153.3035 L397.2307,153.3035 Z M398.3587,132.4975 C393.7207,132.4975 390.2117,129.3635 390.2117,124.7265 L390.2117,124.6005 C390.2117,120.0265 393.7207,116.8295 398.3587,116.8295 C402.9957,116.8295 406.5687,120.0265 406.5687,124.6005 L406.5687,124.7265 C406.5687,129.3015 402.9957,132.4975 398.3587,132.4975 L398.3587,132.4975 Z M440.4087,143.9035 C446.4877,143.9035 451.0007,141.5215 454.1337,137.6365 L448.6817,132.8105 C446.0497,135.2545 443.7307,136.2575 440.5347,136.2575 C436.2727,136.2575 433.2647,134.0015 432.3247,129.6775 L455.7007,129.6775 C455.7627,128.7995 455.8257,127.9225 455.8257,127.1705 C455.8257,117.6445 450.6867,108.9335 439.4687,108.9335 C429.6927,108.9335 422.8617,116.8295 422.8617,126.4185 L422.8617,126.5435 C422.8617,136.8215 430.3197,143.9035 440.4087,143.9035 L440.4087,143.9035 Z M432.1997,123.7235 C432.9517,119.3995 435.5207,116.5795 439.4687,116.5795 C443.4797,116.5795 445.9867,119.4625 446.5507,123.7235 L432.1997,123.7235 Z M462.9067,143.1515 L472.4327,143.1515 L472.4327,124.4125 C472.4327,119.9005 474.6257,117.5815 478.1987,117.5815 C481.7707,117.5815 483.7757,119.9005 483.7757,124.4125 L483.7757,143.1515 L493.3017,143.1515 L493.3017,124.4125 C493.3017,119.9005 495.4947,117.5815 499.0677,117.5815 C502.6397,117.5815 504.6447,119.9005 504.6447,124.4125 L504.6447,143.1515 L514.1707,143.1515 L514.1707,121.2795 C514.1707,113.1955 509.9087,108.9335 502.8277,108.9335 C498.2527,108.9335 494.7427,110.8135 491.7977,114.2605 C490.0427,110.8765 486.7217,108.9335 482.3347,108.9335 C477.5087,108.9335 474.6257,111.5035 472.4327,114.3235 L472.4327,109.5605 L462.9067,109.5605 L462.9067,143.1515 Z M538.3607,143.9035 C544.4397,143.9035 548.9517,141.5215 552.0857,137.6365 L546.6337,132.8105 C544.0007,135.2545 541.6827,136.2575 538.4857,136.2575 C534.2247,136.2575 531.2167,134.0015 530.2767,129.6775 L553.6527,129.6775 C553.7147,128.7995 553.7777,127.9225 553.7777,127.1705 C553.7777,117.6445 548.6387,108.9335 537.4207,108.9335 C527.6447,108.9335 520.8137,116.8295 520.8137,126.4185 L520.8137,126.5435 C520.8137,136.8215 528.2707,143.9035 538.3607,143.9035 L538.3607,143.9035 Z M530.1507,123.7235 C530.9027,119.3995 533.4727,116.5795 537.4207,116.5795 C541.4317,116.5795 543.9387,119.4625 544.5027,123.7235 L530.1507,123.7235 Z M560.8587,143.1515 L570.3847,143.1515 L570.3847,124.4125 C570.3847,119.9005 572.7027,117.5815 576.3377,117.5815 C579.9727,117.5815 582.1037,119.9005 582.1037,124.4125 L582.1037,143.1515 L591.6297,143.1515 L591.6297,121.4045 C591.6297,113.6965 587.4307,108.9335 580.2237,108.9335 C575.3977,108.9335 572.5777,111.5035 570.3847,114.3235 L570.3847,109.5605 L560.8587,109.5605 L560.8587,143.1515 Z M611.2437,143.7155 C614.4407,143.7155 616.7587,142.9635 618.7647,141.7725 L618.7647,134.1265 C617.3857,134.8785 615.8187,135.3175 614.0647,135.3175 C611.9337,135.3175 610.9937,134.2525 610.9937,132.0585 L610.9937,117.7075 L618.8897,117.7075 L618.8897,109.5605 L610.9937,109.5605 L610.9937,100.9745 L601.4677,100.9745 L601.4677,109.5605 L597.4567,109.5605 L597.4567,117.7075 L601.4677,117.7075 L601.4677,133.6255 C601.4677,141.3965 605.4157,143.7155 611.2437,143.7155 L611.2437,143.7155 Z" id="Fill-1"></path>
                <path d="M19.9625,80.9219 C29.4255,80.9219 36.0685,76.0339 36.0685,67.3229 L36.0685,67.1969 C36.0685,59.5519 31.0555,56.3559 22.1555,54.0369 C14.5725,52.0939 12.6925,51.1539 12.6925,48.2709 L12.6925,48.1459 C12.6925,46.0149 14.6355,44.3229 18.3335,44.3229 C22.0305,44.3229 25.8535,45.9519 29.7385,48.6469 L34.7525,41.3769 C30.3025,37.8049 24.8505,35.7999 18.4585,35.7999 C9.4965,35.7999 3.1045,41.0639 3.1045,49.0229 L3.1045,49.1489 C3.1045,57.8599 8.8075,60.3039 17.6435,62.5599 C24.9765,64.4399 26.4805,65.6929 26.4805,68.1369 L26.4805,68.2629 C26.4805,70.8319 24.0985,72.3989 20.1505,72.3989 C15.1365,72.3989 11.0005,70.3309 7.0525,67.0719 L1.3495,73.9029 C6.6135,78.6029 13.3195,80.9219 19.9625,80.9219 L19.9625,80.9219 Z M54.6185,80.9219 C59.4445,80.9219 62.2645,78.3529 64.4575,75.5319 L64.4575,80.2949 L73.9835,80.2949 L73.9835,46.7039 L64.4575,46.7039 L64.4575,65.4429 C64.4575,69.9549 62.1395,72.2739 58.5045,72.2739 C54.8695,72.2739 52.7385,69.9549 52.7385,65.4429 L52.7385,46.7039 L43.2125,46.7039 L43.2125,68.4509 C43.2125,76.1589 47.4115,80.9219 54.6185,80.9219 L54.6185,80.9219 Z M94.2875,80.9219 C101.5575,80.9219 107.1345,77.5379 107.1345,70.0799 L107.1345,69.9549 C107.1345,63.8129 101.6825,61.5569 96.9825,59.9899 C93.3475,58.7369 90.1515,57.8599 90.1515,55.9799 L90.1515,55.8539 C90.1515,54.5379 91.3425,53.5349 93.6605,53.5349 C96.1055,53.5349 99.4265,54.7259 102.7485,56.6689 L106.3825,50.0889 C102.7485,47.6439 98.1105,46.2029 93.8485,46.2029 C87.0805,46.2029 81.5655,50.0259 81.5655,56.8569 L81.5655,56.9819 C81.5655,63.4999 86.8925,65.6929 91.5925,67.0719 C95.2905,68.1999 98.5495,68.8889 98.5495,70.9579 L98.5495,71.0829 C98.5495,72.5869 97.2955,73.5899 94.5385,73.5899 C91.4045,73.5899 87.5825,72.2109 83.9475,69.5789 L79.8735,75.8459 C84.3235,79.3549 89.5875,80.9219 94.2875,80.9219 L94.2875,80.9219 Z M124.6825,80.8589 C127.8785,80.8589 130.1975,80.1069 132.2035,78.9169 L132.2035,71.2709 C130.8245,72.0229 129.2575,72.4619 127.5025,72.4619 C125.3725,72.4619 124.4325,71.3959 124.4325,69.2029 L124.4325,54.8509 L132.3285,54.8509 L132.3285,46.7039 L124.4325,46.7039 L124.4325,38.1189 L114.9065,38.1189 L114.9065,46.7039 L110.8955,46.7039 L110.8955,54.8509 L114.9065,54.8509 L114.9065,70.7699 C114.9065,78.5409 118.8545,80.8589 124.6825,80.8589 L124.6825,80.8589 Z M148.8725,80.9219 C153.5105,80.9219 156.7065,79.2299 159.0255,76.6599 L159.0255,80.2949 L168.2375,80.2949 L168.2375,60.8049 C168.2375,56.2929 167.1095,52.5949 164.6025,50.0889 C162.2215,47.7069 158.4615,46.3279 153.2595,46.3279 C147.5565,46.3279 143.9215,47.3939 140.2245,49.0229 L142.6055,56.2929 C145.6765,55.1649 148.2465,54.4749 151.8805,54.4749 C156.6435,54.4749 159.0875,56.6689 159.0875,60.6169 L159.0875,61.1809 C156.7065,60.3659 154.2625,59.8019 150.8785,59.8019 C142.9195,59.8019 137.3415,63.1869 137.3415,70.5189 L137.3415,70.6439 C137.3415,77.2869 142.5435,80.9219 148.8725,80.9219 L148.8725,80.9219 Z M151.7555,74.3419 C148.6845,74.3419 146.5535,72.8379 146.5535,70.2679 L146.5535,70.1429 C146.5535,67.1349 149.0605,65.5049 153.1345,65.5049 C155.4535,65.5049 157.5835,66.0069 159.2135,66.7589 L159.2135,68.4509 C159.2135,71.8979 156.2055,74.3419 151.7555,74.3419 L151.7555,74.3419 Z M176.6355,43.0069 L186.6625,43.0069 L186.6625,34.5469 L176.6355,34.5469 L176.6355,43.0069 Z M176.8855,80.2949 L186.4115,80.2949 L186.4115,46.7039 L176.8855,46.7039 L176.8855,80.2949 Z M195.3725,80.2949 L204.8985,80.2949 L204.8985,61.5569 C204.8985,57.0449 207.2165,54.7259 210.8515,54.7259 C214.4865,54.7259 216.6175,57.0449 216.6175,61.5569 L216.6175,80.2949 L226.1435,80.2949 L226.1435,58.5489 C226.1435,50.8409 221.9445,46.0779 214.7375,46.0779 C209.9115,46.0779 207.0915,48.6469 204.8985,51.4669 L204.8985,46.7039 L195.3725,46.7039 L195.3725,80.2949 Z M243.9405,80.9219 C248.5785,80.9219 251.7745,79.2299 254.0925,76.6599 L254.0925,80.2949 L263.3055,80.2949 L263.3055,60.8049 C263.3055,56.2929 262.1775,52.5949 259.6705,50.0889 C257.2895,47.7069 253.5285,46.3279 248.3275,46.3279 C242.6245,46.3279 238.9895,47.3939 235.2925,49.0229 L237.6735,56.2929 C240.7445,55.1649 243.3135,54.4749 246.9485,54.4749 C251.7115,54.4749 254.1555,56.6689 254.1555,60.6169 L254.1555,61.1809 C251.7745,60.3659 249.3305,59.8019 245.9455,59.8019 C237.9865,59.8019 232.4095,63.1869 232.4095,70.5189 L232.4095,70.6439 C232.4095,77.2869 237.6105,80.9219 243.9405,80.9219 L243.9405,80.9219 Z M246.8235,74.3419 C243.7525,74.3419 241.6215,72.8379 241.6215,70.2679 L241.6215,70.1429 C241.6215,67.1349 244.1285,65.5049 248.2015,65.5049 C250.5205,65.5049 252.6515,66.0069 254.2805,66.7589 L254.2805,68.4509 C254.2805,71.8979 251.2725,74.3419 246.8235,74.3419 L246.8235,74.3419 Z M291.5065,80.9219 C299.4655,80.9219 306.7975,74.7799 306.7975,63.5629 L306.7975,63.4369 C306.7975,52.2189 299.3405,46.0779 291.5065,46.0779 C286.5555,46.0779 283.3595,48.3959 281.0405,51.5299 L281.0405,34.5469 L271.5145,34.5469 L271.5145,80.2949 L281.0405,80.2949 L281.0405,75.9079 C283.2965,78.6029 286.4305,80.9219 291.5065,80.9219 L291.5065,80.9219 Z M289.0625,72.8379 C284.6125,72.8379 280.9155,69.1399 280.9155,63.5629 L280.9155,63.4369 C280.9155,57.8599 284.6125,54.1619 289.0625,54.1619 C293.5115,54.1619 297.2725,57.8599 297.2725,63.4369 L297.2725,63.5629 C297.2725,69.2029 293.5115,72.8379 289.0625,72.8379 L289.0625,72.8379 Z M314.2545,80.2949 L323.7805,80.2949 L323.7805,34.5459 L314.2545,34.5459 L314.2545,80.2949 Z M348.6595,81.0469 C354.7385,81.0469 359.2505,78.6659 362.3845,74.7799 L356.9315,69.9549 C354.2995,72.3989 351.9805,73.4019 348.7845,73.4019 C344.5235,73.4019 341.5155,71.1459 340.5755,66.8209 L363.9505,66.8209 C364.0135,65.9439 364.0765,65.0669 364.0765,64.3149 C364.0765,54.7889 358.9375,46.0779 347.7195,46.0779 C337.9425,46.0779 331.1115,53.9739 331.1115,63.5629 L331.1115,63.6879 C331.1115,73.9659 338.5695,81.0469 348.6595,81.0469 L348.6595,81.0469 Z M340.4495,60.8679 C341.2015,56.5439 343.7715,53.7229 347.7195,53.7229 C351.7305,53.7229 354.2375,56.6059 354.8015,60.8679 L340.4495,60.8679 Z" id="Fill-3"></path>
                <path d="M3.7116,13.9792 L5.9926,13.9792 L5.9926,4.5542 L10.1206,10.7372 L10.1956,10.7372 L14.3616,4.5162 L14.3616,13.9792 L16.6806,13.9792 L16.6806,0.7842 L14.2116,0.7842 L10.1956,7.0232 L6.1806,0.7842 L3.7116,0.7842 L3.7116,13.9792 Z M20.3566,13.9792 L22.7316,13.9792 L24.0886,10.7932 L30.3276,10.7932 L31.6666,13.9792 L34.1166,13.9792 L28.3106,0.6902 L26.1616,0.6902 L20.3566,13.9792 Z M24.9366,8.7392 L27.1986,3.4612 L29.4796,8.7392 L24.9366,8.7392 Z M42.1846,14.1672 C44.9556,14.1672 46.8976,12.6972 46.8976,10.2282 L46.8976,10.1902 C46.8976,8.0032 45.4646,7.0042 42.6746,6.3262 C40.1296,5.7232 39.5266,5.2702 39.5266,4.2522 L39.5266,4.2152 C39.5266,3.3482 40.3186,2.6502 41.6756,2.6502 C42.8826,2.6502 44.0696,3.1212 45.2576,4.0072 L46.5016,2.2542 C45.1626,1.1802 43.6366,0.5952 41.7136,0.5952 C39.0936,0.5952 37.2086,2.1602 37.2086,4.4222 L37.2086,4.4602 C37.2086,6.8912 38.7916,7.7212 41.6006,8.3992 C44.0506,8.9652 44.5786,9.4742 44.5786,10.4162 L44.5786,10.4542 C44.5786,11.4342 43.6736,12.1132 42.2416,12.1132 C40.6196,12.1132 39.3386,11.4912 38.0756,10.3972 L36.6806,12.0562 C38.2636,13.4702 40.1676,14.1672 42.1846,14.1672 L42.1846,14.1672 Z M54.0036,13.9792 L56.3416,13.9792 L56.3416,2.9332 L60.5256,2.9332 L60.5256,0.7842 L49.8186,0.7842 L49.8186,2.9332 L54.0036,2.9332 L54.0036,13.9792 Z M64.3896,13.9792 L74.2676,13.9792 L74.2676,11.9052 L66.7086,11.9052 L66.7086,8.3622 L73.3246,8.3622 L73.3246,6.2882 L66.7086,6.2882 L66.7086,2.8572 L74.1736,2.8572 L74.1736,0.7842 L64.3896,0.7842 L64.3896,13.9792 Z M78.4336,13.9792 L80.7516,13.9792 L80.7516,9.3802 L83.6546,9.3802 L86.8966,13.9792 L89.6496,13.9792 L86.0866,8.9842 C87.9146,8.4562 89.2156,7.1552 89.2156,4.9872 L89.2156,4.9502 C89.2156,3.8002 88.8196,2.8202 88.1226,2.1032 C87.2736,1.2742 85.9736,0.7842 84.3146,0.7842 L78.4336,0.7842 L78.4336,13.9792 Z M80.7516,7.3252 L80.7516,2.8952 L84.1266,2.8952 C85.8416,2.8952 86.8596,3.6682 86.8596,5.0822 L86.8596,5.1192 C86.8596,6.4582 85.8036,7.3252 84.1446,7.3252 L80.7516,7.3252 Z M106.8406,14.2052 C110.8926,14.2052 113.7586,11.0952 113.7586,7.3812 L113.7586,7.3442 C113.7586,3.6302 110.9306,0.5582 106.8776,0.5582 C102.8246,0.5582 99.9596,3.6682 99.9596,7.3812 L99.9596,7.4192 C99.9596,11.1332 102.7876,14.2052 106.8406,14.2052 L106.8406,14.2052 Z M106.8776,12.0562 C104.2576,12.0562 102.3916,9.9452 102.3916,7.3812 L102.3916,7.3442 C102.3916,4.7802 104.2196,2.6882 106.8406,2.6882 C109.4606,2.6882 111.3266,4.8182 111.3266,7.3812 L111.3266,7.4192 C111.3266,9.9832 109.4976,12.0562 106.8776,12.0562 L106.8776,12.0562 Z M117.9806,13.9792 L120.2986,13.9792 L120.2986,8.6072 L126.9526,8.6072 L126.9526,6.4952 L120.2986,6.4952 L120.2986,2.8952 L127.8016,2.8952 L127.8016,0.7842 L117.9806,0.7842 L117.9806,13.9792 Z M143.4466,14.1672 C146.2176,14.1672 148.1586,12.6972 148.1586,10.2282 L148.1586,10.1902 C148.1586,8.0032 146.7266,7.0042 143.9366,6.3262 C141.3916,5.7232 140.7886,5.2702 140.7886,4.2522 L140.7886,4.2152 C140.7886,3.3482 141.5806,2.6502 142.9376,2.6502 C144.1436,2.6502 145.3316,3.1212 146.5186,4.0072 L147.7636,2.2542 C146.4246,1.1802 144.8976,0.5952 142.9756,0.5952 C140.3546,0.5952 138.4696,2.1602 138.4696,4.4222 L138.4696,4.4602 C138.4696,6.8912 140.0536,7.7212 142.8626,8.3992 C145.3126,8.9652 145.8406,9.4742 145.8406,10.4162 L145.8406,10.4542 C145.8406,11.4342 144.9356,12.1132 143.5026,12.1132 C141.8816,12.1132 140.6006,11.4912 139.3376,10.3972 L137.9426,12.0562 C139.5256,13.4702 141.4296,14.1672 143.4466,14.1672 L143.4466,14.1672 Z M158.4326,14.2052 C160.9016,14.2052 162.4096,13.3002 163.7856,11.8682 L162.2966,10.3602 C161.1656,11.4152 160.1286,12.0562 158.5076,12.0562 C155.9816,12.0562 154.1536,9.9642 154.1536,7.3812 L154.1536,7.3442 C154.1536,4.7612 156.0006,2.6882 158.5076,2.6882 C160.0156,2.6882 161.1466,3.3482 162.2026,4.3282 L163.6916,2.6122 C162.4286,1.4062 160.9586,0.5582 158.5266,0.5582 C154.5306,0.5582 151.7216,3.6302 151.7216,7.3812 L151.7216,7.4192 C151.7216,11.2082 154.5866,14.2052 158.4326,14.2052 L158.4326,14.2052 Z M167.7626,13.9792 L170.0816,13.9792 L170.0816,0.7842 L167.7626,0.7842 L167.7626,13.9792 Z M175.0196,13.9792 L184.8976,13.9792 L184.8976,11.9052 L177.3386,11.9052 L177.3386,8.3622 L183.9546,8.3622 L183.9546,6.2882 L177.3386,6.2882 L177.3386,2.8572 L184.8036,2.8572 L184.8036,0.7842 L175.0196,0.7842 L175.0196,13.9792 Z M189.0636,13.9792 L191.3446,13.9792 L191.3446,4.5922 L198.6206,13.9792 L200.5616,13.9792 L200.5616,0.7842 L198.2806,0.7842 L198.2806,9.9072 L191.2126,0.7842 L189.0636,0.7842 L189.0636,13.9792 Z M211.4946,14.2052 C213.9646,14.2052 215.4726,13.3002 216.8486,11.8682 L215.3596,10.3602 C214.2286,11.4152 213.1916,12.0562 211.5706,12.0562 C209.0446,12.0562 207.2156,9.9642 207.2156,7.3812 L207.2156,7.3442 C207.2156,4.7612 209.0636,2.6882 211.5706,2.6882 C213.0786,2.6882 214.2096,3.3482 215.2646,4.3282 L216.7536,2.6122 C215.4906,1.4062 214.0206,0.5582 211.5896,0.5582 C207.5926,0.5582 204.7846,3.6302 204.7846,7.3812 L204.7846,7.4192 C204.7846,11.2082 207.6496,14.2052 211.4946,14.2052 L211.4946,14.2052 Z M220.6936,13.9792 L230.5706,13.9792 L230.5706,11.9052 L223.0126,11.9052 L223.0126,8.3622 L229.6286,8.3622 L229.6286,6.2882 L223.0126,6.2882 L223.0126,2.8572 L230.4766,2.8572 L230.4766,0.7842 L220.6936,0.7842 L220.6936,13.9792 Z M241.9376,13.9792 L244.2566,13.9792 L244.2566,0.7842 L241.9376,0.7842 L241.9376,13.9792 Z M249.1946,13.9792 L251.4756,13.9792 L251.4756,4.5922 L258.7516,13.9792 L260.6926,13.9792 L260.6926,0.7842 L258.4126,0.7842 L258.4126,9.9072 L251.3436,0.7842 L249.1946,0.7842 L249.1946,13.9792 Z" id="Fill-5"></path>
            </g>
        </g>
    </g>
</svg>