<?xml version="1.0" encoding="UTF-8" standalone="no"?>
<svg width="138px" height="59px" viewBox="0 0 138 59" version="1.1" xmlns="http://www.w3.org/2000/svg" xmlns:xlink="http://www.w3.org/1999/xlink">
    <!-- Generator: Sketch 46.2 (44496) - http://www.bohemiancoding.com/sketch -->
    <title>Fill 2</title>
    <desc>Created with Sketch.</desc>
    <defs></defs>
    <g id="Page-1" stroke="none" stroke-width="1" fill="none" fill-rule="evenodd">
        <g id="Home" transform="translate(-24.000000, -2000.000000)" fill="#FEFEFE">
            <g id="Footer" transform="translate(0.000000, 1973.000000)">
                <path d="M24.6431,28.1109 L24.6431,45.1989 L30.9421,45.1989 L30.9421,35.1459 L39.1381,35.1459 L39.1381,65.9489 L32.3751,65.9489 L32.3751,72.1189 L56.1831,72.1189 L56.1831,65.9489 L49.4181,65.9489 L49.4181,35.1459 L57.8091,35.1459 C57.8091,35.1459 57.8001,39.8089 57.8001,40.3599 L64.0121,40.3599 L64.0121,28.1109 L24.6431,28.1109 Z M76.4331,42.1569 L76.4331,47.9719 L81.2551,47.9719 L81.2551,63.1219 L80.9651,63.3409 C78.8421,64.9119 76.8391,65.7119 75.0061,65.7119 C73.5381,65.7119 72.4791,65.3369 71.8671,64.5949 C71.2771,63.8879 70.9881,62.6929 70.9881,60.9499 L70.9881,42.1569 L57.7621,42.1569 L57.7621,47.9719 L62.4551,47.9719 L62.4551,63.5079 C62.4551,66.3829 63.2481,68.6219 64.8161,70.1659 C66.3811,71.7159 68.6031,72.4999 71.4131,72.4999 C74.3341,72.4999 77.2691,71.4939 80.1331,69.5199 L81.2551,68.7449 L81.2551,72.0459 L93.3101,72.0459 L93.3101,66.2599 L89.8231,66.2599 L89.8231,42.1569 L76.4331,42.1569 Z M102.1811,30.7669 L102.1811,30.7669 C100.2771,32.8329 99.3121,35.4469 99.3121,38.5479 L99.3121,42.1439 L95.1091,42.1439 L95.1091,47.9599 L99.3121,47.9599 L99.3121,66.2499 L95.1001,66.2499 L95.1001,72.0359 L112.7991,72.0359 L112.7991,66.2499 L107.8781,66.2499 L107.8781,47.9599 L112.7991,47.9599 L112.7991,42.1439 L107.8781,42.1439 L107.8781,37.9979 C107.8781,33.8199 109.6771,32.9459 111.1851,32.9459 C112.5201,32.9459 113.5671,33.9299 114.3101,35.8489 C114.7951,35.4699 119.7271,31.6159 120.1881,31.2579 C118.2171,28.8899 115.0561,27.6779 110.7641,27.6779 C106.9541,27.6779 104.0681,28.7169 102.1811,30.7669 L102.1811,30.7669 Z M124.5251,32.6239 C124.5251,32.6239 118.8321,36.7149 118.5821,36.8919 L118.5821,42.1589 L114.6021,42.1589 L114.6021,47.9759 L118.5821,47.9759 L118.5821,65.0659 C118.5821,70.1409 120.9661,72.5039 126.0861,72.5039 C128.2841,72.5039 130.5771,72.0359 132.9101,71.1319 L132.9101,65.6499 C131.9931,65.9159 131.1831,66.0729 130.4881,66.0729 C129.1111,66.0729 128.2201,65.7739 127.7611,65.1529 C127.3451,64.5949 127.1511,63.6729 127.1511,62.2509 L127.1511,47.9759 L132.9101,47.9759 L132.9101,42.1589 L127.1511,42.1589 L127.1511,30.7379 C126.4551,31.2399 124.5251,32.6239 124.5251,32.6239 L124.5251,32.6239 Z M136.4261,44.0209 L136.4241,44.0209 C134.4251,45.7059 133.4071,47.7979 133.4071,50.2399 C133.4071,52.8439 134.4811,54.9639 136.5981,56.5449 C138.7741,58.1639 142.3981,59.3939 147.3791,60.1969 C149.9071,60.6169 151.5691,61.0609 152.4651,61.5369 C153.4561,62.0689 153.9561,62.8399 153.9561,63.8339 C153.9561,64.8729 153.4251,65.7339 152.3751,66.3859 C151.3911,66.9979 150.0221,67.3089 148.3121,67.3089 C146.3311,67.3089 144.6371,66.8409 143.2751,65.9219 C142.0111,65.0689 141.2951,63.9069 141.1201,62.4879 L134.6051,62.4879 L134.6051,72.3889 L141.0491,72.3889 L141.0491,70.1469 L141.8031,70.9779 C143.0931,72.3859 145.5641,73.1039 149.1491,73.1039 C153.0351,73.1039 156.0671,72.1529 158.1651,70.2859 C160.2461,68.4259 161.3051,66.0039 161.3051,63.0859 C161.3051,61.0389 160.7511,59.2589 159.6611,57.7989 C158.5611,56.3319 157.0781,55.2679 155.2521,54.6309 C153.3611,53.9739 150.4691,53.3029 146.6511,52.6429 C144.1431,52.1989 142.6141,51.8199 141.9761,51.4829 C141.2411,51.0969 140.8531,50.4889 140.8531,49.7249 C140.8531,47.8439 142.4571,46.8909 145.6241,46.8909 C149.5391,46.8909 151.9361,47.9979 152.7661,50.1589 L159.2001,50.1589 L159.2001,41.9389 L152.9201,41.9389 L152.9201,43.2279 L152.3141,42.9719 C149.9201,41.9649 147.3091,41.4519 144.5571,41.4519 C141.1841,41.4519 138.4461,42.3159 136.4261,44.0209 L136.4261,44.0209 Z M65.5651,85.3999 L65.1001,85.3999 C64.8331,85.3999 64.6561,85.3569 64.6561,84.9999 C64.6561,84.8809 64.6341,82.3179 64.6341,82.2079 L64.6341,81.3399 C64.6341,81.2089 64.6561,78.7589 64.6561,78.6479 C64.6561,78.4359 64.8331,78.3469 65.0781,78.3469 L65.4991,78.3469 C65.5431,78.3469 65.5901,78.3219 65.5901,78.2589 L65.5901,78.0029 C65.5901,77.9509 65.5651,77.9049 65.4991,77.9049 C65.3461,77.9049 64.9871,77.9379 63.9201,77.9379 C62.8321,77.9379 62.2531,77.9049 62.1191,77.9049 C62.0751,77.9049 62.0511,77.9249 62.0511,77.9819 L62.0511,78.2709 C62.0511,78.3219 62.0751,78.3469 62.1411,78.3469 L62.7221,78.3469 C63.0321,78.3469 63.1411,78.4579 63.1741,78.7259 C63.1851,78.8739 63.2091,80.8749 63.2091,81.1409 L63.2091,81.9209 C63.2091,82.5199 63.1851,84.9229 63.1641,85.0769 C63.1211,85.3789 62.8761,85.3999 62.6521,85.3999 L62.2091,85.3999 C62.1411,85.3999 62.1191,85.4209 62.1191,85.4689 L62.1191,85.7689 C62.1191,85.8249 62.1411,85.8459 62.2091,85.8459 C62.3201,85.8459 62.8101,85.8119 63.9201,85.8119 C64.9661,85.8119 65.4121,85.8459 65.5431,85.8459 C65.6111,85.8459 65.6551,85.8249 65.6551,85.7569 L65.6551,85.4769 C65.6551,85.4209 65.6111,85.3999 65.5651,85.3999 L65.5651,85.3999 Z M80.3371,77.9049 C80.2481,77.9049 79.9601,77.9379 79.0261,77.9379 C78.3141,77.9379 77.8021,77.9049 77.7121,77.9049 C77.6461,77.9049 77.6261,77.9249 77.6261,77.9939 L77.6261,78.2449 C77.6261,78.3039 77.6601,78.3469 77.7031,78.3469 L78.0011,78.3469 C78.3141,78.3469 78.4271,78.5259 78.4271,78.6609 C78.4271,79.1159 77.7361,80.7969 77.5591,81.3199 C77.4471,81.6509 76.7331,83.4999 76.4661,84.1229 L76.4661,84.1449 L76.4441,84.1449 C76.2671,83.5429 75.6661,81.7859 75.5091,81.3629 C75.2891,80.7189 74.8671,79.4059 74.7891,79.0049 C74.7551,78.8479 74.7551,78.7159 74.7551,78.6279 C74.7551,78.4579 74.9311,78.3469 75.2251,78.3469 L75.7551,78.3469 C75.8211,78.3469 75.8451,78.3139 75.8451,78.2359 L75.8451,77.9939 C75.8451,77.9379 75.8211,77.9049 75.7341,77.9049 C75.6441,77.9049 75.1351,77.9379 74.0861,77.9379 C72.9321,77.9379 72.5511,77.9049 72.4401,77.9049 C72.3971,77.9049 72.3721,77.9249 72.3721,77.9939 L72.3721,78.2449 C72.3721,78.3139 72.3971,78.3469 72.4401,78.3469 L72.7061,78.3469 C72.9541,78.3469 73.0861,78.4579 73.1841,78.7049 C73.3101,79.0269 73.7991,80.4509 74.0861,81.2509 C74.4651,82.2879 75.3991,84.8349 75.7771,85.7809 C75.8311,85.9109 75.8891,86.0339 76.0231,86.0339 C76.1121,86.0339 76.1981,85.9789 76.2431,85.8889 C76.3551,85.6579 77.6891,82.4109 77.9131,81.9209 C78.2261,81.1869 78.8921,79.4519 79.2581,78.8609 C79.5151,78.4579 79.8061,78.3469 80.0711,78.3469 L80.3371,78.3469 C80.4071,78.3469 80.4281,78.3139 80.4281,78.2589 L80.4281,77.9819 C80.4281,77.9249 80.4071,77.9049 80.3371,77.9049 L80.3371,77.9049 Z M93.5771,83.7879 C93.5301,83.7649 93.4971,83.7769 93.4531,83.8309 C93.2401,84.0989 92.6221,84.8349 92.4171,85.0129 C92.1301,85.2559 91.7061,85.3659 91.5081,85.3909 C91.2851,85.4119 90.7691,85.4339 90.5711,85.4339 C90.1461,85.4339 89.8851,85.3909 89.7051,85.3449 C89.4581,85.2769 89.2571,85.0559 89.2571,84.4769 C89.2571,84.2769 89.2381,83.1889 89.2251,82.5879 L89.2111,81.9209 C89.5721,81.9209 90.1031,81.9429 90.5071,81.9859 C90.7491,82.0079 90.9611,82.1649 91.0601,82.3879 C91.1181,82.5199 91.1961,82.7649 91.2391,82.9429 C91.2611,83.0079 91.2851,83.0319 91.3291,83.0199 L91.5731,82.9769 C91.6391,82.9659 91.6621,82.9509 91.6621,82.8959 C91.6391,82.6539 91.5961,82.1179 91.5961,81.6749 C91.5961,81.3829 91.5961,80.6509 91.6181,80.4729 C91.6261,80.4079 91.5961,80.3829 91.5501,80.3829 L91.2611,80.3619 C91.2181,80.3619 91.1721,80.3829 91.1721,80.4509 C91.1721,80.6509 91.0601,80.9309 90.9951,81.0719 C90.8601,81.3399 90.7281,81.4289 90.4821,81.4729 C90.3491,81.5059 89.5501,81.5279 89.2111,81.5279 L89.2381,78.3139 L90.9261,78.3599 C91.2391,78.3689 91.5391,78.5169 91.7741,78.6479 C92.0411,78.8019 92.9521,79.8279 92.9991,79.8909 C93.0281,79.9499 93.0641,79.9589 93.0981,79.9499 L93.2971,79.8599 C93.3401,79.8389 93.3521,79.8059 93.3301,79.7379 C93.2841,79.6299 92.8631,78.1169 92.8181,77.9719 C92.8071,77.9249 92.7871,77.9049 92.7311,77.9049 C92.6761,77.9049 92.4621,77.9169 92.2841,77.9169 C91.7961,77.9169 89.2381,77.9379 88.7471,77.9379 L88.4371,77.9379 C87.5241,77.9509 87.1231,77.9049 86.8801,77.9049 C86.8251,77.9049 86.8121,77.9249 86.8121,77.9819 L86.8121,78.2709 C86.8121,78.3219 86.8341,78.3469 86.8801,78.3469 L87.3011,78.3469 C87.6381,78.3469 87.7451,78.4359 87.7911,78.7379 C87.8131,78.8949 87.8341,80.2739 87.8341,81.1869 L87.8341,84.9229 C87.8341,85.3349 87.7911,85.3999 87.2801,85.3999 L86.9011,85.3999 C86.8121,85.3999 86.7911,85.4209 86.7911,85.4929 L86.7911,85.7569 C86.7911,85.8249 86.8121,85.8459 86.8801,85.8459 C87.0771,85.8459 87.4811,85.8119 88.3031,85.8119 C92.0191,85.8119 92.8871,85.8459 92.9991,85.8459 C93.1301,85.8459 93.2071,85.7809 93.2401,85.6799 L93.7761,84.0099 C93.7981,83.9549 93.7891,83.9199 93.7531,83.8989 L93.5771,83.7879 Z M55.1551,77.9049 C55.0221,77.9049 54.7551,77.9379 54.0861,77.9379 C53.3291,77.9379 52.9761,77.9049 52.8411,77.9049 C52.7521,77.9049 52.7521,77.9249 52.7521,77.9939 L52.7521,78.2449 C52.7521,78.3039 52.7521,78.3469 52.8201,78.3469 L53.1761,78.3469 C53.4431,78.3469 53.6861,78.5049 53.7661,78.7719 C53.8221,78.9589 53.8671,80.0479 53.8871,80.4729 C53.9091,81.0279 53.9091,81.5829 53.9091,82.5649 L53.9091,83.7199 L53.8671,83.7199 C53.6861,83.4999 51.9511,81.3399 51.7951,81.1659 C51.5751,80.8549 49.3931,78.1169 49.2831,78.0029 C49.2151,77.9379 49.1501,77.9049 49.0161,77.9049 C48.9491,77.9049 48.8491,77.9169 48.7051,77.9169 C48.5691,77.9249 48.4051,77.9379 48.2141,77.9379 C47.7261,77.9379 47.4241,77.9379 47.2251,77.9249 C47.0241,77.9169 46.9351,77.9049 46.8801,77.9049 C46.8381,77.9049 46.8121,77.9249 46.8121,77.9719 L46.8121,78.2709 C46.8121,78.3139 46.8381,78.3359 46.8801,78.3469 L47.2361,78.3469 C47.7261,78.3469 48.1021,78.8609 48.1021,79.5279 L48.1021,80.9399 C48.1021,82.7209 48.0371,84.2769 48.0251,84.4769 C47.9691,85.1539 47.8121,85.3999 47.5241,85.3999 L47.1461,85.3999 C47.1011,85.3999 47.0811,85.4459 47.0811,85.4689 L47.0811,85.7449 C47.0811,85.8249 47.1011,85.8459 47.1461,85.8459 C47.2581,85.8459 48.0161,85.8119 48.3041,85.8119 C48.7261,85.8119 49.3931,85.8459 49.5041,85.8459 C49.5931,85.8459 49.5931,85.8249 49.5931,85.7569 L49.5931,85.5019 C49.5931,85.4459 49.5931,85.3999 49.5041,85.3999 L49.2151,85.3999 C48.8151,85.3999 48.6791,85.1329 48.6571,84.5759 C48.6381,84.2339 48.5461,82.6739 48.5461,80.7829 L48.5461,79.4279 L48.6131,79.4279 C48.7471,79.5839 50.5301,81.8079 50.6851,81.9649 C50.8171,82.1399 51.6841,83.1889 52.4631,84.1449 C53.1521,84.9659 53.7541,85.6579 53.8451,85.7689 C53.9321,85.8579 54.0661,85.9439 54.2211,85.9439 C54.3551,85.9439 54.3551,85.7909 54.3551,85.6339 L54.3551,82.6999 C54.3551,81.5619 54.4661,79.6949 54.5211,78.9379 C54.5551,78.5259 54.6681,78.3469 54.8861,78.3469 L55.2001,78.3469 C55.2441,78.3469 55.2671,78.3039 55.2671,78.2359 L55.2671,77.9819 C55.2671,77.9509 55.2441,77.9049 55.1551,77.9049 L55.1551,77.9049 Z M144.3721,77.6499 C144.3491,77.5129 144.3301,77.4669 144.2601,77.4669 C144.1931,77.4669 144.1491,77.5129 144.0601,77.5789 C143.8931,77.7019 143.4721,77.8589 143.2591,77.8709 C142.7471,77.8929 142.2801,77.9379 141.0571,77.9379 L140.4571,77.9379 C139.3661,77.9379 138.8971,77.8929 138.2971,77.8709 C137.9881,77.8589 137.7641,77.8069 137.5411,77.5789 C137.4761,77.5129 137.4311,77.4669 137.3631,77.4669 C137.3201,77.4669 137.2511,77.5129 137.2311,77.6709 C137.1851,77.8279 136.8081,79.2949 136.6991,79.7169 C136.6851,79.7709 136.6991,79.8059 136.7441,79.8279 L136.9591,79.9059 C137.0181,79.9279 137.0521,79.8819 137.0851,79.8279 C137.2971,79.4519 137.7191,78.7159 138.0731,78.5589 C138.5431,78.4019 139.3461,78.4019 139.6991,78.4019 L140.0071,78.4019 L140.0071,81.1869 C140.0071,81.4049 140.0071,84.8109 139.9771,85.0989 C139.9661,85.2639 139.8341,85.3999 139.6101,85.3999 L138.9781,85.3999 C138.9311,85.3999 138.8971,85.4209 138.8971,85.4929 L138.8971,85.7449 C138.8971,85.8249 138.9231,85.8459 138.9871,85.8459 C139.1411,85.8459 139.6101,85.8119 140.7451,85.8119 C141.9451,85.8119 142.3031,85.8459 142.4131,85.8459 C142.5021,85.8459 142.5261,85.8029 142.5261,85.7349 L142.5261,85.5019 C142.5261,85.4459 142.5021,85.3999 142.4571,85.3999 L141.8131,85.3999 C141.5451,85.3999 141.4341,85.1789 141.4341,84.3339 L141.4341,78.4019 L141.7461,78.4019 C142.1491,78.4019 143.1471,78.4249 143.4591,78.6019 C143.7701,78.8269 144.1831,79.5409 144.3401,79.8479 C144.3721,79.9169 144.3941,79.9499 144.4371,79.9379 L144.6581,79.8599 C144.6931,79.8479 144.7161,79.8279 144.7041,79.7629 C144.6161,79.2269 144.3941,77.8499 144.3721,77.6499 L144.3721,77.6499 Z M40.3391,77.9049 C40.2481,77.9049 39.8951,77.9379 39.2041,77.9379 C38.4721,77.9379 37.9571,77.9049 37.8461,77.9049 C37.7821,77.9049 37.7571,77.9249 37.7571,77.9939 L37.7571,78.2709 C37.7571,78.3139 37.7821,78.3469 37.8461,78.3469 L38.2491,78.3469 C38.4951,78.3469 38.6701,78.5479 38.7041,78.8399 C38.7361,79.0909 38.8261,80.0729 38.8261,80.9619 L38.8261,82.9659 C38.8261,83.7769 38.6031,84.4219 38.1821,84.8429 C37.8231,85.1789 37.2001,85.3789 36.6931,85.3789 C36.1581,85.3789 35.5561,85.1999 35.1781,84.6869 C34.9101,84.3339 34.8201,83.8229 34.7891,83.3079 C34.7661,82.9509 34.7561,82.1649 34.7561,81.6079 L34.7561,80.2289 C34.7561,79.5839 34.7791,78.9159 34.7891,78.7819 C34.7991,78.5479 35.0001,78.3469 35.3341,78.3469 L35.8001,78.3469 C35.8681,78.3469 35.8901,78.3219 35.8901,78.2589 L35.8901,77.9819 C35.8901,77.9249 35.8681,77.9049 35.8001,77.9049 C35.6661,77.9049 35.1351,77.9379 34.1981,77.9379 C33.1331,77.9379 32.5961,77.9049 32.4861,77.9049 C32.3961,77.9049 32.3751,77.9249 32.3751,77.9939 L32.3751,78.2449 C32.3751,78.3219 32.3961,78.3469 32.4631,78.3469 L32.9751,78.3469 C33.2641,78.3469 33.3521,78.5259 33.3521,78.9049 L33.3521,81.5399 C33.3521,82.9969 33.3981,83.7299 33.5521,84.2229 C33.7771,84.9329 34.2211,85.4459 34.8671,85.7149 C35.2911,85.8889 35.9341,85.9789 36.4671,85.9789 C37.3131,85.9789 38.0261,85.7149 38.4951,85.2889 C39.0951,84.7539 39.3601,84.0659 39.4261,83.1509 C39.4711,82.7119 39.4921,80.7739 39.4921,80.6179 C39.4921,80.4729 39.4921,78.9159 39.5151,78.7819 C39.5371,78.6609 39.5831,78.3469 39.9841,78.3469 L40.3841,78.3469 C40.4401,78.3469 40.4491,78.3139 40.4491,78.2449 L40.4491,77.9939 C40.4491,77.9379 40.4401,77.9049 40.3391,77.9049 L40.3391,77.9049 Z M117.4541,81.0509 C117.0081,80.9189 116.3821,80.6509 116.0941,80.3619 C115.8301,80.0729 115.7841,79.7379 115.7841,79.3629 C115.7841,78.9479 116.1391,78.2359 117.0271,78.2359 C117.5431,78.2359 117.8971,78.3939 118.1851,78.7049 C118.5851,79.1249 118.7641,79.5709 118.8761,79.8819 C118.8991,79.9499 118.9431,79.9589 118.9881,79.9499 L119.1641,79.8909 C119.2081,79.8819 119.2311,79.8599 119.2311,79.8139 C119.2311,79.7039 119.0571,78.1479 119.0571,77.9719 C119.0571,77.8589 119.0341,77.7939 118.9651,77.7939 C118.8991,77.7939 118.8531,77.8149 118.8101,77.8589 L118.6641,78.0029 C118.6111,78.0609 118.5411,78.0819 118.4291,78.0359 C118.2081,77.9509 117.7621,77.7689 117.0271,77.7689 C116.3821,77.7689 115.8961,77.9249 115.4491,78.3039 C114.9161,78.7259 114.6701,79.2399 114.6701,79.8599 C114.6701,80.5399 114.8481,81.0969 115.2301,81.4509 C115.7621,81.9429 116.4931,82.2539 116.8501,82.3879 C118.0311,82.8279 118.4961,83.1649 118.4961,84.1879 C118.4961,85.1109 117.6501,85.4929 117.0511,85.4929 C116.4931,85.4929 115.9161,85.2249 115.5831,84.6869 C115.2741,84.1999 115.1841,83.7769 115.1621,83.4219 C115.1621,83.3539 115.1401,83.3299 115.0941,83.3299 L114.8481,83.3079 C114.8041,83.3079 114.7941,83.3299 114.7801,83.3969 C114.7591,83.5329 114.6041,85.3349 114.5811,85.4689 C114.5811,85.5789 114.6241,85.6459 114.7161,85.6459 C114.8041,85.6459 114.8481,85.6249 114.9161,85.5149 C114.9821,85.3999 115.0271,85.3109 115.0941,85.3109 C115.1621,85.3109 115.2301,85.3569 115.3601,85.4459 C115.8051,85.7809 116.3361,85.9789 117.2501,85.9789 C118.7181,85.9789 119.6111,84.8679 119.6111,83.5109 C119.6111,82.7649 119.4101,82.2969 119.0571,81.9209 C118.6311,81.4729 118.0971,81.2509 117.4541,81.0509 L117.4541,81.0509 Z M159.1081,77.9049 C158.9971,77.9049 158.7521,77.9379 158.0391,77.9379 C157.2591,77.9379 156.7941,77.9049 156.6851,77.9049 C156.6401,77.9049 156.6171,77.9249 156.6171,77.9819 L156.6171,78.2589 C156.6171,78.3139 156.6401,78.3469 156.7061,78.3469 L156.9961,78.3469 C157.3311,78.3469 157.3951,78.5479 157.3741,78.7509 C157.3511,79.0269 155.9161,81.3399 155.5371,81.9649 C155.2371,81.3399 153.9021,78.8739 153.8791,78.6709 C153.8581,78.4359 153.9481,78.3469 154.1941,78.3469 L154.4791,78.3469 C154.5471,78.3469 154.5701,78.3039 154.5701,78.2359 L154.5701,77.9819 C154.5701,77.9249 154.5471,77.9049 154.4791,77.9049 C154.3711,77.9049 153.9691,77.9379 152.8331,77.9379 C151.9901,77.9379 151.4541,77.9049 151.3681,77.9049 C151.2981,77.9049 151.2761,77.9249 151.2761,77.9719 L151.2761,78.2709 C151.2761,78.3219 151.2981,78.3469 151.3681,78.3469 L151.5651,78.3469 C151.7461,78.3469 151.9901,78.4359 152.1231,78.5939 C152.4301,78.9829 154.2361,82.1859 154.4151,82.5199 L154.4151,83.0539 C154.4151,84.0989 154.3931,84.9659 154.3821,85.1199 C154.3711,85.2889 154.2791,85.3999 153.9901,85.3999 L153.5361,85.3999 C153.4821,85.3999 153.4591,85.4459 153.4591,85.4929 L153.4591,85.7449 C153.4591,85.8029 153.4821,85.8459 153.5361,85.8459 C153.6371,85.8459 153.9901,85.8119 155.0821,85.8119 C156.0821,85.8119 156.5281,85.8459 156.6511,85.8459 C156.7061,85.8459 156.7281,85.8119 156.7281,85.7349 L156.7281,85.4769 C156.7281,85.4339 156.7061,85.3999 156.6511,85.3999 L156.2831,85.3999 C156.0601,85.3999 155.8821,85.3789 155.8511,85.0249 C155.8391,84.8989 155.8171,84.1659 155.8171,83.7419 L155.8171,82.3879 C156.2391,81.6509 158.0851,78.8019 158.2661,78.6019 C158.4421,78.4149 158.7091,78.3469 158.8661,78.3469 L159.1081,78.3469 C159.1751,78.3469 159.1961,78.3039 159.1961,78.2359 L159.1961,77.9819 C159.1961,77.9249 159.1751,77.9049 159.1081,77.9049 L159.1081,77.9049 Z M130.0411,85.3999 L129.5751,85.3999 C129.3081,85.3999 129.1291,85.3569 129.1291,84.9999 C129.1291,84.8809 129.1071,82.3179 129.1071,82.2079 L129.1071,81.3399 C129.1071,81.2089 129.1291,78.7589 129.1291,78.6479 C129.1291,78.4359 129.3081,78.3469 129.5541,78.3469 L129.9761,78.3469 C130.0191,78.3469 130.0631,78.3219 130.0631,78.2589 L130.0631,78.0029 C130.0631,77.9509 130.0411,77.9049 129.9761,77.9049 C129.8231,77.9049 129.4651,77.9379 128.3951,77.9379 C127.3081,77.9379 126.7311,77.9049 126.5941,77.9049 C126.5521,77.9049 126.5301,77.9249 126.5301,77.9819 L126.5301,78.2709 C126.5301,78.3219 126.5521,78.3469 126.6191,78.3469 L127.1961,78.3469 C127.5061,78.3469 127.6191,78.4579 127.6511,78.7259 C127.6621,78.8739 127.6851,80.8749 127.6851,81.1409 L127.6851,81.9209 C127.6851,82.5199 127.6621,84.9229 127.6411,85.0769 C127.5971,85.3789 127.3501,85.3999 127.1281,85.3999 L126.6851,85.3999 C126.6191,85.3999 126.5941,85.4209 126.5941,85.4689 L126.5941,85.7689 C126.5941,85.8249 126.6191,85.8459 126.6851,85.8459 C126.7941,85.8459 127.2851,85.8119 128.3951,85.8119 C129.4421,85.8119 129.8881,85.8459 130.0191,85.8459 C130.0881,85.8459 130.1321,85.8249 130.1321,85.7569 L130.1321,85.4769 C130.1321,85.4209 130.0881,85.3999 130.0411,85.3999 L130.0411,85.3999 Z M107.9401,85.4209 C107.6731,85.4209 107.3621,85.3999 107.1501,85.2119 C106.9841,85.0559 106.2731,84.0559 106.2061,83.9449 C106.1171,83.8109 105.4251,82.7649 105.2941,82.5879 C105.1381,82.3879 104.9381,82.1859 104.6251,82.0739 L104.6251,82.0289 C105.8511,81.8319 106.6961,81.2509 106.6961,79.8479 C106.6961,79.4279 106.4951,78.9589 106.0941,78.6019 C105.6511,78.2029 104.9591,77.9049 104.0721,77.9049 C103.7361,77.9049 102.7141,77.9379 102.0911,77.9379 C101.0021,77.9379 100.6451,77.9049 100.5681,77.9049 C100.5131,77.9049 100.4891,77.9249 100.4891,77.9819 L100.4891,78.2789 C100.4891,78.3219 100.5131,78.3469 100.5681,78.3469 L101.0021,78.3469 C101.2021,78.3469 101.3571,78.5259 101.3571,78.9049 L101.3571,81.8319 C101.3571,82.8739 101.3571,83.9199 101.3331,85.0339 C101.3331,85.3349 101.1561,85.3999 100.9101,85.3999 L100.5341,85.3999 C100.4891,85.3999 100.4651,85.4339 100.4651,85.4929 L100.4651,85.7449 C100.4651,85.8119 100.4891,85.8459 100.5571,85.8459 C100.6691,85.8459 100.9321,85.8119 102.0241,85.8119 C103.1791,85.8119 103.4031,85.8459 103.5471,85.8459 C103.6371,85.8459 103.6711,85.8249 103.6711,85.7449 L103.6711,85.4769 C103.6711,85.4339 103.6491,85.3999 103.5811,85.3999 L103.0241,85.3999 C102.8481,85.3999 102.7701,85.1999 102.7371,84.9789 C102.7141,84.8109 102.6911,83.5649 102.6911,82.8959 L102.6911,82.2969 C102.8141,82.2879 103.0031,82.2739 103.0471,82.2739 C103.5141,82.2739 103.7711,82.5769 104.0491,82.9659 C104.2251,83.2109 104.5391,83.7199 104.6491,83.9199 C104.7491,84.0989 105.1841,84.8989 105.3811,85.2119 C105.5271,85.4459 105.7391,85.7449 105.8741,85.8459 C106.1171,85.8339 106.5401,85.8119 106.8511,85.8119 C107.5651,85.8119 107.8511,85.8459 107.9401,85.8459 C108.0081,85.8459 108.0311,85.8119 108.0311,85.7349 L108.0311,85.5019 C108.0311,85.4559 108.0081,85.4209 107.9401,85.4209 L107.9401,85.4209 Z M103.1361,81.9429 L103.1201,81.9429 C103.0981,81.9429 103.0801,81.9459 103.0591,81.9459 C102.9261,81.9459 102.7941,81.9209 102.6361,81.8999 L102.6581,78.6949 C102.6581,78.5629 102.7061,78.4279 102.7941,78.3729 C102.8711,78.3219 102.9881,78.3069 103.1321,78.3039 L103.2681,78.3039 C103.8261,78.3039 104.3401,78.4249 104.7391,78.7819 C105.0171,79.0369 105.2281,79.5169 105.2281,80.0269 C105.2281,80.5399 104.8711,81.9429 103.1361,81.9429 L103.1361,81.9429 Z" id="Fill-2"></path>
            </g>
        </g>
    </g>
</svg>