<?xml version="1.0" encoding="UTF-8" standalone="no"?>
<svg width="648px" height="58px" viewBox="0 0 648 58" version="1.1" xmlns="http://www.w3.org/2000/svg" xmlns:xlink="http://www.w3.org/1999/xlink">
    <!-- Generator: Sketch 46.2 (44496) - http://www.bohemiancoding.com/sketch -->
    <title>Group 8</title>
    <desc>Created with Sketch.</desc>
    <defs></defs>
    <g id="Page-1" stroke="none" stroke-width="1" fill="none" fill-rule="evenodd">
        <g id="About" transform="translate(-38.000000, -72.000000)" fill="#FEFEFE">
            <g id="Header">
                <g id="Group-8" transform="translate(38.000000, 72.407900)">
                    <path d="M12.5336,51.451 C18.6276,51.451 22.9066,48.303 22.9066,42.693 L22.9066,42.612 C22.9066,37.688 19.6776,35.63 13.9466,34.136 C9.0626,32.885 7.8516,32.28 7.8516,30.423 L7.8516,30.342 C7.8516,28.97 9.1026,27.88 11.4846,27.88 C13.8656,27.88 16.3276,28.93 18.8296,30.665 L22.0586,25.984 C19.1926,23.683 15.6816,22.391 11.5646,22.391 C5.7936,22.391 1.6766,25.782 1.6766,30.908 L1.6766,30.988 C1.6766,36.598 5.3496,38.172 11.0406,39.625 C15.7626,40.836 16.7306,41.643 16.7306,43.217 L16.7306,43.298 C16.7306,44.953 15.1976,45.962 12.6546,45.962 C9.4256,45.962 6.7616,44.63 4.2196,42.531 L0.5466,46.931 C3.9366,49.958 8.2556,51.451 12.5336,51.451 L12.5336,51.451 Z M34.8526,51.451 C37.9606,51.451 39.7766,49.796 41.1896,47.98 L41.1896,51.047 L47.3246,51.047 L47.3246,29.414 L41.1896,29.414 L41.1896,41.482 C41.1896,44.388 39.6966,45.881 37.3556,45.881 C35.0146,45.881 33.6416,44.388 33.6416,41.482 L33.6416,29.414 L27.5076,29.414 L27.5076,43.419 C27.5076,48.384 30.2116,51.451 34.8526,51.451 L34.8526,51.451 Z M60.4006,51.451 C65.0826,51.451 68.6746,49.272 68.6746,44.469 L68.6746,44.388 C68.6746,40.433 65.1626,38.98 62.1356,37.971 C59.7946,37.163 57.7366,36.598 57.7366,35.388 L57.7366,35.307 C57.7366,34.459 58.5036,33.813 59.9966,33.813 C61.5706,33.813 63.7096,34.58 65.8496,35.832 L68.1896,31.594 C65.8496,30.02 62.8626,29.091 60.1176,29.091 C55.7586,29.091 52.2076,31.553 52.2076,35.953 L52.2076,36.033 C52.2076,40.231 55.6376,41.643 58.6646,42.531 C61.0466,43.258 63.1446,43.702 63.1446,45.034 L63.1446,45.114 C63.1446,46.083 62.3376,46.729 60.5616,46.729 C58.5436,46.729 56.0816,45.841 53.7406,44.146 L51.1176,48.182 C53.9836,50.442 57.3736,51.451 60.4006,51.451 L60.4006,51.451 Z M79.9756,51.411 C82.0336,51.411 83.5276,50.926 84.8186,50.159 L84.8186,45.235 C83.9306,45.72 82.9216,46.002 81.7916,46.002 C80.4196,46.002 79.8136,45.316 79.8136,43.904 L79.8136,34.661 L84.8996,34.661 L84.8996,29.414 L79.8136,29.414 L79.8136,23.885 L73.6796,23.885 L73.6796,29.414 L71.0966,29.414 L71.0966,34.661 L73.6796,34.661 L73.6796,44.913 C73.6796,49.917 76.2216,51.411 79.9756,51.411 L79.9756,51.411 Z M95.5546,51.451 C98.5406,51.451 100.5996,50.361 102.0926,48.706 L102.0926,51.047 L108.0256,51.047 L108.0256,38.495 C108.0256,35.589 107.2996,33.208 105.6846,31.594 C104.1516,30.06 101.7296,29.172 98.3796,29.172 C94.7066,29.172 92.3656,29.858 89.9846,30.908 L91.5186,35.589 C93.4956,34.863 95.1506,34.419 97.4916,34.419 C100.5586,34.419 102.1326,35.832 102.1326,38.374 L102.1326,38.737 C100.5996,38.213 99.0256,37.85 96.8456,37.85 C91.7196,37.85 88.1276,40.029 88.1276,44.751 L88.1276,44.832 C88.1276,49.11 91.4776,51.451 95.5546,51.451 L95.5546,51.451 Z M97.4106,47.213 C95.4336,47.213 94.0606,46.245 94.0606,44.59 L94.0606,44.509 C94.0606,42.572 95.6756,41.522 98.2986,41.522 C99.7926,41.522 101.1646,41.845 102.2136,42.33 L102.2136,43.419 C102.2136,45.639 100.2766,47.213 97.4106,47.213 L97.4106,47.213 Z M113.4336,27.033 L119.8916,27.033 L119.8916,21.584 L113.4336,21.584 L113.4336,27.033 Z M113.5956,51.047 L119.7306,51.047 L119.7306,29.414 L113.5956,29.414 L113.5956,51.047 Z M125.5006,51.047 L131.6356,51.047 L131.6356,38.98 C131.6356,36.074 133.1296,34.58 135.4696,34.58 C137.8106,34.58 139.1836,36.074 139.1836,38.98 L139.1836,51.047 L145.3176,51.047 L145.3176,37.042 C145.3176,32.078 142.6136,29.011 137.9726,29.011 C134.8646,29.011 133.0486,30.665 131.6356,32.482 L131.6356,29.414 L125.5006,29.414 L125.5006,51.047 Z M156.7796,51.451 C159.7666,51.451 161.8246,50.361 163.3186,48.706 L163.3186,51.047 L169.2516,51.047 L169.2516,38.495 C169.2516,35.589 168.5246,33.208 166.9106,31.594 C165.3766,30.06 162.9546,29.172 159.6046,29.172 C155.9326,29.172 153.5916,29.858 151.2096,30.908 L152.7436,35.589 C154.7216,34.863 156.3766,34.419 158.7176,34.419 C161.7846,34.419 163.3586,35.832 163.3586,38.374 L163.3586,38.737 C161.8246,38.213 160.2506,37.85 158.0716,37.85 C152.9456,37.85 149.3536,40.029 149.3536,44.751 L149.3536,44.832 C149.3536,49.11 152.7036,51.451 156.7796,51.451 L156.7796,51.451 Z M158.6366,47.213 C156.6586,47.213 155.2866,46.245 155.2866,44.59 L155.2866,44.509 C155.2866,42.572 156.9006,41.522 159.5246,41.522 C161.0176,41.522 162.3896,41.845 163.4396,42.33 L163.4396,43.419 C163.4396,45.639 161.5016,47.213 158.6366,47.213 L158.6366,47.213 Z M187.4136,51.451 C192.5386,51.451 197.2616,47.496 197.2616,40.271 L197.2616,40.19 C197.2616,32.966 192.4586,29.011 187.4136,29.011 C184.2246,29.011 182.1666,30.504 180.6726,32.522 L180.6726,21.584 L174.5386,21.584 L174.5386,51.047 L180.6726,51.047 L180.6726,48.222 C182.1256,49.958 184.1436,51.451 187.4136,51.451 L187.4136,51.451 Z M185.8396,46.245 C182.9736,46.245 180.5926,43.863 180.5926,40.271 L180.5926,40.19 C180.5926,36.598 182.9736,34.217 185.8396,34.217 C188.7046,34.217 191.1266,36.598 191.1266,40.19 L191.1266,40.271 C191.1266,43.904 188.7046,46.245 185.8396,46.245 L185.8396,46.245 Z M202.0636,51.047 L208.1986,51.047 L208.1986,21.584 L202.0636,21.584 L202.0636,51.047 Z M224.2206,51.532 C228.1356,51.532 231.0416,49.998 233.0596,47.496 L229.5486,44.388 C227.8536,45.962 226.3596,46.608 224.3016,46.608 C221.5566,46.608 219.6196,45.155 219.0146,42.37 L234.0686,42.37 C234.1096,41.805 234.1496,41.24 234.1496,40.755 C234.1496,34.621 230.8396,29.011 223.6156,29.011 C217.3196,29.011 212.9196,34.096 212.9196,40.271 L212.9196,40.352 C212.9196,46.971 217.7226,51.532 224.2206,51.532 L224.2206,51.532 Z M218.9336,38.536 C219.4176,35.751 221.0726,33.935 223.6156,33.935 C226.1986,33.935 227.8126,35.791 228.1766,38.536 L218.9336,38.536 Z M258.9296,51.249 L264.3386,51.249 L270.7156,32.764 L277.0926,51.249 L282.5006,51.249 L292.1466,22.795 L285.6486,22.795 L279.7966,41.926 L273.4596,22.714 L268.1326,22.714 L261.7956,41.926 L255.9436,22.795 L249.2836,22.795 L258.9296,51.249 Z M299.4116,51.451 C302.3986,51.451 304.4566,50.361 305.9496,48.706 L305.9496,51.047 L311.8826,51.047 L311.8826,38.495 C311.8826,35.589 311.1566,33.208 309.5416,31.594 C308.0086,30.06 305.5866,29.172 302.2366,29.172 C298.5636,29.172 296.2236,29.858 293.8416,30.908 L295.3756,35.589 C297.3536,34.863 299.0076,34.419 301.3486,34.419 C304.4166,34.419 305.9906,35.832 305.9906,38.374 L305.9906,38.737 C304.4566,38.213 302.8826,37.85 300.7036,37.85 C295.5776,37.85 291.9856,40.029 291.9856,44.751 L291.9856,44.832 C291.9856,49.11 295.3356,51.451 299.4116,51.451 L299.4116,51.451 Z M301.2686,47.213 C299.2906,47.213 297.9186,46.245 297.9186,44.59 L297.9186,44.509 C297.9186,42.572 299.5326,41.522 302.1556,41.522 C303.6496,41.522 305.0216,41.845 306.0706,42.33 L306.0706,43.419 C306.0706,45.639 304.1336,47.213 301.2686,47.213 L301.2686,47.213 Z M324.2736,51.411 C326.3326,51.411 327.8256,50.926 329.1176,50.159 L329.1176,45.235 C328.2296,45.72 327.2206,46.002 326.0896,46.002 C324.7176,46.002 324.1126,45.316 324.1126,43.904 L324.1126,34.661 L329.1976,34.661 L329.1976,29.414 L324.1126,29.414 L324.1126,23.885 L317.9776,23.885 L317.9776,29.414 L315.3946,29.414 L315.3946,34.661 L317.9776,34.661 L317.9776,44.913 C317.9776,49.917 320.5206,51.411 324.2736,51.411 L324.2736,51.411 Z M343.3646,51.532 C347.2786,51.532 350.1846,49.998 352.2026,47.496 L348.6916,44.388 C346.9966,45.962 345.5036,46.608 343.4446,46.608 C340.7006,46.608 338.7626,45.155 338.1576,42.37 L353.2116,42.37 C353.2526,41.805 353.2926,41.24 353.2926,40.755 C353.2926,34.621 349.9836,29.011 342.7586,29.011 C336.4626,29.011 332.0636,34.096 332.0636,40.271 L332.0636,40.352 C332.0636,46.971 336.8656,51.532 343.3646,51.532 L343.3646,51.532 Z M338.0766,38.536 C338.5616,35.751 340.2156,33.935 342.7586,33.935 C345.3416,33.935 346.9566,35.791 347.3196,38.536 L338.0766,38.536 Z M357.8536,51.047 L363.9876,51.047 L363.9876,43.056 C363.9876,37.89 366.4906,35.428 370.5666,35.428 L370.8896,35.428 L370.8896,29.011 C367.2576,28.849 365.2396,30.786 363.9876,33.773 L363.9876,29.414 L357.8536,29.414 L357.8536,51.047 Z M387.4776,51.047 L393.5716,51.047 L393.5716,32.724 L401.4416,44.67 L401.6036,44.67 L409.5546,32.603 L409.5546,51.047 L415.7296,51.047 L415.7296,22.795 L409.0296,22.795 L401.6036,34.742 L394.1766,22.795 L387.4776,22.795 L387.4776,51.047 Z M427.9986,51.451 C430.9856,51.451 433.0436,50.361 434.5376,48.706 L434.5376,51.047 L440.4706,51.047 L440.4706,38.495 C440.4706,35.589 439.7436,33.208 438.1296,31.594 C436.5956,30.06 434.1736,29.172 430.8246,29.172 C427.1516,29.172 424.8106,29.858 422.4296,30.908 L423.9626,35.589 C425.9406,34.863 427.5956,34.419 429.9366,34.419 C433.0036,34.419 434.5776,35.832 434.5776,38.374 L434.5776,38.737 C433.0436,38.213 431.4696,37.85 429.2906,37.85 C424.1646,37.85 420.5726,40.029 420.5726,44.751 L420.5726,44.832 C420.5726,49.11 423.9226,51.451 427.9986,51.451 L427.9986,51.451 Z M429.8556,47.213 C427.8776,47.213 426.5056,46.245 426.5056,44.59 L426.5056,44.509 C426.5056,42.572 428.1196,41.522 430.7436,41.522 C432.2366,41.522 433.6086,41.845 434.6586,42.33 L434.6586,43.419 C434.6586,45.639 432.7206,47.213 429.8556,47.213 L429.8556,47.213 Z M445.7576,51.047 L451.8926,51.047 L451.8926,38.98 C451.8926,36.074 453.3856,34.58 455.7266,34.58 C458.0676,34.58 459.4396,36.074 459.4396,38.98 L459.4396,51.047 L465.5746,51.047 L465.5746,37.042 C465.5746,32.078 462.8706,29.011 458.2286,29.011 C455.1206,29.011 453.3046,30.665 451.8926,32.482 L451.8926,29.414 L445.7576,29.414 L445.7576,51.047 Z M477.0366,51.451 C480.0226,51.451 482.0816,50.361 483.5746,48.706 L483.5746,51.047 L489.5076,51.047 L489.5076,38.495 C489.5076,35.589 488.7806,33.208 487.1666,31.594 C485.6326,30.06 483.2116,29.172 479.8616,29.172 C476.1886,29.172 473.8476,29.858 471.4666,30.908 L472.9996,35.589 C474.9776,34.863 476.6326,34.419 478.9736,34.419 C482.0406,34.419 483.6146,35.832 483.6146,38.374 L483.6146,38.737 C482.0816,38.213 480.5066,37.85 478.3276,37.85 C473.2016,37.85 469.6096,40.029 469.6096,44.751 L469.6096,44.832 C469.6096,49.11 472.9596,51.451 477.0366,51.451 L477.0366,51.451 Z M478.8926,47.213 C476.9146,47.213 475.5426,46.245 475.5426,44.59 L475.5426,44.509 C475.5426,42.572 477.1576,41.522 479.7806,41.522 C481.2736,41.522 482.6466,41.845 483.6956,42.33 L483.6956,43.419 C483.6956,45.639 481.7586,47.213 478.8926,47.213 L478.8926,47.213 Z M504.4806,57.586 C508.6786,57.586 511.7866,56.698 513.8046,54.68 C515.6206,52.864 516.5486,50.038 516.5486,46.164 L516.5486,29.414 L510.4136,29.414 L510.4136,32.239 C508.7596,30.423 506.7816,29.011 503.4316,29.011 C498.4676,29.011 493.8256,32.643 493.8256,39.101 L493.8256,39.181 C493.8256,45.599 498.3866,49.272 503.4316,49.272 C506.7006,49.272 508.6786,47.94 510.4946,45.76 L510.4946,46.81 C510.4946,50.684 508.5166,52.702 504.3196,52.702 C501.4536,52.702 499.2346,51.976 497.0146,50.725 L494.9156,55.326 C497.6596,56.779 500.9696,57.586 504.4806,57.586 L504.4806,57.586 Z M505.2076,44.186 C502.2206,44.186 499.9606,42.168 499.9606,39.181 L499.9606,39.101 C499.9606,36.154 502.2206,34.096 505.2076,34.096 C508.1946,34.096 510.4946,36.154 510.4946,39.101 L510.4946,39.181 C510.4946,42.128 508.1946,44.186 505.2076,44.186 L505.2076,44.186 Z M532.2886,51.532 C536.2036,51.532 539.1096,49.998 541.1276,47.496 L537.6166,44.388 C535.9216,45.962 534.4276,46.608 532.3696,46.608 C529.6246,46.608 527.6876,45.155 527.0826,42.37 L542.1366,42.37 C542.1776,41.805 542.2176,41.24 542.2176,40.755 C542.2176,34.621 538.9076,29.011 531.6836,29.011 C525.3876,29.011 520.9876,34.096 520.9876,40.271 L520.9876,40.352 C520.9876,46.971 525.7906,51.532 532.2886,51.532 L532.2886,51.532 Z M527.0016,38.536 C527.4856,35.751 529.1406,33.935 531.6836,33.935 C534.2666,33.935 535.8806,35.791 536.2446,38.536 L527.0016,38.536 Z M546.7776,51.047 L552.9126,51.047 L552.9126,38.98 C552.9126,36.074 554.3256,34.58 556.6256,34.58 C558.9266,34.58 560.2176,36.074 560.2176,38.98 L560.2176,51.047 L566.3526,51.047 L566.3526,38.98 C566.3526,36.074 567.7656,34.58 570.0656,34.58 C572.3666,34.58 573.6576,36.074 573.6576,38.98 L573.6576,51.047 L579.7926,51.047 L579.7926,36.962 C579.7926,31.755 577.0486,29.011 572.4876,29.011 C569.5416,29.011 567.2806,30.221 565.3836,32.441 C564.2536,30.262 562.1146,29.011 559.2896,29.011 C556.1816,29.011 554.3256,30.665 552.9126,32.482 L552.9126,29.414 L546.7776,29.414 L546.7776,51.047 Z M595.3716,51.532 C599.2866,51.532 602.1926,49.998 604.2106,47.496 L600.6996,44.388 C599.0046,45.962 597.5106,46.608 595.4526,46.608 C592.7076,46.608 590.7706,45.155 590.1656,42.37 L605.2196,42.37 C605.2596,41.805 605.3006,41.24 605.3006,40.755 C605.3006,34.621 601.9906,29.011 594.7666,29.011 C588.4706,29.011 584.0706,34.096 584.0706,40.271 L584.0706,40.352 C584.0706,46.971 588.8736,51.532 595.3716,51.532 L595.3716,51.532 Z M590.0846,38.536 C590.5686,35.751 592.2236,33.935 594.7666,33.935 C597.3496,33.935 598.9636,35.791 599.3266,38.536 L590.0846,38.536 Z M609.8606,51.047 L615.9956,51.047 L615.9956,38.98 C615.9956,36.074 617.4886,34.58 619.8296,34.58 C622.1706,34.58 623.5426,36.074 623.5426,38.98 L623.5426,51.047 L629.6776,51.047 L629.6776,37.042 C629.6776,32.078 626.9736,29.011 622.3326,29.011 C619.2246,29.011 617.4086,30.665 615.9956,32.482 L615.9956,29.414 L609.8606,29.414 L609.8606,51.047 Z M642.3096,51.411 C644.3686,51.411 645.8616,50.926 647.1536,50.159 L647.1536,45.235 C646.2656,45.72 645.2566,46.002 644.1266,46.002 C642.7536,46.002 642.1486,45.316 642.1486,43.904 L642.1486,34.661 L647.2336,34.661 L647.2336,29.414 L642.1486,29.414 L642.1486,23.885 L636.0136,23.885 L636.0136,29.414 L633.4306,29.414 L633.4306,34.661 L636.0136,34.661 L636.0136,44.913 C636.0136,49.917 638.5566,51.411 642.3096,51.411 L642.3096,51.411 Z" id="Fill-4"></path>
                    <path d="M2.5376,10.4087 L4.2366,10.4087 L4.2366,3.3827 L7.3156,7.9917 L7.3716,7.9917 L10.4786,3.3547 L10.4786,10.4087 L12.2056,10.4087 L12.2056,0.5727 L10.3656,0.5727 L7.3716,5.2237 L4.3766,0.5727 L2.5376,0.5727 L2.5376,10.4087 Z M14.9476,10.4087 L16.7176,10.4087 L17.7296,8.0337 L22.3806,8.0337 L23.3786,10.4087 L25.2056,10.4087 L20.8776,0.5027 L19.2756,0.5027 L14.9476,10.4087 Z M18.3616,6.5037 L20.0486,2.5677 L21.7486,6.5037 L18.3616,6.5037 Z M31.2216,10.5497 C33.2876,10.5497 34.7336,9.4547 34.7336,7.6137 L34.7336,7.5847 C34.7336,5.9547 33.6666,5.2097 31.5866,4.7037 C29.6886,4.2537 29.2386,3.9157 29.2386,3.1567 L29.2386,3.1287 C29.2386,2.4827 29.8296,1.9617 30.8416,1.9617 C31.7416,1.9617 32.6276,2.3137 33.5126,2.9747 L34.4396,1.6677 C33.4426,0.8667 32.3046,0.4317 30.8696,0.4317 C28.9156,0.4317 27.5116,1.5967 27.5116,3.2837 L27.5116,3.3117 C27.5116,5.1247 28.6916,5.7437 30.7856,6.2497 C32.6136,6.6717 33.0076,7.0507 33.0076,7.7537 L33.0076,7.7817 C33.0076,8.5127 32.3326,9.0187 31.2636,9.0187 C30.0546,9.0187 29.0986,8.5547 28.1576,7.7397 L27.1186,8.9767 C28.2986,10.0297 29.7166,10.5497 31.2216,10.5497 L31.2216,10.5497 Z M40.0346,10.4087 L41.7756,10.4087 L41.7756,2.1727 L44.8956,2.1727 L44.8956,0.5727 L36.9146,0.5727 L36.9146,2.1727 L40.0346,2.1727 L40.0346,10.4087 Z M47.7776,10.4087 L55.1406,10.4087 L55.1406,8.8647 L49.5046,8.8647 L49.5046,6.2207 L54.4376,6.2207 L54.4376,4.6767 L49.5046,4.6767 L49.5046,2.1167 L55.0706,2.1167 L55.0706,0.5727 L47.7776,0.5727 L47.7776,10.4087 Z M58.2486,10.4087 L59.9756,10.4087 L59.9756,6.9797 L62.1406,6.9797 L64.5586,10.4087 L66.6086,10.4087 L63.9546,6.6847 C65.3166,6.2917 66.2856,5.3227 66.2856,3.7057 L66.2856,3.6777 C66.2856,2.8197 65.9906,2.0887 65.4716,1.5547 C64.8396,0.9377 63.8696,0.5727 62.6326,0.5727 L58.2486,0.5727 L58.2486,10.4087 Z M59.9756,5.4497 L59.9756,2.1447 L62.4916,2.1447 C63.7716,2.1447 64.5306,2.7217 64.5306,3.7757 L64.5306,3.8037 C64.5306,4.8027 63.7436,5.4497 62.5056,5.4497 L59.9756,5.4497 Z M79.4266,10.5777 C82.4496,10.5777 84.5836,8.2597 84.5836,5.4907 L84.5836,5.4627 C84.5836,2.6927 82.4776,0.4037 79.4556,0.4037 C76.4326,0.4037 74.2986,2.7217 74.2986,5.4907 L74.2986,5.5187 C74.2986,8.2877 76.4046,10.5777 79.4266,10.5777 L79.4266,10.5777 Z M79.4556,8.9767 C77.5006,8.9767 76.1096,7.4027 76.1096,5.4907 L76.1096,5.4627 C76.1096,3.5507 77.4726,1.9907 79.4266,1.9907 C81.3806,1.9907 82.7726,3.5787 82.7726,5.4907 L82.7726,5.5187 C82.7726,7.4307 81.4096,8.9767 79.4556,8.9767 L79.4556,8.9767 Z M87.7336,10.4087 L89.4606,10.4087 L89.4606,6.4037 L94.4216,6.4037 L94.4216,4.8307 L89.4606,4.8307 L89.4606,2.1447 L95.0546,2.1447 L95.0546,0.5727 L87.7336,0.5727 L87.7336,10.4087 Z M106.7196,10.5497 C108.7866,10.5497 110.2326,9.4547 110.2326,7.6137 L110.2326,7.5847 C110.2326,5.9547 109.1656,5.2097 107.0856,4.7037 C105.1876,4.2537 104.7376,3.9157 104.7376,3.1567 L104.7376,3.1287 C104.7376,2.4827 105.3276,1.9617 106.3406,1.9617 C107.2406,1.9617 108.1256,2.3137 109.0116,2.9747 L109.9376,1.6677 C108.9406,0.8667 107.8026,0.4317 106.3686,0.4317 C104.4146,0.4317 103.0106,1.5967 103.0106,3.2837 L103.0106,3.3117 C103.0106,5.1247 104.1896,5.7437 106.2836,6.2497 C108.1116,6.6717 108.5056,7.0507 108.5056,7.7537 L108.5056,7.7817 C108.5056,8.5127 107.8306,9.0187 106.7626,9.0187 C105.5526,9.0187 104.5966,8.5547 103.6566,7.7397 L102.6166,8.9767 C103.7966,10.0297 105.2156,10.5497 106.7196,10.5497 L106.7196,10.5497 Z M117.8926,10.5777 C119.7336,10.5777 120.8576,9.9037 121.8836,8.8367 L120.7736,7.7117 C119.9296,8.4987 119.1566,8.9767 117.9486,8.9767 C116.0646,8.9767 114.7016,7.4167 114.7016,5.4907 L114.7016,5.4627 C114.7016,3.5367 116.0796,1.9907 117.9486,1.9907 C119.0726,1.9907 119.9156,2.4827 120.7026,3.2137 L121.8136,1.9337 C120.8716,1.0357 119.7756,0.4037 117.9626,0.4037 C114.9826,0.4037 112.8906,2.6927 112.8906,5.4907 L112.8906,5.5187 C112.8906,8.3447 115.0246,10.5777 117.8926,10.5777 L117.8926,10.5777 Z M124.8506,10.4087 L126.5776,10.4087 L126.5776,0.5727 L124.8506,0.5727 L124.8506,10.4087 Z M130.2616,10.4087 L137.6236,10.4087 L137.6236,8.8647 L131.9886,8.8647 L131.9886,6.2207 L136.9216,6.2207 L136.9216,4.6767 L131.9886,4.6767 L131.9886,2.1167 L137.5536,2.1167 L137.5536,0.5727 L130.2616,0.5727 L130.2616,10.4087 Z M140.7316,10.4087 L142.4306,10.4087 L142.4306,3.4107 L147.8566,10.4087 L149.3026,10.4087 L149.3026,0.5727 L147.6046,0.5727 L147.6046,7.3737 L142.3326,0.5727 L140.7316,0.5727 L140.7316,10.4087 Z M157.4546,10.5777 C159.2956,10.5777 160.4196,9.9037 161.4456,8.8367 L160.3356,7.7117 C159.4926,8.4987 158.7196,8.9767 157.5106,8.9767 C155.6276,8.9767 154.2636,7.4167 154.2636,5.4907 L154.2636,5.4627 C154.2636,3.5367 155.6416,1.9907 157.5106,1.9907 C158.6346,1.9907 159.4786,2.4827 160.2656,3.2137 L161.3756,1.9337 C160.4336,1.0357 159.3376,0.4037 157.5246,0.4037 C154.5456,0.4037 152.4526,2.6927 152.4526,5.4907 L152.4526,5.5187 C152.4526,8.3447 154.5876,10.5777 157.4546,10.5777 L157.4546,10.5777 Z M164.3146,10.4087 L171.6776,10.4087 L171.6776,8.8647 L166.0416,8.8647 L166.0416,6.2207 L170.9746,6.2207 L170.9746,4.6767 L166.0416,4.6767 L166.0416,2.1167 L171.6066,2.1167 L171.6066,0.5727 L164.3146,0.5727 L164.3146,10.4087 Z M180.1536,10.4087 L181.8806,10.4087 L181.8806,0.5727 L180.1536,0.5727 L180.1536,10.4087 Z M185.5636,10.4087 L187.2626,10.4087 L187.2626,3.4107 L192.6896,10.4087 L194.1356,10.4087 L194.1356,0.5727 L192.4366,0.5727 L192.4366,7.3737 L187.1646,0.5727 L185.5636,0.5727 L185.5636,10.4087 Z" id="Fill-6"></path>
                </g>
            </g>
        </g>
    </g>
</svg>