<?xml version="1.0" encoding="UTF-8" standalone="no"?>
<svg width="69px" height="24px" viewBox="0 0 69 24" version="1.1" xmlns="http://www.w3.org/2000/svg" xmlns:xlink="http://www.w3.org/1999/xlink">
    <!-- Generator: Sketch 46.2 (44496) - http://www.bohemiancoding.com/sketch -->
    <title>Group 9</title>
    <desc>Created with Sketch.</desc>
    <defs></defs>
    <g id="Page-1" stroke="none" stroke-width="1" fill="none" fill-rule="evenodd">
        <g id="Track-Pages-(Even-Image-Grid)" transform="translate(-37.000000, -13.000000)" fill="#FEFEFE">
            <g id="Header">
                <g id="Group-9" transform="translate(37.000000, 13.428600)">
                    <path d="M0.0936,0.3927 L0.0936,8.9667 L3.2546,8.9667 L3.2546,3.9227 L7.3676,3.9227 L7.3676,19.3787 L3.9736,19.3787 L3.9736,22.4757 L15.9196,22.4757 L15.9196,19.3787 L12.5256,19.3787 L12.5256,3.9227 L16.7356,3.9227 C16.7356,3.9227 16.7316,6.2617 16.7306,6.5387 C16.9896,6.5387 19.5906,6.5377 19.8486,6.5377 L19.8486,0.3927 L0.0936,0.3927 Z" id="Fill-4"></path>
                    <path d="M26.0802,7.4395 L26.0802,10.3575 L28.5002,10.3575 L28.5002,17.9605 L28.3552,18.0685 C27.2892,18.8585 26.2832,19.2595 25.3642,19.2595 C24.6272,19.2595 24.0972,19.0705 23.7892,18.6995 C23.4932,18.3435 23.3482,17.7455 23.3482,16.8705 L23.3482,7.4395 L16.7122,7.4395 L16.7122,10.3575 L19.0672,10.3575 L19.0672,18.1525 C19.0672,19.5955 19.4652,20.7195 20.2502,21.4945 C21.0372,22.2705 22.1512,22.6645 23.5612,22.6645 C25.0272,22.6645 26.4992,22.1615 27.9372,21.1695 L28.5002,20.7805 L28.5002,22.4375 L34.5482,22.4375 L34.5482,19.5355 L32.7982,19.5355 L32.7982,7.4395 L26.0802,7.4395 Z" id="Fill-5"></path>
                    <path d="M38.9994,1.7247 L38.9994,1.7247 C38.0444,2.7607 37.5604,4.0737 37.5604,5.6287 L37.5604,7.4337 L35.4494,7.4337 L35.4494,10.3517 L37.5604,10.3517 L37.5604,19.5297 L35.4464,19.5297 L35.4464,22.4317 L44.3264,22.4317 L44.3264,19.5297 L41.8584,19.5297 L41.8584,10.3517 L44.3264,10.3517 L44.3264,7.4337 L41.8584,7.4337 L41.8584,5.3527 C41.8584,3.2577 42.7604,2.8177 43.5174,2.8177 C44.1874,2.8177 44.7124,3.3117 45.0854,4.2747 C45.3284,4.0847 47.8034,2.1517 48.0344,1.9717 C47.0444,0.7837 45.4594,0.1757 43.3064,0.1757 C41.3954,0.1757 39.9464,0.6967 38.9994,1.7247" id="Fill-6"></path>
                    <path d="M50.2113,2.6568 C50.2113,2.6568 47.3543,4.7088 47.2293,4.7988 L47.2293,7.4418 L45.2323,7.4418 L45.2323,10.3608 L47.2293,10.3608 L47.2293,18.9348 C47.2293,21.4818 48.4253,22.6668 50.9943,22.6668 C52.0963,22.6668 53.2483,22.4328 54.4183,21.9788 L54.4183,19.2288 C53.9583,19.3618 53.5503,19.4408 53.2023,19.4408 C52.5123,19.4408 52.0643,19.2898 51.8343,18.9788 C51.6253,18.6988 51.5283,18.2358 51.5283,17.5228 L51.5283,10.3608 L54.4183,10.3608 L54.4183,7.4418 L51.5283,7.4418 L51.5283,1.7108 C51.1783,1.9628 50.2113,2.6568 50.2113,2.6568" id="Fill-7"></path>
                    <path d="M56.1815,8.3756 L56.1815,8.3756 C55.1775,9.2206 54.6685,10.2706 54.6685,11.4956 C54.6685,12.8026 55.2065,13.8656 56.2685,14.6576 C57.3595,15.4716 59.1795,16.0886 61.6765,16.4916 C62.9465,16.7036 63.7815,16.9236 64.2295,17.1646 C64.7265,17.4326 64.9785,17.8196 64.9785,18.3156 C64.9785,18.8386 64.7115,19.2696 64.1855,19.5976 C63.6915,19.9046 63.0055,20.0596 62.1455,20.0596 C61.1525,20.0596 60.3025,19.8266 59.6195,19.3656 C58.9845,18.9366 58.6265,18.3546 58.5375,17.6406 L55.2695,17.6406 L55.2695,22.6106 L58.5005,22.6106 L58.5005,21.4856 L58.8815,21.9016 C59.5275,22.6086 60.7675,22.9676 62.5675,22.9676 C64.5165,22.9676 66.0375,22.4916 67.0895,21.5536 C68.1345,20.6216 68.6655,19.4056 68.6655,17.9416 C68.6655,16.9136 68.3875,16.0206 67.8395,15.2886 C67.2885,14.5536 66.5455,14.0186 65.6295,13.6996 C64.6805,13.3696 63.2275,13.0336 61.3125,12.7016 C60.0545,12.4796 59.2875,12.2896 58.9665,12.1206 C58.5985,11.9266 58.4035,11.6206 58.4035,11.2356 C58.4035,10.2936 59.2095,9.8156 60.7975,9.8156 C62.7625,9.8156 63.9635,10.3706 64.3815,11.4566 L67.6095,11.4566 L67.6095,7.3306 L64.4585,7.3306 L64.4585,7.9776 L64.1555,7.8496 C62.9525,7.3436 61.6435,7.0866 60.2625,7.0866 C58.5695,7.0866 57.1965,7.5206 56.1815,8.3756" id="Fill-8"></path>
                </g>
            </g>
        </g>
    </g>
</svg>